<?xml version="1.0" encoding="UTF-8"?><svg id="_レイヤー_2" xmlns="http://www.w3.org/2000/svg" viewBox="0 0 300.97 47.03"><defs><style>.cls-1{fill:#3e3a39;stroke-width:0px;}</style></defs><g id="_レイヤー_1-2"><path class="cls-1" d="M9.93,8.02c.38,0,.57.12.57.43s-.16.45-.57.45h-4.84c-.55,0-.55.12-.55,2.55,0,2.27.02,12.34.02,14.41,0,.47-.1.65-.42.65-.45,0-.45-.14-.45-1.34V8.86c0-.57.32-.83.87-.83h5.37Z"/><path class="cls-1" d="M20.5,14.71c.47,0,.67-.22.93-.55.2-.26.37-.45.47-.45.16,0,1.28.97,1.28,1.22,0,.3-.12.3-1.2.3h-5.21c-.95,0-1.2.02-1.92.04-.12,0-.71.06-.83.06-.06,0-.12-.04-.16-.08l-.45-.53c-.06-.08-.08-.08-.08-.12,0-.02.06-.04.08-.04.06,0,.47.04.55.04.79.04,1.99.1,2.7.1h3.85ZM20.05,17.89c.47,0,.67-.2.93-.55.2-.24.36-.45.47-.45.16,0,1.28.97,1.28,1.24,0,.3-.1.3-1.2.3h-2.43c-.06,0-.36,0-.36.22,0,.2.06.22.73.57,1.5.75,2.19,1.13,2.19,2.03,0,.45-.24.87-.63.87-.36,0-.41-.1-.83-.93-.24-.47-.93-1.66-1.26-1.66-.22,0-.22.32-.24.55,0,.24-.02,2.13-.02,2.51,0,.34.04,1.78.04,2.07,0,.59,0,.93-.06,1.07-.04.1-.4.45-.85.45s-.47-.28-.47-.45c0-.59.12-3.2.12-3.73,0-1.18,0-1.3-.16-1.3-.06,0-.16.14-.24.28-.32.47-1.2,1.72-2.13,2.57-.18.16-.97.85-1.07.85-.06,0-.1-.04-.1-.1s.93-1.34,1.11-1.6c.99-1.46,1.91-3.36,1.91-3.95,0-.24-.08-.32-.53-.32-.57,0-1.01.02-1.46.06-.06,0-.32.04-.38.04-.08,0-.12-.04-.16-.1l-.47-.53c-.06-.06-.06-.08-.06-.1,0-.04.04-.04.08-.04.02,0,.51.04.61.04.93.04,1.99.1,2.59.1.43,0,.47-.2.47-.47,0-.34-.02-.75-.02-1.09-.02-.1-.1-.53-.1-.61,0-.12.16-.14.22-.14.14,0,1.54.14,1.54.55,0,.12-.34.59-.36.69,0,.08-.02.63-.02.71,0,.2.1.35.38.35h.95ZM17.8,11.12c-1.34,0-1.91.02-2.15.02-.12.02-.69.08-.81.08-.08,0-.14-.06-.18-.1l-.45-.51s-.06-.1-.06-.12c0-.04.04-.06.08-.06.38,0,2.13.14,2.47.14.63,0,.63-.04.63-1.36,0-.32,0-.57-.08-.83,0-.04-.08-.3-.08-.34,0-.06.04-.18.24-.18.06,0,1.58.3,1.58.53,0,.04-.22.51-.26.59-.1.2-.18.45-.18.93s.02.67.45.67h.47c.26,0,.49-.12.69-.36.49-.55.55-.61.69-.61.45,0,1.54.97,1.54,1.24,0,.28-.4.28-1.07.28h-.87c-.06,0-.16.02-.16.12,0,.2.95.65.95.83,0,.14-.57.57-.65.67-.22.24-1.13,1.4-1.36,1.62-.16.12-.43.28-.49.28s-.08-.08-.08-.12c0-.08.3-.75.37-.89.43-1.12.53-1.64.53-1.95,0-.37-.06-.57-.61-.57h-1.13ZM15.72,11.57c.43,0,1.62.83,1.62,1.92,0,.39-.24.91-.71.91s-.51-.12-.71-1.42c-.1-.57-.12-.65-.3-1.22,0-.04-.04-.14,0-.16.04-.04.08-.04.1-.04ZM25.85,15.42c-.67,0-.67.32-.71,1.48-.1,2.43-.26,4.6-1.6,6.63-.95,1.44-2.33,2.21-2.47,2.21-.06,0-.14,0-.14-.06,0-.12.43-.49.51-.57,2.23-2.9,2.41-4.72,2.41-9.56,0-2.39-.04-2.96-.12-4.19-.02-.22-.12-1.28-.12-1.36s0-.18.1-.18c.12,0,.65.22.77.26.16.04.36.1.59.1.61,0,3-.87,3.87-1.38.1-.06.51-.38.59-.38.22,0,1.97,1.09,1.97,1.32,0,.18-.08.2-1.13.26-.47.04-4.64.51-4.88.61-.26.12-.3.2-.3,2.61,0,1.52,0,1.68.71,1.68h3.02c.34,0,.57,0,.85-.38.51-.67.57-.75.75-.75.2,0,.28.1,1.09.91.32.32.34.34.34.47,0,.28-.38.28-1.2.28h-1.28c-.14,0-.43.1-.47.57-.02.14-.04,5.86-.04,6.28,0,.46.04,2.47.04,2.88,0,.45-.14,1.03-1.01,1.03-.49,0-.53-.16-.53-.47,0-.2.06-1.84.12-3.53.02-.75.02-4.19.02-5.25,0-1.11-.06-1.52-.53-1.52h-1.22Z"/><path class="cls-1" d="M38.48,17.14c-.08.12-.08,1.01-.08,1.24,0,.83.1,4.54.1,5.29v1.17c0,.08.04.55.04.65,0,.41-.38.83-.91.83-.59,0-.67-.28-.67-.63,0-.16.02-.37.04-.69.06-1.05.12-2.27.12-3.87,0-.51.02-2.11-.02-3.34,0-.28-.02-.47-.18-.47-.24,0-2.45,1.97-2.7,1.97-.02,0-.1,0-.1-.06,0-.02,1.2-1.32,1.38-1.54,1.46-1.74,3.18-4.21,3.32-5.19.02-.22.04-.3.16-.3.14,0,.47.22.63.35.51.34,1.05.73,1.05.99,0,.24-.14.3-.53.45-.2.08-.24.08-1.16,1.18-.1.12-.63.75-.63.81,0,.1.02.12.32.26.18.08.22.26.2.38-.02.1-.34.45-.41.53ZM49.32,10.42c.39,0,.55-.04.71-.28.26-.38.3-.43.45-.43.1,0,.22.02.3.08.37.26.89.71,1.24.97.55.43.59.49.59.69,0,.28-.22.41-.53.41-.16,0-1.05-.1-1.26-.1-.3,0-.91.2-1.18.34-.16.08-.3.16-.36.2-.02,0-.04-.04-.04-.06.24-.4.49-.83.49-.99,0-.28-.34-.28-.57-.28h-11.33c-.37,0-.43,0-.65.71-.2.63-.93,1.72-1.54,1.72-.36,0-.81-.22-.81-.87,0-.4.16-.57.36-.79.65-.69,1.03-1.09,1.28-1.7.06-.12.24-.75.26-.75.08,0,.34.32.49.75.12.35.22.38.53.38h4.66c.63,0,.63-.36.63-.63,0-.35-.02-1.18-.04-1.46,0-.08-.12-.41-.12-.49,0-.12.1-.18.22-.18.1,0,1.38.29,1.56.32.16.02.41.12.41.39,0,.16-.04.2-.41.57-.14.14-.18.24-.18.89,0,.45.16.59.69.59h4.15ZM47.96,14.02c-.36,0-.47,0-.79.34-.63.69-.83.91-1.76,1.72-.22.18-.36.3-.36.39,0,.12.16.12.22.12h3.4c.26,0,.49-.02.65-.26.24-.37.28-.43.47-.43.08,0,.67.45,1.01.71.49.38.53.43.53.53,0,.18-.14.28-.28.34-.24.14-.36.24-.43.41-.06.16-.06,3.99-.06,4.48,0,.24,0,1.66.06,2.15.02.08.08.51.08.61,0,.59-.49.97-1.11.97-.49,0-.51-.63-.53-.95-.02-.43-.41-.43-.55-.43h-4.4c-.49,0-.53.14-.61.65-.08.51-.57.81-.95.81-.61,0-.61-.47-.61-.61,0-.16,0-.22.04-.79.06-.77.14-1.86.14-3.77,0-1.46,0-3.69-.12-4.48-.02-.1-.1-.53-.1-.63,0-.06.06-.1.12-.1.1,0,.2.06,1.13.57.39.22.51.22.69.22.36,0,.38-.06.67-.49.34-.51.87-1.62.87-1.8,0-.28-.18-.28-.34-.28h-.32c-.38,0-1.44,0-2.25.04-.08,0-.57.06-.61.06-.06,0-.1-.04-.18-.12l-.38-.47c-.08-.1-.08-.12-.08-.14,0-.04.04-.04.06-.04.14,0,.75.06.89.06.59.02,1.64.08,2.8.08h3.4c.59,0,.67,0,.97-.38.41-.49.59-.65.77-.65.3,0,1.6.97,1.6,1.28,0,.28-.38.28-1.07.28h-2.67ZM44.13,17.12c-.65,0-.65.16-.65,1.5,0,1.44,0,1.6.65,1.6h4.5c.65,0,.65-.16.65-1.56s0-1.54-.65-1.54h-4.5ZM44.05,20.75c-.38,0-.55.18-.55.55v2.11c0,.4,0,.77.57.77h4.64c.38,0,.55-.18.55-.55v-2.09c0-.4,0-.79-.55-.79h-4.66Z"/><path class="cls-1" d="M56.36,26.3c-.39,0-.57-.12-.57-.42s.16-.45.57-.45h4.84c.55,0,.55-.12.55-2.55,0-2.27-.02-12.34-.02-14.41,0-.46.1-.65.43-.65.43,0,.43.14.43,1.34v16.31c0,.57-.3.83-.85.83h-5.37Z"/><path class="cls-1" d="M68.52,23.14c0,.43,0,1.76-.77,1.76-.34,0-.61-.32-.61-.73,0-.18.2-1.05.22-1.13.12-.57.22-1.28.22-1.72,0-.85,0-.91.12-.91.02,0,.08.02.12.04.3.18.69,1.52.69,2.7ZM73.31,17.83c.47,0,.51,0,.73-.2.26-.24.4-.38.53-.38.22,0,1.28.73,1.28,1.07,0,.12-.04.16-.38.61-.06.08-.12.22-.16.69-.02.26-.16,2.29-.67,4.11-.49,1.78-2.01,2.49-2.41,2.49-.18,0-.26-.04-.55-.53-.12-.18-.3-.38-.41-.47-.04-.04-.34-.26-.34-.34s.22-.08.41-.08c1.42,0,1.7-.59,1.8-.81.63-1.3,1.01-4.13,1.01-5.13,0-.49-.34-.49-.63-.49h-3.57c-.16,0-.32.04-.43.18-.28.38-.34.49-.83.49s-.63-.16-.63-.63c0-.32.14-4.58.14-5.27,0-.79-.02-2.63-.08-3.36-.02-.12-.12-.81-.12-.95,0-.08,0-.12.06-.12.1,0,1.03.38,1.24.47.28.1.57.14.87.14h2.27c.83,0,1.07,0,1.28-.34.28-.51.38-.65.65-.65.22,0,1.5.95,1.5,1.26,0,.28-.43.28-1.09.28h-1.88c-.63,0-.63.14-.63,1.22,0,.71.04,1.01.57,1.01.43,0,.55,0,.71-.32.14-.24.36-.65.67-.65.28,0,1.21.97,1.21,1.24,0,.29-.34.29-.93.29h-1.64c-.59,0-.59.1-.59,1.7,0,.55.45.55.59.55.3,0,.43,0,.59-.32.1-.22.3-.65.63-.65s1.28.97,1.28,1.26-.41.28-1.07.28h-1.38c-.63,0-.63.16-.63,1.8,0,.53.3.57.61.57h.45ZM70.63,23.22c0,.65-.34.85-.59.85-.51,0-.59-.53-.61-1.28-.02-.57-.1-1.17-.24-1.8-.04-.14-.06-.34-.06-.49,0-.18.08-.22.2-.18.59.22,1.3,2.25,1.3,2.9ZM70.63,12.1c.59,0,.59-.32.59-1.09,0-.87,0-1.13-.61-1.13h-.59c-.61,0-.61.28-.61,1.12s0,1.11.61,1.11h.61ZM70.63,14.92c.59,0,.59-.3.59-1.12,0-.87,0-1.15-.59-1.15h-.61c-.61,0-.61.28-.61,1.15,0,.81,0,1.12.59,1.12h.63ZM70.57,17.83c.65,0,.65-.26.65-1.18s0-1.2-.59-1.2h-.57c-.65,0-.65.26-.65,1.17s0,1.2.63,1.2h.53ZM71.56,23c-.3,0-.3-.26-.34-1.01-.02-.36-.1-.93-.22-1.46-.04-.14-.12-.65-.12-.73,0-.1,0-.22.08-.22.2,0,1.28,1.15,1.28,2.21,0,.83-.45,1.21-.67,1.21ZM73.53,21.08c0,.36-.18.67-.47.67-.37,0-.39-.12-.57-1.32-.04-.29-.12-.59-.26-.93-.02-.08-.04-.14-.04-.22,0-.1.04-.16.14-.14.3.04,1.2,1.11,1.2,1.95ZM82.61,9.28c.3,0,.42-.06.55-.22.28-.43.45-.65.61-.65.18,0,1.24.83,1.24,1.09,0,.14-.38.77-.45.93-.06.24-.06,2.01-.06,2.37,0,.38.06,2.27.06,2.69,0,.53-.55.89-1.01.89-.42,0-.45-.2-.51-.65-.02-.24-.04-.41-.55-.41h-.79c-.14,0-.57,0-.57.51,0,.1.02.2.04.32.28,1.86,1.01,5.55,3.34,7.88.2.18,1.24,1.09,1.24,1.17s-.12.1-.2.1-.41-.04-.49-.04c-.2,0-.67.02-1.12.1-.08.02-.47.18-.51.18-.1,0-.22-.22-.28-.3-1.97-3.28-2.35-5.78-2.55-9.1-.06-.81-.1-.83-.59-.83h-1.13c-.61,0-.61.12-.61,1.24,0,2.74-.79,6.16-2.39,8.37-.16.24-.97,1.22-1.2,1.22-.08,0-.12-.06-.12-.1,0-.08.63-1.07.75-1.28,1.76-3.3,1.76-7.64,1.76-9.22,0-1.05-.02-3.91-.28-5.88-.02-.12-.12-.69-.12-.83,0-.06,0-.2.08-.2.2,0,1.09.43,1.24.46.12.04.45.16.83.16h3.79ZM78.82,9.81c-.22,0-.45.16-.49.3-.08.22-.08,3.59-.08,3.99s.04.71.61.71h3.65c.14,0,.41,0,.53-.22.14-.22.14-3.69.14-4.01,0-.57-.08-.77-.63-.77h-3.73Z"/><path class="cls-1" d="M96.98,15.1c2.45,2.45,4.46,3.34,5.67,3.89.95.45,1.78.89,1.78,1.48,0,.12-.18.77-.75.77-.18,0-2.01-.06-5.03-2.96-.49-.47-2.65-2.65-3.1-3.08-.47-.45-.81-.71-1.13-.71-.67,0-.85.18-2.51,1.8-.14.14-1.62,1.54-1.66,1.56-.08.06-.2.1-.32.1-.77,0-1.97-.95-1.97-1.3,0-.08.04-.1.38-.14.93-.08,2.41-.85,3.3-1.56,1.7-1.36,2.11-1.5,2.8-1.5.53,0,1.2.3,2.53,1.64Z"/><path class="cls-1" d="M223.18,26.21h-13.75v-.94c.7-2.2,2.34-4.65,5.14-7.84,5.14-5.95,6.89-7.94,6.89-11.44,0-2.62-1.68-4.79-4.65-4.79-2.45,0-3.92,1.47-3.92,2.73,0,.11,0,.56.35,1.08.46.7.73,1.09.73,1.75,0,1.05-.84,1.96-1.89,1.96-1.22,0-1.99-1.15-1.99-2.45,0-2.55,2.48-6.26,7.52-6.26,4.34,0,7,2.73,7,6.51,0,3.53-2.03,5.46-5.18,8.15-1.19.98-5.81,4.93-7.56,8.78h4.83c4.9,0,6.05-1.89,7.1-4.79l1.05.38-1.68,7.17Z"/><path class="cls-1" d="M241.55,26.21h-13.75v-.94c.7-2.2,2.34-4.65,5.14-7.84,5.14-5.95,6.89-7.94,6.89-11.44,0-2.62-1.68-4.79-4.65-4.79-2.45,0-3.92,1.47-3.92,2.73,0,.11,0,.56.35,1.08.45.7.73,1.09.73,1.75,0,1.05-.84,1.96-1.89,1.96-1.22,0-1.99-1.15-1.99-2.45,0-2.55,2.48-6.26,7.52-6.26,4.34,0,7,2.73,7,6.51,0,3.53-2.03,5.46-5.18,8.15-1.19.98-5.81,4.93-7.56,8.78h4.83c4.9,0,6.05-1.89,7.1-4.79l1.05.38-1.68,7.17Z"/><path class="cls-1" d="M253.73,10.1c0,.2-.14.24-.57.35-.2.06-.57.65-1.01,1.38-2.35,3.87-5.57,5.61-6.02,5.61-.08,0-.12-.04-.12-.12,0-.12.04-.14.43-.45,2.74-2.15,4.28-5.51,4.56-6.12.14-.3.67-2.03.69-2.03.14-.06,2.05,1.03,2.05,1.38ZM255.7,16.02c-.53,0-.53.04-.65,1.11-.18,1.78-.57,5.29-4.09,7.26-1.66.93-3.77,1.32-3.87,1.32-.06,0-.24,0-.24-.14,0-.1.1-.14.46-.26,1.4-.51,3.02-1.46,3.99-2.45,1.5-1.52,2.29-4.28,2.29-6.38,0-.45-.2-.45-.51-.45h-.61c-.75,0-1.72.02-2.09.04-.08.02-.36.06-.42.06-.08,0-.12-.06-.18-.14l-.4-.47c-.06-.08-.08-.1-.08-.12,0-.04.02-.06.08-.06.14,0,.75.08.89.08.99.04,1.82.06,2.78.06h4.44c.91,0,1.01-.04,1.34-.39.3-.32.49-.45.63-.45.32,0,1.5.93,1.5,1.36,0,.1-.32.47-.37.55-.1.2-.22,2.51-.26,2.98-.22,2.45-.38,4.11-.95,5.03-.55.87-1.76,1.21-2.07,1.21-.22,0-.22-.06-.38-.63-.12-.47-.81-.73-1.86-1.03-.45-.12-.67-.2-.67-.32s.18-.12.22-.12c.14,0,.69.12.79.14,1.07.14,1.2.16,1.44.16.97,0,1.52-.18,1.8-2.27.2-1.56.41-3.91.41-4.95,0-.55-.04-.73-.61-.73h-2.73ZM256.71,9.5c-.51,0-1.2.02-1.62.04-.06,0-.34.04-.4.04s-.08-.02-.16-.12l-.38-.46s-.06-.1-.06-.14c0-.02.02-.04.06-.04.12,0,.71.08.83.08.22.02,1.07.06,1.22.06.46,0,.73-.34.85-.53.41-.57.45-.63.61-.63.26,0,1.76,1.01,1.76,1.46,0,.2-.06.22-.61.36-.1.02-.41.12-.41.43,0,1.05,2.67,4.28,6.1,4.62.06,0,.3.04.3.16,0,.1-.53.22-.61.24-.53.26-.97.63-1.24.93-.04.06-.26.3-.32.3-.69,0-4.03-2.8-4.84-5.86-.22-.87-.26-.95-.73-.95h-.35Z"/><path class="cls-1" d="M270.73,24.61c.1.11.59.64.59.71,0,.03-.02.07-.08.07-.12,0-2.89-1.99-2.89-5.72s2.77-5.72,2.89-5.72c.06,0,.08.05.08.07,0,.07-.49.6-.59.71-.48.6-1.73,2.32-1.73,4.94s1.25,4.33,1.73,4.94Z"/><path class="cls-1" d="M277.38,24.23h-4.72v-.32c.24-.76.8-1.6,1.77-2.69,1.76-2.04,2.37-2.73,2.37-3.93,0-.9-.58-1.64-1.6-1.64-.84,0-1.35.5-1.35.94,0,.04,0,.19.12.37.16.24.25.37.25.6,0,.36-.29.67-.65.67-.42,0-.68-.4-.68-.84,0-.88.85-2.15,2.58-2.15,1.49,0,2.4.94,2.4,2.23,0,1.21-.7,1.87-1.78,2.8-.41.34-1.99,1.69-2.59,3.01h1.66c1.68,0,2.08-.65,2.44-1.64l.36.13-.58,2.46Z"/><path class="cls-1" d="M281.65,24.46c-.83,0-1.53-.58-1.97-1.3-.5-.83-.73-2.31-.73-3.42,0-2.56,1.09-4.5,2.7-4.5,1.24,0,2.7,1.33,2.7,4.61,0,2.94-1.24,4.61-2.7,4.61ZM280.31,17.24c-.17.6-.28,1.61-.28,2.61,0,2.68.64,4.2,1.62,4.2.83,0,1.2-1.11,1.33-1.56.17-.61.29-1.63.29-2.64,0-2.74-.66-4.2-1.62-4.2-.85,0-1.22,1.18-1.35,1.6Z"/><path class="cls-1" d="M289.98,15.78c0,.12-.08.14-.34.2-.12.04-.34.38-.6.82-1.39,2.29-3.3,3.33-3.57,3.33-.05,0-.07-.02-.07-.07,0-.07.02-.08.25-.26,1.62-1.27,2.54-3.27,2.7-3.63.08-.18.4-1.2.41-1.2.08-.04,1.21.61,1.21.82ZM291.14,19.29c-.31,0-.31.02-.38.66-.11,1.06-.34,3.13-2.43,4.3-.99.55-2.23.78-2.29.78-.04,0-.14,0-.14-.08,0-.06.06-.08.28-.16.83-.3,1.79-.87,2.37-1.45.89-.9,1.36-2.53,1.36-3.78,0-.26-.12-.26-.3-.26h-.36c-.44,0-1.02.01-1.24.02-.05.01-.21.04-.25.04-.05,0-.07-.04-.11-.08l-.24-.28s-.05-.06-.05-.07c0-.02.01-.04.05-.04.08,0,.44.05.53.05.59.02,1.08.04,1.65.04h2.63c.54,0,.6-.02.79-.23.18-.19.29-.26.37-.26.19,0,.89.55.89.8,0,.06-.19.28-.22.32-.06.12-.13,1.49-.16,1.76-.13,1.45-.23,2.44-.56,2.98-.32.52-1.04.72-1.22.72-.13,0-.13-.04-.23-.37-.07-.28-.48-.43-1.1-.61-.26-.07-.4-.12-.4-.19s.11-.07.13-.07c.08,0,.41.07.47.08.64.08.71.1.85.1.58,0,.9-.11,1.07-1.34.12-.92.24-2.32.24-2.93,0-.32-.03-.43-.36-.43h-1.62ZM291.74,15.42c-.3,0-.71.01-.96.02-.04,0-.21.03-.24.03-.04,0-.05-.01-.1-.07l-.23-.28s-.04-.06-.04-.08c0-.01.01-.02.04-.02.07,0,.42.05.49.05.13.01.64.04.72.04.28,0,.43-.2.5-.31.24-.34.26-.37.36-.37.16,0,1.04.6,1.04.86,0,.12-.04.13-.36.22-.06.01-.24.07-.24.25,0,.62,1.59,2.53,3.62,2.74.04,0,.18.02.18.1,0,.06-.31.13-.36.14-.31.16-.58.37-.73.55-.02.04-.16.18-.19.18-.41,0-2.39-1.66-2.87-3.47-.13-.52-.15-.56-.43-.56h-.2Z"/><path class="cls-1" d="M298.58,14.73c-.1-.11-.59-.64-.59-.71,0-.02.02-.07.08-.07.12,0,2.89,1.99,2.89,5.72s-2.77,5.72-2.89,5.72c-.06,0-.08-.05-.08-.07,0-.07.49-.6.59-.71.48-.6,1.73-2.32,1.73-4.94s-1.25-4.33-1.73-4.94Z"/><path class="cls-1" d="M3.54,38.55c.09,0,.24,0,.24.16,0,.15-.13.15-.29.15-.12,0-.63,0-.7.49-.03.16-.03,3.06-.03,3.6,0,.24.02,1.4.02,1.66,0,.57,0,1.32-.58,1.89-.35.35-.82.52-1.27.52-.51,0-.92-.23-.92-.68,0-.24.12-.55.56-.55.35,0,.41.15.54.51.07.17.16.23.34.23.44,0,.5-.34.54-.57.04-.29.04-4.91.04-5.64,0-1.34,0-1.47-1-1.47-.04,0-.19,0-.19-.15,0-.16.14-.16.24-.16h2.46Z"/><path class="cls-1" d="M7.71,38.55c.46,0,2.62.05,2.62,1.64,0,.97-.73,1.41-1.26,1.66-.33.16-.37.18-.37.29,0,.23.8,1.91.99,2.27.13.26.39.76,1.12.76.09,0,.29,0,.29.15,0,.13-.19.15-.24.15h-1.19c-.1,0-.29,0-.45-.28-.06-.1-.73-1.57-.84-1.81-.52-1.15-.59-1.3-.92-1.3h-.52c-.07,0-.19.04-.22.11-.04.1-.04,1.35-.04,1.57,0,1.15,0,1.4.88,1.4.07,0,.2,0,.2.15s-.17.15-.28.15h-2.35c-.09,0-.24-.02-.24-.15,0-.15.13-.15.27-.15.66,0,.75-.3.78-.66.02-.32.02-2.94.02-3.38,0-.35,0-1.68-.08-1.92-.12-.35-.53-.35-.75-.35-.06,0-.26,0-.26-.17,0-.14.17-.14.29-.14h2.55ZM7.36,38.86c-.68,0-.68.43-.68,1.41,0,1.49,0,1.52.26,1.52h.77c.93,0,1.72-.51,1.72-1.5,0-.67-.36-1.43-1.6-1.43h-.47Z"/><path class="cls-1" d="M13.82,42.74c-.24,0-.26.12-.28.33-.03.25-.28.53-.56.53-.24,0-.25-.12-.25-.25,0-.07.03-.39.04-.47.02-.36.02-1.25.02-1.51,0-.6-.02-1.22-.06-1.72,0-.05-.03-.31-.03-.33,0-.03,0-.07.03-.07.09,0,.15.04.72.34.18.1.29.13.51.13h1.58c.29,0,.29-.17.29-.35,0-.29,0-1.15-.03-1.42,0-.06-.06-.29-.06-.35s.06-.06.09-.06c.07,0,.93.14.93.32,0,.06-.2.25-.21.29-.04.16-.04.24-.04,1.25,0,.14,0,.31.27.31h1.77c.1,0,.2,0,.29-.13.18-.25.2-.28.29-.28.13,0,.81.48.81.61,0,.06-.21.24-.24.29-.08.13-.08.25-.08,1.2,0,.19.03,1.14.03,1.36,0,.2,0,.31-.09.44-.19.23-.42.25-.47.25-.27,0-.27-.23-.27-.47,0-.08,0-.26-.28-.26h-1.71c-.17,0-.3.02-.3.31,0,.33.02,1.98.02,2.35,0,.2,0,.75-.5.75-.31,0-.31-.29-.31-.38,0-.1.04-.59.04-.7,0-.33.03-1.67.03-2,0-.23-.03-.33-.29-.33h-1.71ZM15.54,42.48c.08,0,.2,0,.25-.11.06-.11.06-1.31.06-1.55,0-.76,0-.84-.29-.84h-1.77c-.28,0-.28.1-.28.45,0,.24.02,1.42.02,1.69s.05.36.29.36h1.72ZM18.62,42.48c.08,0,.22,0,.25-.14.02-.07.05-1.86.05-2.04,0-.23-.08-.31-.28-.31h-1.83c-.28,0-.28.19-.28.32,0,.25,0,1.89.03,2.01.03.14.13.17.26.17h1.81Z"/><path class="cls-1" d="M26.59,42.45s-.14,0-.14.1.34.87.94,1.39c.28.24,1.07.89,2.72,1.2.03,0,.31.06.31.08,0,.04-.2.11-.24.13-.14.1-.41.29-.52.42-.02.03-.1.24-.15.24s-2.32-.59-3.17-3.29c-.07-.22-.08-.25-.1-.25s-.04.04-.04.08c-.08.57-.23.93-.32,1.14-.74,1.65-3.12,2.38-3.77,2.38-.02,0-.07,0-.07-.04,0-.03.02-.04.2-.1.59-.2,1.86-.76,2.7-1.83.49-.64.61-1.38.61-1.46,0-.19-.12-.19-.23-.19h-1.94c-.23,0-.88,0-1.21.03-.03,0-.17.02-.2.02s-.05-.02-.09-.06l-.18-.22s-.04-.05-.04-.07c0-.02.02-.02.03-.02.19,0,1.12.07,1.33.07.12,0,.23-.05.25-.18,0-.04,0-1.2,0-1.36,0-.44,0-1.1-.02-1.3,0-.05-.04-.24-.04-.3,0-.06.02-.11.09-.11.1,0,.26.09.56.24.16.08.24.09.41.09h1.08c.24,0,.3-.06.3-.25,0-.08-.02-.49-.07-.94,0-.08-.09-.47-.09-.56,0-.08.04-.09.11-.09.09,0,.47.09.69.16.29.09.37.11.37.25,0,.07-.05.12-.2.21-.18.11-.18.16-.18.69,0,.43,0,.53.31.53h1.12c.13,0,.23,0,.34-.15.12-.15.16-.21.24-.21.11,0,.63.33.63.49,0,.02,0,.05-.02.08-.02.03-.14.11-.21.15-.06.08-.06.29-.06,2.17,0,.23,0,.4.23.4.17,0,.29-.15.35-.28.1-.18.15-.29.29-.29.12,0,.78.48.78.66,0,.16-.14.16-.51.16h-3.21ZM25.35,42.21c.08,0,.22,0,.27-.17.03-.12.09-1.37.09-2.17,0-.31-.1-.33-.32-.33h-1.14c-.15,0-.27.02-.29.19,0,.05,0,2.02,0,2.15,0,.28.09.33.31.33h1.1ZM27.75,42.21c.3,0,.3-.16.3-.34v-2.09c0-.24-.19-.24-.3-.24h-1.13c-.2,0-.29.05-.29.29,0,.35,0,.97,0,1.11,0,.22-.07.91-.07,1.03,0,.23.12.24.29.24h1.2Z"/><path class="cls-1" d="M32.98,41.86c0-.34.28-.63.63-.63s.63.28.63.63-.29.63-.63.63-.63-.28-.63-.63Z"/><path class="cls-1" d="M38.12,43.48c-.27.57-.66,1.39-.93,1.69-.24.28-.27.28-.31.28,0,0-.02,0-.02-.02,0,0,.24-.58.28-.69.07-.22.37-1.1.44-1.59.03-.16.03-.18.08-.18.03,0,.28.08.42.13.16.06.22.1.19.18-.02.04-.11.17-.13.2ZM38.75,41.85c.27,0,.6,0,.86,0,.08,0,.14,0,.14-.07,0-.13-.17-.44-.19-.47-.02-.03-.09-.16-.09-.18,0-.03.03-.06.06-.06.11,0,.96.53.96,1.07,0,.34-.25.46-.29.46-.14,0-.25-.31-.27-.35-.04-.1-.07-.18-.16-.18-.03,0-.46.07-.51.08-.14.03-.15.03-.15,1.11,0,.36.06,2.11.06,2.51,0,.23-.22.38-.42.38-.27,0-.27-.21-.27-.34,0-.44.08-2.62.08-3.12,0-.35,0-.4-.2-.4-.13,0-.59.06-.77.11-.03,0-.19.11-.23.11-.14,0-.25-.66-.25-.67,0-.08.07-.08.11-.08s.3.05.36.05c.07,0,.46.03.52.03.15,0,.2-.03.27-.16.23-.43.78-1.6,1.04-2.54.06-.21.07-.24.11-.24.06,0,.76.43.76.59,0,.1-.07.12-.11.14-.19.08-.21.09-.27.16-.15.18-.74,1.17-.88,1.39s-.36.55-.36.66c0,.02.08.02.1.02ZM38.37,39.79c.04.06.19.24.19.5,0,.31-.2.44-.32.44-.11,0-.19-.09-.21-.12-.06-.09-.22-.57-.27-.67-.06-.12-.42-.72-.42-.73s0-.04.05-.04c.1,0,.64.28.65.28.13,0,.5-.93.65-1.57.06-.27.06-.29.11-.29.02,0,.77.37.77.51,0,.04-.02.05-.17.12-.2.1-.27.2-.88,1.03-.04.06-.23.32-.23.38s.05.11.08.16ZM40.19,44.59c-.29,0-.3-.19-.36-.72-.02-.16-.1-.43-.17-.6-.02-.04-.05-.1-.05-.12,0-.03.03-.05.06-.05.14,0,.84.51.84.97,0,.18-.06.52-.31.52ZM40.71,45.61c-.19,0-.36-.12-.36-.35,0-.11.02-.16.17-.35.08-.1.44-.56.52-1.14,0-.07.02-.13.05-.13.12,0,.23.6.23.75,0,.46-.09,1.23-.61,1.23ZM42.34,38.2c0,.09-.07.11-.17.17-.08.04-.23.31-.31.47-.41.72-.8,1.25-1.25,1.58-.05.03-.13.09-.2.09,0,0-.03,0-.03-.03,0-.06.16-.24.19-.29.26-.38.75-1.25.97-2.28,0-.04.02-.23.05-.23.08.05.26.14.35.2.37.23.41.25.41.32ZM43.8,40.88s.02-.06.07-.06c.11,0,1.12.8,1.12,1.46,0,.23-.13.4-.33.4s-.19,0-.42-.75c-.03-.08-.06-.15-.17-.15-.07,0-1.53.29-2.36.55-.08.03-.5.24-.51.24-.13,0-.45-.66-.45-.81,0-.05.02-.08.08-.08.08,0,.4.06.48.06.19,0,.23,0,.56-.68.31-.63.54-1.4.59-1.54.02-.08.05-.09.08-.09.1,0,.78.4.78.63,0,.09-.08.1-.2.13-.21.05-.27.06-.93,1.03-.05.07-.29.41-.29.44,0,.08.09.08.11.08,0,0,.92-.05,1.64-.16.32-.05.35-.05.36-.12s-.21-.46-.21-.55ZM42.61,43.45s-.12.24-.13.28c-.07.27-.07.34-.07.81,0,.77,0,.9.59.9.84,0,.86-.04,1.12-.6.03-.07.03-.08.07-.2,0-.02.02-.05.05-.05.05,0,.11.56.14.61.03.03.14.16.16.19,0,.03.02.05.02.07,0,.54-1.57.54-1.79.54-.56,0-.92-.04-.92-.83,0-.19,0-1.02,0-1.19,0-.08-.02-.41-.02-.48,0-.04-.04-.19-.04-.23,0-.05.05-.06.08-.06.04,0,.25.05.3.06.39.08.43.09.43.17ZM42.79,38.05s-.04-.05-.04-.07.02-.02.03-.02.36.03.43.03c.15,0,.2-.05.25-.1.14-.16.22-.24.29-.24.09,0,.43.25.43.38,0,.06-.08.1-.14.14-.05.02-.2.1-.2.2s.45,1.13,1.71,1.59c.05.02.09.03.09.05,0,.07-.31.15-.37.19-.05.03-.29.23-.36.23-.1,0-.24-.12-.29-.16-.54-.5-.72-.95-1.04-1.77-.07-.17-.09-.2-.19-.2-.06,0-.3.03-.34.03-.03,0-.05-.02-.08-.06l-.18-.22ZM43.87,43.4c0,.25-.21.43-.36.43-.2,0-.23-.16-.29-.55-.05-.25-.11-.37-.26-.66-.05-.1-.05-.13-.05-.14,0-.03.04-.05.08-.05.08,0,.33.15.48.29.17.16.4.45.4.68ZM45.5,44.66c0,.31-.12.63-.35.63-.19,0-.22-.24-.27-.47,0-.08-.08-.48-.46-1.24-.09-.18-.1-.2-.1-.21,0-.03.04-.08.09-.08.05,0,.33.19.57.45.5.54.51.72.51.92Z"/><path class="cls-1" d="M53.64,40.14c.47,0,.51,0,.65-.17.27-.32.29-.36.38-.36.07,0,.82.53.82.65,0,.13-.19.13-.51.13h-1.83c-.23,0-.38,0-.38.29,0,.58.22,1.55.43,2.16.48,1.43,1.14,2.06,1.28,2.06.2,0,.55-.63.66-.86.04-.09.19-.38.23-.38s.05.04.05.06c0,.06-.06.32-.06.37-.04.22-.15.99-.15,1.15,0,.1.09.5.09.59,0,.16-.09.27-.33.27-.83,0-2.49-1.86-2.81-5.15-.05-.52-.06-.56-.47-.56h-1.47s-.08,0-.08.04.02.05.2.11c0,0,.27.1.27.21,0,.07-.05.09-.17.21-.12.1-.12.82-.12,1.08,0,.13,0,.35.27.35h.19c.11,0,.21,0,.33-.19.18-.28.2-.3.29-.3.17,0,.75.45.75.61,0,.13-.18.13-.51.13h-1.02c-.15,0-.3,0-.3.3,0,.24,0,1.25,0,1.45,0,.09,0,.35.27.35.11,0,1.6-.23,1.68-.25.09-.02.36-.09.42-.09.02,0,.03,0,.03.03,0,.08-.88.39-2.12.71-.4.1-2.39.61-2.51.65-.11.04-.13.07-.27.23-.05.05-.11.08-.17.08-.09,0-.11-.04-.29-.38-.1-.21-.34-.67-.34-.7s0-.05.04-.05.12.05.14.05c.17.05.25.05.5.05.14,0,.34,0,.34-.36v-2.48c0-.13-.02-.22-.04-.42,0-.05-.04-.18-.04-.22,0-.07.05-.07.08-.07.02,0,.74.21.8.23.03.02.11.05.11.16,0,.07-.26.27-.28.33,0,.05-.03,2.36-.03,2.39,0,.17.09.31.27.31.75,0,.75-.22.75-.54v-3.31c0-.61-.06-.71-.33-.71h-.71c-.83,0-1.1.02-1.2.03-.03,0-.17.02-.2.02-.04,0-.06-.02-.09-.06l-.18-.22s-.05-.05-.05-.07.02-.02.04-.02c.07,0,.36.03.42.03.47.02.86.04,1.3.04h3.02c.32,0,.38,0,.38-.3,0-.27-.07-1.65-.1-1.87,0-.06-.11-.29-.11-.33,0-.07.07-.1.12-.1.13,0,.49.14.78.26.12.05.18.08.18.15s-.07.11-.16.17c-.1.06-.1.08-.1.19,0,.24.04,1.29.05,1.5,0,.32.17.34.44.34h.49ZM49.91,38.71c.29,0,.37,0,.44-.08.07-.07.29-.42.37-.42.12,0,.71.44.71.62,0,.13-.18.13-.51.13h-1.54c-.67,0-.97.03-1,.03-.04,0-.17.02-.2.02-.04,0-.06-.02-.08-.06l-.18-.22s-.05-.05-.05-.07c0,0,.02-.02.04-.02.05,0,.26.03.3.03.29.02.94.04,1.22.04h.49ZM53.6,38.04s-.06-.04-.06-.06c0,0,0-.04.07-.04,0,0,.21.02.51.11.15.05.7.22.7.73,0,.18-.15.42-.37.42-.19,0-.25-.15-.29-.26-.17-.41-.2-.47-.43-.78-.03-.04-.08-.09-.13-.13Z"/><path class="cls-1" d="M58.31,41.84c.31,0,.7,0,.94,0,.26,0,.26-.04.26-.1,0-.1-.22-.6-.22-.62,0-.02.03-.05.07-.05.13,0,.91.62.91,1.16,0,.27-.18.41-.37.41-.25,0-.28-.19-.32-.48-.02-.14-.03-.17-.1-.17-.04,0-.4.09-.43.11-.05.05-.05.67-.05.83,0,.41.05,2.22.05,2.59s-.29.57-.5.57c-.16,0-.18-.16-.18-.4,0-.43.07-2.34.07-2.73,0-.13,0-.56-.03-.66-.02-.08-.05-.09-.17-.09-.04,0-.71.09-.88.17-.05.02-.23.16-.28.16-.09,0-.34-.75-.34-.77,0-.03.02-.03.05-.03.04,0,.35.04.42.05.05,0,.39.02.47.02.23,0,.27-.07.59-.68.34-.66.84-1.61.97-2.01.08-.24.09-.27.15-.27.03,0,.8.36.8.5,0,.08-.02.08-.23.14-.12.04-.22.11-.29.2-.41.53-.97,1.45-1.42,1.96-.04.04-.07.1-.05.13,0,.03.07.04.1.04ZM58.09,43.42c0,.07-.21.27-.24.32-.21.39-.47,1.06-.72,1.44-.02.03-.23.34-.32.34,0,0-.04,0-.04-.04s.29-.88.32-1.02c.19-.74.2-1.19.2-1.26,0-.17,0-.2.06-.2s.29.1.37.13c.24.1.37.18.37.29ZM58.08,39.8c.29.21.36.45.36.59,0,.23-.17.3-.29.3-.06,0-.12-.02-.21-.1-.08-.08-.42-.56-.5-.66-.09-.09-.52-.48-.52-.5,0-.04.04-.05.08-.05.1,0,.54.16.65.16.07,0,.09-.04.22-.35.11-.27.39-.92.39-1.58,0-.04,0-.1.06-.1,0,0,.88.29.88.49,0,.03,0,.08-.04.1-.04.03-.26.11-.29.15-.11.1-.53.74-.64.88-.08.09-.33.43-.31.51,0,.02.14.11.17.13ZM59.75,42.84s-.04-.05-.04-.07.02-.02.03-.02c.18,0,1.05.06,1.25.06.15,0,.22-.06.28-.13.1-.13.14-.19.24-.19.15,0,.62.27.62.46,0,.06-.05.09-.09.11q-.2.08-.27.2c-.4.79-.62,1.19-1.04,1.65-.67.75-1.53,1.1-1.56,1.1,0,0-.03,0-.03-.02,0-.03,0-.04.06-.08.71-.7.79-.78.97-1.01.73-.89.96-1.73.96-1.75,0-.08-.04-.08-.31-.08-.11,0-.7.04-.79.04-.03,0-.05-.02-.09-.06l-.18-.22ZM60.25,44.3c0,.32-.24.41-.32.41-.21,0-.23-.25-.28-.65,0-.12-.08-.32-.26-.71,0-.04-.04-.09-.04-.11,0-.03.03-.05.05-.05.06,0,.3.2.41.3.09.1.44.43.44.8ZM61.33,41.71c-.12,0-.19,0-.28.1-.1.13-.22.27-.4.27-.22,0-.22-.14-.22-.4,0-.28.04-1.64.04-1.95,0-.16-.02-.94-.02-1.11,0-.04,0-.07.06-.07.1,0,.53.31.65.31.19,0,.77-1.06.78-1.25,0-.07.02-.13.08-.13.02,0,.48.23.55.27.13.07.27.13.27.21,0,.07-.39.17-.46.21-.31.22-.7.58-.7.66,0,.06.02.06.18.06h1.83c.2,0,.27,0,.34-.13.21-.32.24-.36.33-.36.12,0,.66.35.66.56,0,.07-.05.13-.11.19-.13.11-.17.15-.17.31,0,.14.03.86.03,1.02,0,.18.07,1.04.07,1.12,0,.43-.46.46-.5.46-.13,0-.15-.04-.21-.23-.03-.11-.15-.11-.22-.11h-1.09s-.08,0-.08.04.02.05.18.11c.08.02.28.1.28.22,0,.08-.02.08-.17.2-.02.02-.06.06-.06.11,0,.07.29.61.34.72.08.14.2.38.31.38.23,0,.88-.68,1.08-.92.02-.03.1-.12.12-.12.05,0,.67.56.67.67,0,.04-.03.05-.06.05-.04,0-.21,0-.25,0-.28,0-.47.09-1.29.47-.17.08-.17.08-.17.14,0,.09.65,1.08,1.65,1.67.3.18.34.19.34.23,0,.03-.03.03-.15.04-.13,0-.35.04-.54.1-.04.02-.24.13-.29.13-.09,0-1.07-1.14-1.6-2.42-.04-.08-.21-.59-.23-.59-.03,0-.03.28-.03.32,0,.09.02,1.59.02,1.76,0,.58,0,.79-.21.95-.19.14-.51.26-.74.26-.06,0-.08-.02-.1-.07-.08-.16-.1-.21-.19-.32-.06-.06-.36-.31-.36-.32,0-.03.03-.03.28-.03.71,0,.75-.1.75-.79,0-.44,0-2.43-.05-2.71-.04-.23-.14-.28-.33-.28h-.59ZM61.34,39.13c-.12,0-.25.02-.29.2v.54c0,.25.18.25.29.25h2.47c.29,0,.29-.04.29-.73,0-.26-.19-.26-.29-.26h-2.48ZM61.34,40.37c-.1,0-.29,0-.29.27,0,.81,0,.83.29.83h2.51c.08,0,.27-.02.27-.26,0-.8,0-.84-.28-.84h-2.5Z"/><path class="cls-1" d="M72.35,38.55c.12,0,.23-.02.33-.19.12-.2.13-.22.2-.22.1,0,.84.47.84.66,0,.11-.06.12-.3.21-.08.03-1,1.11-1.2,1.31-.1.09-.34.32-.44.41-.04.04-.08.07-.08.1,0,.12,1.42,1.17,2.98,1.47.25.05.58.1.73.11.12,0,.14,0,.14.05,0,.03-.05.05-.13.08-.16.06-.47.18-.69.46-.09.1-.14.15-.23.15-.33,0-1.5-.56-2.65-1.49-.08-.08-.49-.46-.55-.46s-.09.02-.29.18c-.61.48-1.25.89-1.93,1.25-.15.08-.17.09-.17.13,0,.06.04.07.33.19.23.1.31.13.5.13h2.9c.11,0,.16,0,.28-.1.18-.18.2-.2.26-.2.11,0,.75.42.75.54,0,.09-.02.09-.17.21-.09.07-.1.13-.11.24,0,.16-.02.42-.02.71,0,.17.05.91.05,1.06,0,.48-.46.55-.54.55-.21,0-.21-.17-.21-.25,0-.19-.02-.32-.28-.32h-2.86c-.11,0-.28,0-.29.2-.06.45-.43.45-.52.45-.23,0-.26-.13-.26-.31,0-.07.02-.37.02-.43.02-.48.03-1.03.03-1.29,0-.59-.02-.77-.06-1-.02-.13-.03-.23-.13-.23-.09,0-1.47.67-1.77.67-.05,0-.08-.03-.08-.07s.03-.05.29-.17c1.83-.86,3.86-2.45,3.86-2.63,0-.04-.06-.11-.16-.26-.29-.38-.57-.76-.81-1.27-.05-.1-.08-.12-.1-.12-.04,0-.28.25-.32.29-1.22,1.24-2.03,1.6-2.07,1.6-.04,0-.07-.02-.07-.05,0,0,.47-.48.49-.49,1.27-1.3,1.85-2.23,1.95-2.61.04-.18.06-.24.17-.24.04,0,.56.17.66.21.21.08.32.1.32.21,0,.08-.06.11-.33.23-.1.04-.27.24-.27.29s.07.06.11.06h1.92ZM72.65,45.29c.08,0,.19,0,.25-.1.04-.08.04-.73.04-.87,0-.14,0-.8-.04-.87-.05-.1-.18-.1-.25-.1h-2.92c-.28,0-.28.05-.28.82,0,1.13.02,1.13.29,1.13h2.91ZM70.19,38.8c-.11,0-.28,0-.28.13,0,.11,1.04,1.46,1.29,1.46.16,0,1.22-1.34,1.22-1.51,0-.09-.07-.09-.14-.09h-2.09Z"/><path class="cls-1" d="M77.49,44.67c0,.2,0,.83-.36.83-.16,0-.29-.15-.29-.34,0-.09.1-.49.1-.53.06-.27.1-.6.1-.81,0-.4,0-.43.06-.43,0,0,.04,0,.06.02.14.09.32.71.32,1.26ZM79.74,42.18c.22,0,.24,0,.34-.09.12-.11.19-.18.25-.18.1,0,.6.34.6.5,0,.06-.02.08-.18.29-.03.04-.06.1-.08.32,0,.12-.08,1.07-.31,1.93-.23.84-.94,1.17-1.13,1.17-.09,0-.12-.02-.26-.25-.06-.08-.14-.18-.19-.22-.02-.02-.16-.12-.16-.16s.1-.04.19-.04c.67,0,.8-.28.85-.38.29-.61.48-1.94.48-2.4,0-.23-.16-.23-.29-.23h-1.67c-.08,0-.15.02-.2.09-.13.18-.16.23-.39.23s-.29-.08-.29-.29c0-.15.07-2.15.07-2.47,0-.37,0-1.24-.04-1.58,0-.06-.06-.38-.06-.45,0-.04,0-.06.03-.06.05,0,.49.18.58.22.13.05.27.07.41.07h1.06c.39,0,.5,0,.6-.16.13-.24.18-.3.3-.3.1,0,.7.45.7.59,0,.13-.2.13-.51.13h-.88c-.29,0-.29.07-.29.57,0,.33.02.47.27.47.2,0,.26,0,.33-.15.07-.11.17-.3.31-.3.13,0,.57.46.57.58,0,.13-.16.13-.44.13h-.77c-.28,0-.28.05-.28.8,0,.26.21.26.28.26.14,0,.2,0,.28-.15.05-.1.14-.3.29-.3s.6.46.6.59-.19.13-.5.13h-.65c-.29,0-.29.08-.29.85,0,.25.14.27.29.27h.21ZM78.48,44.71c0,.3-.16.4-.28.4-.24,0-.28-.25-.29-.6,0-.27-.05-.55-.11-.85-.02-.07-.03-.16-.03-.23,0-.08.04-.1.1-.08.28.1.61,1.05.61,1.36ZM78.48,39.49c.28,0,.28-.15.28-.51,0-.41,0-.53-.29-.53h-.28c-.29,0-.29.13-.29.52s0,.52.29.52h.29ZM78.48,40.81c.28,0,.28-.14.28-.52,0-.41,0-.54-.28-.54h-.29c-.29,0-.29.13-.29.54,0,.38,0,.52.28.52h.29ZM78.45,42.18c.3,0,.3-.12.3-.55s0-.56-.28-.56h-.27c-.3,0-.3.12-.3.55s0,.56.29.56h.25ZM78.92,44.6c-.14,0-.14-.12-.16-.47,0-.17-.05-.44-.1-.68-.02-.07-.06-.3-.06-.34,0-.05,0-.1.04-.1.1,0,.6.54.6,1.04,0,.39-.21.57-.31.57ZM79.84,43.7c0,.17-.09.31-.22.31-.17,0-.18-.06-.27-.62-.02-.13-.06-.28-.12-.44,0-.04-.02-.07-.02-.1,0-.05.02-.08.07-.07.14.02.56.52.56.91ZM84.1,38.17c.14,0,.2-.03.26-.1.13-.2.21-.3.29-.3.09,0,.58.39.58.51,0,.07-.18.36-.21.44-.03.11-.03.94-.03,1.11,0,.18.03,1.06.03,1.26,0,.25-.26.42-.48.42-.2,0-.21-.09-.24-.3,0-.11-.02-.19-.26-.19h-.37c-.07,0-.27,0-.27.24,0,.05,0,.1.02.15.13.88.48,2.6,1.57,3.7.09.08.58.51.58.55s-.06.05-.09.05-.19-.02-.23-.02c-.09,0-.31,0-.52.05-.04,0-.22.09-.24.09-.05,0-.1-.1-.13-.14-.92-1.54-1.1-2.71-1.2-4.27-.03-.38-.05-.39-.28-.39h-.53c-.29,0-.29.06-.29.58,0,1.28-.37,2.89-1.12,3.93-.08.11-.46.57-.56.57-.04,0-.06-.03-.06-.05,0-.04.29-.5.35-.6.83-1.55.83-3.58.83-4.33,0-.49,0-1.83-.13-2.76,0-.06-.06-.32-.06-.39,0-.03,0-.1.04-.1.1,0,.51.2.58.22.06.02.21.08.39.08h1.78ZM82.32,38.41c-.1,0-.21.08-.23.14-.04.1-.04,1.68-.04,1.87s.02.33.29.33h1.71c.07,0,.19,0,.25-.1.07-.1.07-1.73.07-1.88,0-.27-.04-.36-.29-.36h-1.75Z"/><path class="cls-1" d="M88.46,40.21c.08.05.19.12.19.19,0,.06-.04.08-.12.14-.12.08-.14.13-.14.32,0,1.18,0,2.37,0,3.55,0,.12.05,1.05.05,1.25,0,.29-.06.34-.25.42-.05.02-.23.1-.34.1-.19,0-.19-.2-.19-.25,0-.07.08-.74.08-.88.04-.4.06-3.09.06-3.55,0-.09,0-.59-.07-.59-.04,0-.76,1.3-.98,1.3-.02,0-.03,0-.03-.02,0-.03.47-1.05.54-1.23.61-1.46,1.03-2.94,1.03-3.19,0-.1,0-.17.09-.17.04,0,.84.33.84.56,0,.08-.27.33-.3.4-.09.14-.53,1.06-.64,1.26-.03.06-.08.16-.05.23t.23.17ZM89.89,42.19c-.18,0-.18.03-.23.31-.03.17-.2.68-.55.68-.19,0-.29-.18-.29-.35,0-.1.03-.15.15-.32.23-.33.27-.65.29-.78.02-.2.03-.22.06-.22.07,0,.17.14.27.29.09.12.15.14.29.14h4.25c.11,0,.17,0,.25-.13.02-.03.1-.16.12-.16.06,0,.92.67.92.76,0,.08-.16.14-.31.14-.05,0-.23-.02-.27-.02-.14,0-.28.07-.4.14-.12.09-.36.23-.37.23-.02,0-.02-.03-.02-.04,0-.09.2-.48.2-.57,0-.1-.09-.1-.15-.1h-4.2ZM93.21,38.75c.4,0,.5,0,.61-.16.15-.24.21-.32.3-.32.04,0,.83.48.83.6,0,.13-.19.13-.51.13h-3.58c-.21,0-.87,0-1.2.03-.03,0-.17.02-.2.02s-.05-.02-.09-.06l-.18-.22s-.04-.05-.04-.07,0-.02.03-.02c.07,0,.36.03.42.03.44.02.86.04,1.3.04h.39c.24,0,.24-.1.24-.56,0-.22,0-.35-.07-.47,0-.02-.06-.11-.06-.13,0-.03.04-.03.06-.03.05,0,.67.19.78.22.09.04.17.06.17.13,0,.07-.02.08-.12.16-.08.07-.08.2-.08.38,0,.22.06.3.25.3h.76ZM89.68,43.18s-.04-.05-.04-.07c0-.02,0-.02.03-.02.07,0,.36.03.42.03.44.02.87.04,1.3.04h.9c.44,0,.49,0,.6-.16.2-.29.23-.31.32-.31.08,0,.85.47.85.59,0,.13-.19.13-.51.13h-1.03c-.28,0-.29.17-.29.3,0,.23.02,1.25.02,1.46,0,.89-.64.99-.9.99-.14,0-.17-.1-.22-.26-.07-.21-.24-.39-.57-.54-.03,0-.09-.04-.11-.07l.02-.02s.27.06.31.07c.06,0,.3.04.39.04.41,0,.41-.16.41-.36v-1.25c0-.27,0-.36-.31-.36-.04,0-.77,0-1.11.03-.03,0-.17.02-.2.02s-.05-.02-.09-.06l-.18-.22ZM92.78,39.69c.13,0,.18,0,.27-.1.07-.08.14-.16.22-.16,0,0,.64.39.64.53,0,.07-.02.08-.18.17-.05.03-.06.08-.06.09,0,.12.02.73.02.87,0,.18-.25.3-.4.3-.13,0-.22-.07-.26-.21-.03-.13-.16-.14-.24-.14h-1.77c-.11,0-.22,0-.28.11-.09.19-.28.29-.46.29-.23,0-.25-.14-.25-.27,0-.11.03-.69.03-.82,0-.26,0-.39,0-.51,0-.05-.04-.3-.04-.36,0-.03,0-.07.04-.07.05,0,.48.16.55.19.22.08.31.08.46.08h1.72ZM92.76,40.79c.25,0,.27-.08.27-.42s0-.43-.27-.43h-1.8c-.23,0-.27.07-.27.34,0,.46.04.5.28.5h1.79Z"/><path class="cls-1" d="M101.69,42.8c-.2,0-.29.03-.29.22v.68c0,.26.18.27.35.27h1.46c.4,0,.45,0,.52-.08.1-.09.43-.55.53-.55.09,0,1.02.6,1.02.74,0,.13-.19.13-.51.13h-3.01c-.17,0-.34,0-.34.29v.59c0,.08.03.47.03.55,0,.27-.22.52-.47.52s-.26-.16-.26-.54c0-.18.03-.95.03-1.11,0-.29-.14-.29-.36-.29h-1.8c-.84,0-1.11.02-1.2.03-.04,0-.17.02-.21.02-.03,0-.04-.02-.08-.06l-.19-.22s-.04-.06-.04-.07c0-.02,0-.02.04-.02.06,0,.35.03.42.03.47.02.86.04,1.3.04h1.77c.36,0,.36-.06.36-.54,0-.56,0-.63-.31-.63h-1.44c-.15,0-.26,0-.3.12-.07.15-.14.35-.47.35-.24,0-.24-.19-.24-.59,0-1.63,0-1.82-.03-2.28,0-.08-.05-.45-.05-.52,0-.05,0-.1.08-.1.12,0,.37.09.54.15.14.06.21.06.33.06h1.58c.18,0,.29,0,.29-.24,0-.67,0-.75-.36-.75h-1.57c-.84,0-1.11.02-1.21.03-.03,0-.17.02-.2.02-.04,0-.05-.02-.08-.06l-.18-.22s-.04-.05-.04-.07,0-.02.03-.02c.07,0,.36.03.42.03.47.02.86.04,1.3.04h1.51c.18,0,.35,0,.35-.28,0-.13-.07-.83-.07-.86,0-.08.03-.11.05-.11.1,0,.89.1.89.32,0,.07-.02.08-.14.19-.08.07-.08.31-.08.45,0,.29.15.29.35.29h1.4c.4,0,.51,0,.61-.16.23-.38.26-.42.37-.42.1,0,.9.56.9.69s-.19.13-.51.13h-2.76c-.37,0-.37.08-.37.76,0,.23.11.23.29.23h1.52c.1,0,.14,0,.26-.12.19-.22.22-.25.29-.25.14,0,.63.41.63.55,0,.06-.2.25-.22.29-.03.11-.03.15-.03.81,0,.24.02,1.29.02,1.51,0,.11,0,.21-.1.29-.13.11-.27.16-.39.16-.2,0-.2-.1-.22-.23-.02-.2-.12-.2-.34-.2h-1.38ZM98.96,40.25c-.19,0-.29,0-.29.22v.54c0,.22.09.22.29.22h1.48c.2,0,.3,0,.3-.22v-.54c0-.22-.1-.22-.3-.22h-1.48ZM99,41.48c-.17,0-.29,0-.32.17,0,.04,0,.51,0,.6,0,.29.09.3.33.3h1.43c.17,0,.29,0,.32-.17,0-.05,0-.52,0-.61,0-.29-.09-.29-.33-.29h-1.43ZM101.65,40.25c-.29,0-.29.07-.29.66,0,.31.07.32.29.32h1.46c.29,0,.29-.06.29-.66,0-.3-.07-.32-.29-.32h-1.46ZM101.66,41.48c-.21,0-.29.02-.29.29,0,.1,0,.64.04.69.05.09.14.09.26.09h1.46c.21,0,.29-.02.29-.29,0-.1,0-.64-.04-.7-.05-.08-.13-.08-.26-.08h-1.46Z"/><path class="cls-1" d="M108.5,40.4c-.21,0-.87,0-1.2.02-.03,0-.17.03-.2.03-.04,0-.05-.03-.09-.07l-.18-.22s-.05-.05-.05-.06c0-.02.02-.03.04-.03.04,0,.5.05.6.05.69.03.71.02,1.25.02.29,0,.29-.08.29-.58,0-.12,0-.89-.03-.94-.07-.11-.12-.12-.25-.12-.13,0-1.06.05-1.27.05-.17,0-.19,0-.19-.05s.02-.05.23-.09c1.65-.31,2.12-.52,2.35-.63.34-.15.38-.17.46-.17.09,0,.89.37.89.51,0,.1-.04.1-.58.15-1.01.1-1.01.12-1.01.48,0,.12,0,1.2.02,1.24.05.15.2.15.27.15h.17c.22,0,.28-.02.39-.15.27-.32.29-.35.38-.35.11,0,.83.54.83.63,0,.13-.19.13-.5.13h-1.27c-.28,0-.29.04-.29.72,0,.28.1.29.17.31.4.08,1.4.32,1.4,1.05,0,.34-.21.47-.32.47-.19,0-.22-.07-.46-.66-.22-.53-.66-.73-.72-.73-.08,0-.08.07-.08.14,0,.37.03,3.05.06,3.41,0,.18.03.51.03.55,0,.36-.44.47-.55.47-.2,0-.2-.13-.2-.28,0-.47.06-2.51.06-2.93,0-.09,0-.48,0-.56s-.02-.16-.11-.16c-.05,0-.06.02-.17.14-.5.58-1.02,1.14-1.82,1.71-.08.06-.11.09-.15.09-.03,0-.05-.02-.05-.05,0,0,.6-.7.68-.82.92-1.15,1.64-2.63,1.64-2.76,0-.1-.07-.13-.12-.13h-.35ZM112.8,41.07c0,1.66,0,1.85.02,2.27,0,.07.02.36.02.42,0,.27-.14.47-.52.47-.24,0-.24-.11-.24-.18,0-.06.03-.23.03-.27.03-.3.05-1.39.05-2.7,0-.43,0-1.57-.08-2.21-.02-.12-.02-.19-.02-.2,0-.05,0-.09.08-.09.05,0,.99.17.99.34,0,.04-.02.08-.05.1-.19.17-.22.21-.25.34,0,.04-.03.82-.03,1.69ZM114.66,41.27c0,.57.06,3.06.06,3.57,0,.68-.05.87-.21.99-.25.18-.52.31-.67.31-.13,0-.15-.06-.2-.21-.11-.35-.71-.56-.82-.59-.03,0-.09-.04-.09-.08,0-.03.06-.04.07-.04.12,0,.63.09.73.09.47,0,.47-.09.47-.82,0-.88,0-5.5-.05-6.17,0-.1-.08-.62-.08-.65,0-.05.06-.09.1-.09.03,0,.81.14.87.15.06.02.14.05.14.14,0,.09-.05.11-.15.19-.08.05-.12.18-.14.29-.02.16-.03,2.41-.03,2.91Z"/><path class="cls-1" d="M118.53,42.91c-.28,0-.28.08-.31.42-.16,1.66-1.22,2.68-1.36,2.68-.04,0-.06-.03-.06-.05,0,0,.23-.38.27-.46.39-.81.55-1.64.55-4.01,0-.75-.02-2.31-.09-3.01,0-.11-.08-.65-.08-.67,0-.06,0-.08.07-.08.1,0,.37.11.47.16.33.17.45.22.75.22h4.65c.21,0,.27-.05.33-.11.16-.17.17-.19.24-.19.08,0,.77.39.77.54,0,.09-.08.14-.15.18-.22.11-.25.12-.25,1.03,0,.78.06,4.29.06,5.1,0,.42,0,1.47-.88,1.47-.08,0-.09-.02-.16-.21-.13-.34-.71-.54-.8-.56-.03,0-.17-.04-.17-.09,0-.04.07-.06.11-.06.12,0,.72.05.86.05.37,0,.38-.1.38-1.31,0-.12,0-.79-.02-.87-.04-.17-.18-.17-.29-.17h-1.93c-.26,0-.3.09-.29.37,0,.68,0,1.46,0,2.2,0,.18-.03.25-.1.31-.08.08-.26.17-.45.17s-.2-.12-.2-.25c0-.35.06-2.1.06-2.5,0-.21-.07-.3-.29-.3h-1.7ZM120.26,40.29q.29,0,.29-.96c0-.92,0-.95-.29-.95h-1.73c-.29,0-.29.04-.29.83,0,1.08,0,1.08.29,1.08h1.72ZM120.26,42.65c.09,0,.2,0,.25-.11.04-.08.04-.99.04-1.11,0-.85,0-.88-.29-.88h-1.73c-.11,0-.23.02-.27.17,0,.05,0,1.39,0,1.61,0,.15,0,.33.28.33h1.73ZM121.49,38.37c-.12,0-.25.02-.29.17,0,.06,0,1.15,0,1.38,0,.2,0,.36.29.36h1.89c.29,0,.29-.1.29-.65,0-1.26,0-1.26-.31-1.26h-1.87ZM121.49,40.54c-.29,0-.29.03-.29.9,0,.15,0,1.01.04,1.08.05.12.19.12.26.12h1.94c.29,0,.29-.07.29-.69,0-1.4,0-1.42-.3-1.42h-1.92Z"/><path class="cls-1" d="M128.22,46.03c-.2,0-.24-.07-.55-.64-.19-.33-.44-.67-1-1.02-.03-.02-.13-.09-.13-.11s.03-.07.1-.07c.33,0,1.95.49,1.95,1.38,0,.23-.19.46-.37.46Z"/><path class="cls-1" d="M135.28,37.58c.18,0,.27.06.27.2s-.08.21-.27.21h-2.27c-.26,0-.26.06-.26,1.2,0,1.06,0,5.79,0,6.76,0,.22-.05.3-.2.3-.21,0-.21-.07-.21-.63v-7.65c0-.27.15-.39.41-.39h2.52Z"/><path class="cls-1" d="M137.84,43.19c0-.27,0-.79-.02-.95,0-.09-.03-.22-.13-.22-.11,0-.89.88-1.07.88-.03,0-.05-.02-.05-.05,0-.04.05-.1.08-.13.29-.29,1.43-1.92,1.7-2.71.11-.34.12-.37.19-.37.04,0,.36.25.42.29.29.22.32.24.32.31,0,.1-.03.11-.3.21-.09.04-.49.61-.59.72-.19.22-.19.25-.19.29,0,.09.11.15.2.18.1.04.25.1.25.18,0,.05-.02.07-.17.23-.08.09-.08.15-.08.76,0,.39.04,2.3.04,2.73,0,.23,0,.63-.43.63-.25,0-.26-.16-.25-.41.03-.53.08-1.1.08-2.58ZM138.97,37.92c.06.04.12.07.12.11,0,.09-.35.28-.41.33-.19.16-1.43,1.51-1.71,1.51-.02,0-.04,0-.04-.04.06-.08.5-.65.58-.76.13-.2.51-.83.64-1.19.03-.08.12-.34.16-.36.08-.03.55.31.66.39ZM141.07,38.99c.35,0,.4,0,.49-.16.21-.33.23-.37.3-.37.1,0,.62.55.62.65,0,.13-.16.13-.41.13h-.49c-.25,0-.27.18-.27.28v1.13c0,.23.19.25.23.25.19,0,.24-.05.3-.16.21-.32.23-.36.29-.36.11,0,.63.54.63.65,0,.13-.16.13-.42.13h-.76c-.29,0-.29.15-.29.55,0,.93,0,1.03.26,1.03.07,0,.13-.02.22-.15.21-.33.23-.37.29-.37.11,0,.63.55.63.65,0,.13-.16.13-.42.13h-.69c-.21,0-.28.12-.28.29,0,.2,0,1.11,0,1.29,0,.17.06.24.18.24.17,0,1.02-.24,1.06-.24.03,0,.09,0,.09.05,0,.1-.2.16-1.43.58-.6.2-1.21.4-1.82.58-.04,0-.13.04-.15.08-.09.16-.09.18-.15.18-.13,0-.17-.13-.27-.46-.02-.06-.11-.32-.11-.36,0-.09.07-.09.13-.09s.32,0,.38,0c.16-.02.16-.21.16-.27,0-.35,0-1.47-.02-1.77,0-.09-.08-.67-.08-.73,0-.05.05-.05.07-.05.03,0,.72.2.72.29,0,.02-.06.11-.09.21-.02.18-.03.55-.03.74s.02,1.21.05,1.33c.02.11.11.13.19.13.5,0,.5-.25.5-.38,0-.52.02-3.25,0-3.31-.03-.11-.13-.18-.26-.18-.06,0-.65,0-.92.02-.03,0-.14.03-.16.03-.03,0-.05-.03-.08-.07l-.14-.22s-.04-.05-.04-.06c0-.02,0-.03.03-.03.05,0,.24.03.28.03.1,0,.75.04,1.02.04.07,0,.28,0,.28-.24,0-.18,0-.98,0-1.14,0-.28-.18-.28-.26-.28h-.29c-.19,0-.25.06-.52.33-.11.1-.41.37-.5.37-.02,0-.05,0-.05-.03,0-.02.23-.31.27-.37.45-.66.73-1.52.74-1.68.02-.29.02-.31.12-.31.07,0,.61.31.62.32.04.03.06.08.06.12,0,.09-.36.38-.42.46-.02.03-.24.36-.24.43,0,.11.13.11.18.11h.62ZM143.83,38.77c-.27,0-.27.15-.27.46,0,.61.06,3.85.08,4.72,0,.27.05,1.52.05,1.65,0,.14,0,.22-.05.28-.1.14-.29.29-.48.29-.21,0-.21-.24-.21-.35,0-.08.02-.45.02-.53.02-1.09.03-2.2.03-3.28,0-.6,0-2.81-.08-3.22-.02-.09-.14-.5-.14-.57,0-.03.03-.06.07-.06.09,0,.13.03.53.26.16.09.22.11.42.11h.29c.12,0,.23-.07.27-.09.05-.05.21-.2.27-.2.12,0,.72.41.72.57,0,.04-.02.05-.17.19-.08.08-.1.18-.1.34,0,.63.03,2.16.05,2.9,0,.18.05,1.08.05,1.29,0,.6-.34,1-.75,1-.06,0-.09-.02-.1-.09-.05-.25-.07-.33-.25-.45-.06-.04-.37-.14-.37-.22,0-.06.08-.06.11-.06.05,0,.22,0,.3,0,.36,0,.41-.07.4-.3,0-.38,0-2.22,0-2.64,0-.26,0-1.72-.06-1.87-.06-.13-.19-.13-.26-.13h-.38Z"/><path class="cls-1" d="M153.16,41.17c.99.51,2.1.72,2.3.75.04,0,.2.03.2.07,0,.03-.13.07-.17.08-.22.07-.54.28-.72.51-.03.04-.13.24-.18.24-.06,0-2.12-1-3.05-2.52-.18-.3-.21-.33-.28-.33s-.09.02-.29.24c-1.36,1.43-2.53,2.06-2.81,2.22-.32.17-1.31.61-1.49.61-.03,0-.05-.02-.05-.03,0,0,1.02-.64,1.1-.69,1.28-.81,2.64-2.26,2.78-2.98,0-.08.02-.1.09-.1.05,0,.82.29.87.32.03,0,.12.05.12.14,0,.03-.02.08-.04.13.02.14.84.94,1.64,1.35ZM148.58,38.8c-.7,0-1.03.02-1.21.03-.03,0-.17.02-.2.02s-.05-.02-.09-.06l-.18-.22s-.04-.05-.04-.07c0-.02,0-.02.03-.02.07,0,.36.03.42.03.47.02.87.04,1.31.04h.28c.2,0,.26-.09.26-.26s-.02-.34-.08-.5c0-.02-.06-.17-.06-.19,0-.05.05-.07.1-.07.07,0,.49.1.6.13.29.08.34.09.34.18,0,.06,0,.08-.14.25-.06.08-.07.1-.07.17,0,.23.08.29.33.29h1.57c.08,0,.29,0,.29-.26,0-.15-.02-.36-.03-.43,0-.05-.06-.25-.06-.29,0-.05.06-.07.1-.07.07,0,.71.15.82.18s.16.07.16.15c0,.06-.04.09-.14.17-.05.04-.12.1-.12.27,0,.27.15.27.3.27h.48c.42,0,.47,0,.61-.16.27-.31.29-.35.38-.35.06,0,.88.5.88.63,0,.13-.19.13-.5.13h-1.85c-.29,0-.29.15-.29.38,0,.06,0,.38,0,.43,0,.35-.29.41-.49.41-.22,0-.26-.04-.26-.36v-.66c-.03-.18-.14-.2-.29-.2h-1.52c-.22,0-.35,0-.35.27,0,.09.03.51.03.6,0,.18-.03.27-.11.32-.1.08-.25.13-.36.13-.16,0-.24-.11-.24-.29,0-.08,0-.44,0-.5,0-.37,0-.52-.29-.52h-.34ZM149.26,43.66c.07,0,.68.4.73.45.04.04.08.1.08.14,0,.11-.08.13-.3.19-.03,0-.85.65-1,.76-.86.61-1.4.83-1.45.83-.02,0-.03-.02-.03-.03,0-.02.5-.46.57-.52.79-.75,1.27-1.5,1.36-1.81,0,0,.03,0,.04,0ZM149.69,43.16c-.74,0-1.02,0-1.21.03-.03,0-.17.02-.2.02s-.05-.02-.09-.06l-.18-.22s-.04-.05-.04-.07c0,0,0-.02.03-.02.07,0,.36.03.42.03.47.03.87.04,1.31.04h.71c.1,0,.29,0,.29-.26,0-.11-.06-.88-.08-.98,0-.02-.06-.11-.06-.13,0-.02.02-.06.09-.06.07,0,.73.14.83.17.13.03.18.11.18.16,0,.06-.02.08-.16.2-.13.11-.13.17-.13.46,0,.34,0,.44.29.44h.42c.42,0,.47,0,.61-.16.27-.31.29-.35.38-.35.06,0,.88.51.88.63,0,.13-.19.13-.5.13h-1.8c-.29,0-.29.17-.29.48,0,.67,0,1.05.02,1.62,0,.16,0,.39,0,.5,0,.3-.08.49-.48.49-.21,0-.23-.17-.23-.33,0-.12.03-.69.03-.82,0-.36,0-.71,0-1.15,0-.21,0-.59-.02-.65-.05-.13-.2-.13-.28-.13h-.77ZM152.23,43.95s.05-.04.08-.04c.35,0,2.52.6,2.52,1.39,0,.3-.17.54-.41.54-.18,0-.22-.05-.51-.49-.45-.67-1.1-1.06-1.64-1.37,0,0-.05-.03-.05-.04Z"/><path class="cls-1" d="M160.41,39.18s-.05-.09-.05-.12c0-.05.05-.1.11-.1.14,0,1.25.44,1.25.89,0,.13-.03.16-.28.38-.14.13-.55.87-.65,1.01-1.3,1.92-2.57,2.85-3.27,3.33-.35.24-.74.46-.85.46-.02,0-.05,0-.05-.05,0-.05.51-.5.61-.58.9-.81,1.8-1.75,2.59-3,.27-.43.77-1.28.77-1.68,0-.17-.11-.39-.19-.53Z"/><path class="cls-1" d="M165.4,40.21c.25,0,.31,0,.4-.06.04-.03.2-.25.26-.25.09,0,.76.5.76.68,0,.1-.08.15-.16.2-.19.1-.23.16-.3.35-.19.46-.85,2.03-1.98,3.07-.29.27-1.12.85-1.26.85-.04,0-.08-.03-.08-.07,0-.06.08-.11.1-.12.16-.1.64-.58,1-1.03,1.35-1.65,1.63-3.19,1.63-3.19,0-.18-.16-.18-.28-.18h-.41c-.28,0-.94,0-1.2.03-.03,0-.17.02-.21.02-.03,0-.05-.02-.08-.07l-.19-.22s-.04-.05-.04-.06c0-.02.02-.03.03-.03.07,0,.35.04.42.04.28,0,.77.03,1.31.03h.28ZM168.11,37.91c0,.07-.24.29-.27.34-.08.14-.08.32-.08.64,0,.79.03,5.04.03,5.99,0,.67-.05.87-.3,1.06-.22.17-.48.2-.59.2-.15,0-.17-.03-.23-.19-.09-.27-.25-.37-.47-.49-.23-.12-.25-.13-.25-.17s.07-.05.09-.05c.08,0,.42.06.48.06.44,0,.51-.06.54-.25.05-.33.05-4.03.05-4.48,0-.79,0-2.07-.03-2.34,0-.08-.06-.47-.06-.54,0-.02,0-.09,0-.1.04-.03,1.06.11,1.06.31ZM170.87,43.8c.21.13.64.4.81.48.02,0,.08.04.08.07,0,.05-.08.06-.1.06-.04,0-.18-.03-.21-.03-.05,0-.32,0-.45.05-.1.03-.51.25-.57.25-.21,0-.96-1.05-1.37-1.77-.81-1.4-1.05-2.81-1.05-3.1,0-.03,0-.15.04-.15.03,0,.09.08.13.21.02.09.19.73.38,1.05.04.07.09.09.14.09.15,0,1.15-.85,1.33-1.06.05-.06.16-.31.2-.36,0-.02.02-.03.03-.03s.88.5.88.7c0,.12-.17.12-.32.12s-.23.04-.88.34c-.13.07-.87.37-.99.42-.07.04-.12.08-.13.14-.02.13.74,1.66,2.05,2.52Z"/><path class="cls-1" d="M173.29,46.15c-.18,0-.27-.06-.27-.2s.08-.21.27-.21h2.27c.26,0,.26-.06.26-1.2,0-1.06,0-5.79,0-6.76,0-.22.05-.3.2-.3.2,0,.2.07.2.63v7.65c0,.27-.14.39-.4.39h-2.52Z"/><path class="cls-1" d="M178.71,39.89c.4,0,.54-.04,1.84-.41.85-.24,3.02-.86,3.65-.86.34,0,.77.13.77.46,0,.25-.25.35-.39.35-.12,0-.67-.1-.77-.1-1.21,0-2.56,1.11-2.56,3.56,0,1.6.6,1.7,1.16,1.7.14,0,.82-.06.9-.06.29,0,.47.12.47.35,0,.5-1.04.5-1.1.5-1.94,0-1.94-1.59-1.94-2.03,0-.42,0-2.43,1.38-3.66.04-.03.24-.18.24-.2s-.04-.02-.06-.02c-.55,0-2.52.84-2.83,1.02-.12.07-.22.12-.32.12-.48,0-.93-.64-.81-.77.04-.05.31.04.37.04ZM184.78,41.99c0,.22-.18.39-.33.39-.17,0-.26-.18-.41-.55-.1-.27-.17-.35-.47-.74-.03-.04-.1-.13-.1-.17,0-.05.1-.06.19-.04.81.22,1.12.81,1.12,1.11ZM185.93,41.53c0,.25-.15.35-.28.35-.23,0-.33-.28-.43-.5-.09-.21-.37-.55-.63-.76-.05-.04-.09-.08-.09-.12,0-.06.1-.06.13-.06.08,0,.18.03.24.05.56.18,1.04.59,1.04,1.05Z"/><path class="cls-1" d="M190,38.55c.09,0,.24,0,.24.16,0,.15-.13.15-.29.15-.12,0-.63,0-.7.49-.03.16-.03,3.06-.03,3.6,0,.24.02,1.4.02,1.66,0,.57,0,1.32-.58,1.89-.35.35-.82.52-1.27.52-.51,0-.92-.23-.92-.68,0-.24.12-.55.56-.55.35,0,.41.15.54.51.07.17.16.23.34.23.44,0,.5-.34.54-.57.04-.29.04-4.91.04-5.64,0-1.34,0-1.47-1-1.47-.04,0-.19,0-.19-.15,0-.16.14-.16.24-.16h2.46Z"/><path class="cls-1" d="M194.17,38.55c.46,0,2.62.05,2.62,1.64,0,.97-.73,1.41-1.26,1.66-.33.16-.37.18-.37.29,0,.23.8,1.91.99,2.27.13.26.39.76,1.12.76.09,0,.29,0,.29.15,0,.13-.19.15-.24.15h-1.19c-.1,0-.29,0-.45-.28-.06-.1-.73-1.57-.84-1.81-.52-1.15-.59-1.3-.92-1.3h-.52c-.07,0-.19.04-.22.11-.04.1-.04,1.35-.04,1.57,0,1.15,0,1.4.88,1.4.07,0,.2,0,.2.15s-.17.15-.28.15h-2.35c-.09,0-.24-.02-.24-.15,0-.15.13-.15.27-.15.66,0,.75-.3.78-.66.02-.32.02-2.94.02-3.38,0-.35,0-1.68-.08-1.92-.12-.35-.53-.35-.75-.35-.06,0-.26,0-.26-.17,0-.14.17-.14.29-.14h2.55ZM193.83,38.86c-.68,0-.68.43-.68,1.41,0,1.49,0,1.52.26,1.52h.77c.93,0,1.72-.51,1.72-1.5,0-.67-.36-1.43-1.6-1.43h-.47Z"/><path class="cls-1" d="M200.29,42.74c-.24,0-.26.12-.28.33-.03.25-.28.53-.56.53-.24,0-.25-.12-.25-.25,0-.07.03-.39.04-.47.02-.36.02-1.25.02-1.51,0-.6-.02-1.22-.06-1.72,0-.05-.03-.31-.03-.33,0-.03,0-.07.03-.07.09,0,.15.04.72.34.18.1.29.13.51.13h1.58c.29,0,.29-.17.29-.35,0-.29,0-1.15-.03-1.42,0-.06-.06-.29-.06-.35s.06-.06.09-.06c.07,0,.93.14.93.32,0,.06-.2.25-.21.29-.04.16-.04.24-.04,1.25,0,.14,0,.31.27.31h1.77c.1,0,.2,0,.29-.13.18-.25.2-.28.29-.28.13,0,.81.48.81.61,0,.06-.21.24-.24.29-.08.13-.08.25-.08,1.2,0,.19.03,1.14.03,1.36,0,.2,0,.31-.09.44-.19.23-.42.25-.47.25-.27,0-.27-.23-.27-.47,0-.08,0-.26-.28-.26h-1.71c-.17,0-.3.02-.3.31,0,.33.02,1.98.02,2.35,0,.2,0,.75-.5.75-.31,0-.31-.29-.31-.38,0-.1.04-.59.04-.7,0-.33.03-1.67.03-2,0-.23-.03-.33-.29-.33h-1.71ZM202.01,42.48c.08,0,.2,0,.25-.11.06-.11.06-1.31.06-1.55,0-.76,0-.84-.29-.84h-1.77c-.28,0-.28.1-.28.45,0,.24.02,1.42.02,1.69s.05.36.29.36h1.72ZM205.09,42.48c.08,0,.22,0,.25-.14.02-.07.05-1.86.05-2.04,0-.23-.08-.31-.28-.31h-1.83c-.28,0-.28.19-.28.32,0,.25,0,1.89.03,2.01.03.14.13.17.26.17h1.81Z"/><path class="cls-1" d="M213.06,42.45s-.14,0-.14.1.34.87.94,1.39c.28.24,1.07.89,2.72,1.2.03,0,.31.06.31.08,0,.04-.2.11-.24.13-.14.1-.41.29-.52.42-.02.03-.1.24-.15.24s-2.32-.59-3.17-3.29c-.07-.22-.08-.25-.1-.25s-.04.04-.04.08c-.08.57-.23.93-.32,1.14-.74,1.65-3.12,2.38-3.77,2.38-.02,0-.07,0-.07-.04,0-.03.02-.04.2-.1.59-.2,1.86-.76,2.7-1.83.49-.64.61-1.38.61-1.46,0-.19-.12-.19-.23-.19h-1.94c-.23,0-.88,0-1.21.03-.03,0-.17.02-.2.02s-.05-.02-.09-.06l-.18-.22s-.04-.05-.04-.07c0-.02.02-.02.03-.02.19,0,1.12.07,1.33.07.12,0,.23-.05.25-.18,0-.04,0-1.2,0-1.36,0-.44,0-1.1-.02-1.3,0-.05-.04-.24-.04-.3,0-.06.02-.11.09-.11.1,0,.26.09.56.24.16.08.24.09.41.09h1.08c.24,0,.3-.06.3-.25,0-.08-.02-.49-.07-.94,0-.08-.09-.47-.09-.56,0-.08.04-.09.11-.09.09,0,.47.09.69.16.29.09.37.11.37.25,0,.07-.05.12-.2.21-.18.11-.18.16-.18.69,0,.43,0,.53.31.53h1.12c.13,0,.23,0,.34-.15.12-.15.16-.21.24-.21.11,0,.63.33.63.49,0,.02,0,.05-.02.08-.02.03-.14.11-.21.15-.06.08-.06.29-.06,2.17,0,.23,0,.4.23.4.17,0,.29-.15.35-.28.1-.18.15-.29.29-.29.12,0,.78.48.78.66,0,.16-.14.16-.51.16h-3.21ZM211.82,42.21c.08,0,.22,0,.27-.17.03-.12.09-1.37.09-2.17,0-.31-.1-.33-.32-.33h-1.14c-.15,0-.27.02-.29.19,0,.05,0,2.02,0,2.15,0,.28.09.33.31.33h1.1ZM214.22,42.21c.3,0,.3-.16.3-.34v-2.09c0-.24-.19-.24-.3-.24h-1.13c-.2,0-.29.05-.29.29,0,.35,0,.97,0,1.11,0,.22-.07.91-.07,1.03,0,.23.12.24.29.24h1.2Z"/><path class="cls-1" d="M219.6,41.84c.31,0,.7,0,.94,0,.26,0,.26-.04.26-.1,0-.1-.22-.6-.22-.62,0-.02.03-.05.07-.05.13,0,.91.62.91,1.16,0,.27-.18.41-.37.41-.25,0-.28-.19-.32-.48-.02-.14-.03-.17-.1-.17-.04,0-.4.09-.43.11-.05.05-.05.67-.05.83,0,.41.05,2.22.05,2.59s-.29.57-.5.57c-.16,0-.18-.16-.18-.4,0-.43.07-2.34.07-2.73,0-.13,0-.56-.03-.66-.02-.08-.05-.09-.17-.09-.04,0-.71.09-.88.17-.05.02-.23.16-.28.16-.09,0-.34-.75-.34-.77,0-.03.02-.03.05-.03.04,0,.35.04.42.05.05,0,.39.02.47.02.23,0,.27-.07.59-.68.34-.66.84-1.61.97-2.01.08-.24.09-.27.15-.27.03,0,.8.36.8.5,0,.08-.02.08-.23.14-.12.04-.22.11-.29.2-.41.53-.97,1.45-1.42,1.96-.04.04-.07.1-.05.13,0,.03.07.04.1.04ZM219.39,43.42c0,.07-.21.27-.24.32-.21.39-.47,1.06-.72,1.44-.02.03-.23.34-.32.34,0,0-.04,0-.04-.04s.29-.88.32-1.02c.19-.74.2-1.19.2-1.26,0-.17,0-.2.06-.2s.29.1.37.13c.24.1.37.18.37.29ZM219.38,39.8c.29.21.36.45.36.59,0,.23-.17.3-.29.3-.06,0-.12-.02-.21-.1-.08-.08-.42-.56-.5-.66-.09-.09-.52-.48-.52-.5,0-.04.04-.05.08-.05.1,0,.54.16.65.16.07,0,.09-.04.22-.35.11-.27.39-.92.39-1.58,0-.04,0-.1.06-.1,0,0,.88.29.88.49,0,.03,0,.08-.04.1-.04.03-.26.11-.29.15-.11.1-.53.74-.64.88-.08.09-.33.43-.31.51,0,.02.14.11.17.13ZM221.04,42.84s-.04-.05-.04-.07.02-.02.03-.02c.18,0,1.05.06,1.25.06.15,0,.22-.06.28-.13.1-.13.14-.19.24-.19.15,0,.62.27.62.46,0,.06-.05.09-.09.11q-.2.08-.27.2c-.4.79-.62,1.19-1.04,1.65-.67.75-1.53,1.1-1.56,1.1,0,0-.03,0-.03-.02,0-.03,0-.04.06-.08.71-.7.79-.78.97-1.01.73-.89.96-1.73.96-1.75,0-.08-.04-.08-.31-.08-.11,0-.7.04-.79.04-.03,0-.05-.02-.09-.06l-.18-.22ZM221.54,44.3c0,.32-.24.41-.32.41-.21,0-.23-.25-.28-.65,0-.12-.08-.32-.26-.71,0-.04-.04-.09-.04-.11,0-.03.03-.05.05-.05.06,0,.3.2.41.3.09.1.44.43.44.8ZM222.62,41.71c-.12,0-.19,0-.28.1-.1.13-.22.27-.4.27-.22,0-.22-.14-.22-.4,0-.28.04-1.64.04-1.95,0-.16-.02-.94-.02-1.11,0-.04,0-.07.06-.07.1,0,.53.31.65.31.19,0,.77-1.06.78-1.25,0-.07.02-.13.08-.13.02,0,.48.23.55.27.13.07.27.13.27.21,0,.07-.39.17-.46.21-.31.22-.7.58-.7.66,0,.06.02.06.18.06h1.83c.2,0,.27,0,.34-.13.21-.32.24-.36.33-.36.12,0,.66.35.66.56,0,.07-.05.13-.11.19-.13.11-.17.15-.17.31,0,.14.03.86.03,1.02,0,.18.07,1.04.07,1.12,0,.43-.46.46-.5.46-.13,0-.15-.04-.21-.23-.03-.11-.15-.11-.22-.11h-1.09s-.09,0-.09.04.02.05.18.11c.08.02.28.1.28.22,0,.08-.02.08-.17.2-.02.02-.06.06-.06.11,0,.07.29.61.34.72.08.14.2.38.31.38.23,0,.88-.68,1.08-.92.02-.03.1-.12.12-.12.05,0,.67.56.67.67,0,.04-.03.05-.06.05-.04,0-.21,0-.25,0-.28,0-.47.09-1.29.47-.17.08-.17.08-.17.14,0,.09.65,1.08,1.65,1.67.3.18.34.19.34.23,0,.03-.03.03-.15.04-.13,0-.35.04-.54.1-.04.02-.24.13-.29.13-.09,0-1.07-1.14-1.6-2.42-.04-.08-.21-.59-.23-.59-.03,0-.03.28-.03.32,0,.09.02,1.59.02,1.76,0,.58,0,.79-.21.95-.19.14-.51.26-.74.26-.06,0-.08-.02-.1-.07-.08-.16-.1-.21-.19-.32-.06-.06-.36-.31-.36-.32,0-.03.03-.03.28-.03.71,0,.75-.1.75-.79,0-.44,0-2.43-.05-2.71-.04-.23-.14-.28-.33-.28h-.59ZM222.64,39.13c-.12,0-.25.02-.29.2v.54c0,.25.18.25.29.25h2.47c.29,0,.29-.04.29-.73,0-.26-.19-.26-.29-.26h-2.48ZM222.64,40.37c-.1,0-.29,0-.29.27,0,.81,0,.83.29.83h2.51c.08,0,.27-.02.27-.26,0-.8,0-.84-.28-.84h-2.5Z"/><path class="cls-1" d="M228.12,42.15c-.15,0-.25-.14-.25-.3,0-.18.07-.34.26-.77.07-.16.39-.89.39-1.52,0-.03,0-.05.03-.05.02,0,.24.33.24,1.33,0,.56-.2,1.31-.67,1.31ZM229.89,41.71c0,.43,0,2.41.08,3.58,0,.07.03.33.03.39,0,.34-.26.49-.54.49s-.29-.14-.29-.26c0-.2.05-.54.06-.7,0-.16.09-2.58.09-4.2,0-.85-.02-2.64-.08-2.9,0-.08-.1-.44-.1-.48,0-.08.09-.1.17-.1.19,0,.9.11.9.36,0,.06-.04.11-.15.19-.09.07-.15.12-.15.36,0,.46-.02,2.81-.02,3.27ZM234.32,39.41c.09,0,.18,0,.27-.07.04-.04.21-.27.28-.27.05,0,.74.35.74.52,0,.04,0,.05-.14.16-.14.11-.13.23-.14.32,0,.25,0,1.45,0,1.73,0,.11,0,.24.11.24s.18-.11.2-.17c.13-.25.17-.33.28-.33.09,0,.77.54.77.69,0,.12-.2.12-.5.12h-2.59s-.12,0-.12.08.13.39.24.6c.42.8,1.13,1.31,1.6,1.58.68.4,1.47.54,1.6.54.02,0,.05,0,.05.03s-.04.04-.07.05c-.09.02-.49.29-.62.58-.05.08-.08.11-.13.11-.11,0-2.23-1-2.75-3.34-.04-.15-.04-.16-.08-.16-.05,0-.04.05-.05.17-.12,2.93-2.82,3.53-2.95,3.53,0,0-.03,0-.03-.02,0-.03.04-.04.05-.05.41-.18.8-.48,1.14-.79,1.17-1.08,1.17-2.65,1.17-2.66,0-.25-.16-.25-.28-.25h-.41c-.38,0-1.02,0-1.2.02-.04,0-.17.03-.21.03-.02,0-.04-.02-.08-.06l-.19-.23s-.04-.05-.04-.06c0-.02.02-.03.03-.03.07,0,.35.04.42.04.28.02.95.03,1.31.03h.39c.27,0,.31,0,.31-1.12,0-.28,0-1.12-.03-1.19-.06-.13-.19-.13-.25-.13-.14,0-.85.05-.94.05-.03,0-.05-.03-.08-.07l-.18-.22s-.04-.05-.04-.06c0-.03.02-.03.03-.03.17,0,1.03.07,1.22.07.27,0,.27-.16.27-.37,0-.79,0-.88-.04-1.07,0-.05-.1-.29-.1-.34s.07-.06.12-.06c.09,0,1.04.09,1.04.36,0,.06-.27.22-.3.28-.07.09-.07.8-.07.95,0,.18.08.26.29.26h.7ZM230.71,40.87c-.24,0-.24-.17-.27-.6,0-.2-.08-.52-.18-.72,0,0-.02-.05-.02-.06,0,0,0-.02.02-.02.04,0,.83.35.83.95,0,.26-.16.45-.38.45ZM233.61,39.67c-.09,0-.23,0-.27.11-.04.1-.08,2-.08,2.07,0,.26.17.26.29.26h.86c.29,0,.29-.09.29-.48,0-.25,0-1.75-.04-1.85-.05-.11-.18-.11-.28-.11h-.79Z"/><path class="cls-1" d="M238.21,41.46s-.04-.05-.04-.07c0-.02.02-.02.04-.02.15,0,.93.06,1.1.06.11,0,.19,0,.32-.15.12-.12.17-.15.23-.15.12,0,.63.39.63.52,0,.05-.02.08-.13.17-.24.18-.27.21-.29.29-.03.07-.03.96-.03,1.13,0,.39,0,.58.17.87.55.96,1.85.96,3.56.96.81,0,2.12,0,2.85-.22.06-.02.32-.11.36-.11,0,0,0,0,0,.02s-.16.16-.18.18c-.21.19-.41.43-.42.65-.02.27-.06.27-.45.27-.45,0-1.61-.05-2.42-.08-1.66-.07-3.08-.24-3.58-1.65-.05-.13-.07-.17-.1-.17s-.07.04-.08.06c-.24.32-.65.83-.88,1.15-.06.07-.25.46-.34.46-.13,0-.57-.71-.57-.86,0-.07.03-.07.16-.08.12,0,.34-.11.5-.2.73-.41.79-.47.81-.69,0-.08,0-.25,0-1.82,0-.09,0-.27-.32-.27-.1,0-.55.04-.63.04-.04,0-.06-.02-.08-.06l-.19-.22ZM240.48,39.68c0,.21-.16.35-.32.35-.19,0-.24-.08-.65-.74-.33-.55-.8-1.1-.99-1.3-.02-.02-.18-.19-.18-.2,0-.04.49.13.93.4,1.04.65,1.21,1.25,1.21,1.49ZM244.06,41.63c-.12,0-.29,0-.29.23,0,.16.07.19.29.28,1.38.54,2.39,1.3,2.39,1.84,0,.18-.09.31-.29.31s-.25-.07-.76-.7c-.44-.54-.79-.91-1.3-1.25-.17-.11-.19-.12-.24-.12-.08,0-.08.12-.08.18,0,.29.03,1.62.03,1.88,0,.39-.23.51-.37.51-.23,0-.29-.14-.29-.33,0-.3.08-1.63.08-1.9,0-.09,0-.14-.06-.14s-.06,0-.22.21c-.87,1.03-1.94,1.57-2.03,1.57-.04,0,.3-.31.33-.35.74-.79,1.65-1.97,1.65-2.11,0-.1-.12-.1-.2-.1h-.6c-.15,0-.17.08-.21.21-.05.17-.26.22-.36.22-.26,0-.26-.2-.26-.31,0-.17.02-.93.02-1.08,0-.42,0-.65-.02-.79,0-.05-.03-.27-.03-.31s.07-.06.1-.06c.09,0,.4.14.51.2.16.08.22.08.31.08h.79c.27,0,.27-.06.27-.61,0-.26-.18-.27-.29-.27h-.72c-.65,0-.99,0-1.21.03-.03,0-.17.02-.2.02s-.05-.02-.09-.06l-.18-.22s-.04-.05-.04-.07c0,0,0-.02.03-.02.07,0,.36.03.42.03.47.03.87.04,1.31.04h.64c.29,0,.29-.13.29-.25,0-.12-.05-.45-.07-.55,0-.03-.06-.18-.06-.21,0-.07.05-.09.09-.09s.89.17.89.3c0,.03-.14.18-.16.2-.04.06-.1.14-.1.33,0,.23.1.26.26.26h.6c.43,0,.47,0,.61-.17.27-.34.29-.38.38-.38.1,0,.82.52.82.67,0,.13-.15.13-.44.13h-1.96c-.27,0-.27.1-.27.57,0,.16,0,.3.27.3h.81c.13,0,.19,0,.29-.09.17-.17.18-.19.28-.19.16,0,.58.34.58.45,0,.05-.15.19-.18.23-.07.09-.08.21-.08.36,0,.14.07.76.07.89,0,.28-.2.48-.46.48-.16,0-.19-.06-.27-.2-.05-.08-.16-.08-.23-.08h-.79ZM242.96,41.38c.11,0,.27,0,.27-.33,0-.11,0-.76,0-.81-.04-.19-.14-.2-.26-.2h-.81c-.11,0-.27,0-.27.33,0,1,0,1.01.27,1.01h.81ZM244.87,41.38c.29,0,.29-.09.29-.66,0-.62,0-.68-.29-.68h-.82c-.29,0-.29.09-.29.65,0,.63,0,.69.29.69h.82Z"/><path class="cls-1" d="M249.12,43.31c.16,0,.25-.15.46-.74.06-.16.09-.24.13-.24s.05.09.05.11c0,.1-.22,1.22-.22,1.44,0,.16.13.45.15.5.07.13.11.29.11.42,0,.19-.15.32-.31.32-.59,0-1.03-1.62-1.03-2.53,0-.61.08-.88.4-2.07.16-.58.16-.82.16-.99,0-.3-.06-.56-.1-.67,0-.03-.06-.14-.06-.17s.04-.05.08-.05c.44,0,.84.87.84,1.21,0,.1,0,.11-.18.44-.1.2-.73,1.6-.73,2.45,0,.29.09.57.25.57ZM254.64,44.26c0,.37-.29.48-1.62.48-.93,0-1.28-.24-1.48-.43-.05-.05-.29-.29-.29-.47,0-.02,0-.1.05-.1.04,0,.19.11.23.13.28.14.67.16,1.02.16.25,0,.59,0,.83-.03.13,0,.8-.08.84-.08.36,0,.44.21.44.32ZM254.2,39.63c0,.47-1.05.47-1.17.47-1.07,0-1.66-.58-1.66-.7,0-.02,0-.05.07-.05.03,0,.14.04.27.07.22.05.48.06.65.06.47,0,.91-.09,1.05-.14.29-.1.31-.11.41-.1.17.03.4.19.4.41Z"/><path class="cls-1" d="M258.33,42.91c-.84,0-1.11,0-1.21.02-.03,0-.17.03-.2.03s-.05-.03-.09-.07l-.18-.22s-.04-.05-.04-.06c0-.02,0-.03.03-.03.22,0,1.15.07,1.34.07s.2-.09.2-.31c0-.11,0-.75,0-.79-.02-.13-.07-.13-.49-.13s-.85,0-1.03.03c-.03,0-.17.02-.2.02s-.05-.02-.08-.06l-.18-.22s-.04-.05-.04-.07c0-.02,0-.02.03-.02.04,0,.5.04.6.04.69.03.76.03,1.21.03.17,0,.19-.1.19-.19v-.74c0-.23,0-.3-.19-.3-.17,0-.54,0-.71.03-.03,0-.17.02-.2.02s-.05-.02-.08-.07l-.18-.22s-.04-.05-.04-.06c0-.02,0-.02.03-.02.07,0,.36.03.42.03.47.02.87.03,1.31.03h1.3c.29,0,.29-.18.29-.31,0-.64,0-.7-.22-.7-.08,0-1.92.09-2.11.09-.31,0-.34,0-.34-.07,0-.04.04-.05.4-.1,1.83-.3,2.97-.49,3.55-.8.08-.03.24-.11.24-.17q0-.08.04-.08s1.07.46,1.12.64v.03c0,.15-.21.15-.26.15s-.27-.02-.31-.02c-.2,0-1.1.19-1.28.22-.23.03-.23.1-.23.31,0,.77,0,.82.29.82h1.33c.43,0,.47,0,.61-.15.31-.38.34-.42.46-.42.19,0,.7.57.7.69,0,.13-.05.13-.49.13h-.62c-.29,0-.3.15-.3.3v.74c0,.19.11.19.28.19.42,0,.47,0,.6-.16.31-.37.35-.42.47-.42.18,0,.69.57.69.69,0,.13-.05.13-.49.13h-1.23c-.22,0-.31.05-.31.3v.69c0,.13,0,.24.17.24.19,0,.3-.02.39-.16.2-.34.24-.38.35-.38.17,0,.68.52.68.66,0,.14-.05.14-.48.14h-2.52c-.09,0-.12,0-.12.06,0,.13,1.16,1.17,2.12,1.64.57.29.88.34,1.52.49.06,0,.08.02.08.05,0,.02-.37.12-.44.15-.24.1-.45.28-.5.34-.07.07-.09.1-.12.1-.1,0-1.25-.42-2.79-2.54-.13-.19-.15-.21-.2-.21-.02,0-.07.02-.07.12,0,.22,0,1.17,0,1.37,0,.18.06,1,.06,1.17,0,.25-.1.51-.51.51-.29,0-.29-.26-.29-.32,0-.05.06-.78.06-.91.04-1.19.04-1.52.04-1.65,0-.07-.05-.07-.07-.07-.03,0-.15.15-.16.16-1.26,1.56-3.46,2.38-3.54,2.38-.04,0-.06-.02-.06-.05,0-.02.26-.19.31-.22,1.49-.97,2.69-2.29,2.69-2.48,0-.08-.1-.08-.2-.08h-.76ZM259.16,39.93c-.1,0-.19,0-.26.07-.06.07-.06.13-.06.72,0,.34,0,.45.31.45h.66c.09,0,.19,0,.25-.07.07-.08.07-.13.07-.72,0-.34,0-.45-.31-.45h-.66ZM259.15,41.42c-.3,0-.3.1-.3.48,0,.57,0,.64.06.69.07.07.16.07.25.07h.66c.31,0,.31-.02.31-.83,0-.29,0-.41-.3-.41h-.67ZM261.76,41.17c.29,0,.29-.08.29-.74,0-.38,0-.49-.29-.49h-.75c-.29,0-.29.07-.29.65,0,.48,0,.59.29.59h.74ZM261.76,42.65c.07,0,.21,0,.27-.11.03-.06.03-.77.03-.86,0-.27-.21-.27-.29-.27h-.73c-.18,0-.29.09-.29.21,0,.11,0,.83.02.86.06.17.19.17.28.17h.73Z"/><path class="cls-1" d="M266.12,39.7s-.04-.05-.04-.06c0-.02,0-.03.03-.03.16,0,.87.07,1.02.07.17,0,.35,0,.35-.25,0-.32-.03-1.31-.08-1.6,0-.04-.09-.19-.09-.22s.07-.09.15-.09c.19,0,.89.23.89.38,0,.06-.19.23-.21.27-.07.09-.07.88-.07,1.06,0,.3,0,.43.15.43.1,0,.37-.41.43-.41.05,0,.69.4.69.54s-.07.14-.59.14h-.36c-.29,0-.32.1-.32.33,0,.08,0,1.33,0,1.35,0,.09.05.18.17.18.08,0,.91-.28.93-.28s.03.02.03.04c0,.03-.03.05-.1.09-.2.12-.87.54-.93.63-.09.12-.09.22-.09.44,0,.38.05,2.06.05,2.41,0,.73-.53,1.08-1.1,1.08-.13,0-.14-.02-.16-.1-.05-.19-.29-.39-.48-.53-.05-.04-.12-.09-.12-.1,0-.04.05-.04.07-.04.1,0,.85,0,.88,0,.24-.03.29-.17.29-.49s0-1.74,0-2.02c0-.14-.06-.22-.18-.22-.05,0-.59.29-.6.31-.1.15-.11.16-.17.16-.15,0-.48-.76-.48-.85,0-.08.04-.09.1-.09.03,0,.2,0,.23,0,.23,0,.87-.17.93-.21s.15-.09.15-.31,0-1.52-.04-1.62c-.03-.12-.11-.16-.33-.16-.11,0-.74.05-.74.05-.03,0-.05-.03-.09-.07l-.18-.22ZM268.74,43.35s-.05-.05-.05-.07.02-.02.04-.02c.09,0,.52.04.62.04.2,0,.2-.16.2-.88,0-.33-.05-1.93-.09-2.04,0-.06-.07-.08-.1-.08-.08,0-.47.4-.57.4-.02,0-.04,0-.04-.02s.32-.36.38-.43c.67-.81,1.38-1.97,1.44-2.5.03-.21.03-.23.09-.23.02,0,.9.26.9.45,0,.08-.05.09-.25.17-.05.02-.29.38-.29.41,0,.08.07.1.13.1h.93c.11,0,.28-.02.4-.18.09-.13.11-.15.18-.15.12,0,.68.47.68.61,0,.09-.08.12-.16.14-.04.02-.25.04-.29.07-.19.13-.47.38-.65.52-.29.24-.44.36-.44.39,0,.08.07.08.1.08h.99c.07,0,.22,0,.34-.11.05-.04.23-.26.29-.26.02,0,.73.37.73.48,0,.07-.02.08-.22.23-.13.1-.13.22-.13.44,0,.32,0,1.89,0,2.24,0,.04.03.05.06.05.07,0,.23-.39.3-.39.06,0,.53.46.53.62,0,.14-.06.14-.59.14h-1.75c-.08,0-.19,0-.19.16,0,.28,1.03,1.3,2.48,1.58.04,0,.09.02.09.03,0,.04-.02.04-.1.06-.26.05-.6.18-.77.37-.03.03-.13.22-.18.22s-.17-.03-.38-.18c-.63-.45-1.06-.99-1.43-1.92-.04-.1-.08-.19-.14-.19-.09,0-.1.07-.11.1-.4,1.54-2.38,2.36-2.92,2.36-.05,0-.07-.02-.07-.05,0-.02.03-.03.05-.04.03,0,.06-.02.08-.03,1.69-.9,2.23-2.04,2.23-2.27,0-.11-.05-.2-.18-.2h-.52c-.23,0-.87,0-1.2.03-.03,0-.17.02-.2.02-.04,0-.06-.02-.09-.06l-.18-.22ZM270.95,38.9c-.25,0-.32.08-.95.75-.07.07-.2.22-.2.27,0,.14.23.22.51.22h.9c.26,0,.32-.09.44-.27.11-.17.48-.71.48-.84,0-.13-.1-.13-.19-.13h-1ZM270.11,40.68c0,.12,0,1.29.02,1.38,0,.03.03.06.08.06.11,0,.59-.58.59-1.42,0-.1,0-.32-.27-.32-.24,0-.42,0-.42.3ZM273.02,43.33c.1,0,.31,0,.31-.25v-1.16c0-.13,0-.19-.07-.19-.03,0-.12.09-.14.1-.04.03-.18.14-.51.14-.78,0-.78-.38-.78-1.4,0-.1-.04-.2-.18-.2h-.39s-.06,0-.06.03c0,.04.12.09.17.1.06.03.18.08.18.16,0,.05-.05.08-.11.12-.07.04-.1.07-.13.18-.1.5-.55.93-.99,1.25-.19.13-.19.2-.19.87,0,.24.13.24.32.24h.51c.19,0,.36,0,.36-.95,0-.05-.04-.31-.04-.37,0-.03,0-.07.06-.07.03,0,.84.13.84.28,0,.07-.22.29-.24.36,0,.04-.06.49-.06.53s.02.22.21.22h.92ZM272.6,40.38c-.25,0-.25.18-.25.48,0,.49,0,.54.19.54s.22-.11.28-.28c.02-.05.1-.32.11-.32.05,0,.15.3.18.36.02.03.11.13.17.13.05,0,.05-.03.05-.12v-.52c0-.22-.18-.27-.31-.27h-.42Z"/></g></svg>