<?xml version="1.0" encoding="UTF-8"?><svg id="_レイヤー_2" xmlns="http://www.w3.org/2000/svg" viewBox="0 0 189.05 147.38"><defs><style>.cls-1{fill:none;stroke:#3e3a39;stroke-miterlimit:10;stroke-width:.28px;}.cls-2{fill:#3e3a39;stroke-width:0px;}</style></defs><g id="_レイヤー_1-2"><path class="cls-2" d="M3.84,41.4c0,.11-.31.4-.36.47-.31.43-1.53,2.38-1.84,2.74-.13.16-.51.58-.65.58-.05,0-.07-.02-.07-.07,0-.02.54-1.32.63-1.57.33-.92.65-1.84.67-2.35.02-.52.02-.58.16-.58.11,0,.58.18.7.24.25.11.76.34.76.54ZM7.67,39.31c-.04-.16-.07-.27-.25-.27-.16,0-1.01.18-1.21.2-.49.07-.49.22-.49.9,0,.79.02,4.73.02,5.61s-.76.99-.92.99c-.4,0-.4-.31-.4-.43,0-.24.09-1.34.09-1.59.04-1.32.09-3.54.09-4.84,0-.24-.04-.43-.36-.43s-1.7.13-2.11.27c-.07.04-.43.27-.52.27-.32,0-.43-1.44-.43-1.54s0-.27.16-.27c.02,0,.45.12.49.14.38.13,1.01.25,1.81.25.58,0,.65-.05.81-.33.92-1.52,1.97-3.95,2.18-5.05.09-.43.09-.47.23-.47.09,0,1.75.67,1.75,1.05,0,.16-.13.22-.27.24-.16.04-.33.05-.65.38-.49.49-2.8,4.03-2.8,4.12,0,.05.04.07.05.09.07.02,1.14.02,1.26.02.27,0,.85-.04,1.05-.05.09,0,.16-.04.16-.16,0-.22-.51-1.25-.51-1.28,0-.07.05-.07.07-.07.29,0,1.99.97,1.99,2.27,0,.4-.23.72-.56.72-.4,0-.63-.14-.74-.74ZM3.74,36.94c-.25,0-.4-.11-.6-.58-.07-.2-.47-1.05-1.21-1.93-.18-.22-.2-.23-.2-.29s.04-.11.14-.11c.22,0,1.17.45,1.3.45.23,0,.87-2.24,1.1-3.68.05-.29.09-.29.16-.29.13,0,1.62.61,1.62.83,0,.11-.45.4-.52.47-.22.23-1.8,2.71-1.8,2.96,0,.16.07.25.16.34.22.24.45.72.45,1.05,0,.36-.2.78-.61.78ZM8.95,43.62c0,.52-.4.92-.74.92-.36,0-.4-.14-.67-1.41-.16-.72-.22-.83-.58-1.55-.04-.09-.11-.25-.11-.32s.05-.09.09-.09c.16,0,.72.42,1.03.72.52.52.98,1.23.98,1.73ZM10.74,34.99c-.4,0-.52.05-.67.27-.42.65-1.43,2.22-1.75,2.22-.09,0-.13-.05-.13-.13,0-.04.67-1.32.78-1.57.76-1.62,1.55-4.08,1.55-5.05,0-.04-.02-.22-.02-.25,0-.05.02-.11.07-.11s1.97.58,1.97.94c0,.18-.22.29-.49.42-.29.13-1.43,2.65-1.43,2.67,0,.11.14.11.31.11h3.3c.49,0,.51,0,.7-.16.33-.31.36-.34.49-.34.22,0,1.43.67,1.43,1.03,0,.13-.05.14-.45.47-.14.11-.14.88-.14,1.35-.04,3.32-.52,7.26-1.53,8.83-.47.74-1.46,1.14-1.95,1.14-.23,0-.29-.14-.45-.58-.16-.45-.58-.85-.99-1.14-.25-.16-.29-.18-.29-.27,0-.07.05-.07.07-.07.04,0,.49.16.58.18.49.14.85.27,1.14.27.78,0,1.17-.76,1.39-1.62.58-2.18.81-4.42.81-6.68,0-.29,0-1.59-.05-1.68-.11-.23-.34-.23-.54-.23h-3.7ZM12.71,40.82c0,.69-.43,1.16-.87,1.16s-.51-.22-.72-1.39c-.16-.87-.45-1.61-.54-1.79-.13-.27-.14-.33-.14-.38s0-.11.05-.11c.29,0,1.14.69,1.43.98.51.49.79.99.79,1.53Z"/><path class="cls-2" d="M28.78,41.44c.11,0,.43.02.43.29,0,.31-.27.31-.43.31h-1.25c-.52,0-.52.29-.52,1.07,0,1.1,0,1.71.96,1.79.6.05.74.05.74.33s-.32.27-.49.27h-4.06c-.14,0-.43-.02-.43-.27,0-.31.23-.31.61-.31,1.23,0,1.23-.65,1.23-1.79,0-.74,0-1.08-.49-1.08h-4.06c-.22,0-.43,0-.43-.32,0-.18.04-.23.36-.76.4-.67,4.66-7.78,4.77-7.98.54-.88.6-.99.88-.99.11,0,.25.05.34.18.11.2.11,2.26.11,2.65,0,.69-.05,4.06-.05,4.82,0,1.62,0,1.8.51,1.8h1.28ZM25.08,41.44c.29,0,.43-.18.47-.4.02-.16.02-2.15.02-3.21,0-.25-.04-2.64-.04-2.67,0-.05-.04-.25-.14-.25-.09,0-.38.45-.49.63-.38.65-3.38,5.58-3.38,5.72,0,.11.11.18.36.18h3.2Z"/><path class="cls-2" d="M36.54,45.82c-2.85,0-4.06-3.59-4.06-6.91s1.23-6.93,4.06-6.93c2.92.02,4.06,3.76,4.06,6.93s-1.16,6.91-4.06,6.91ZM36.54,32.57c-2.4,0-2.44,5.42-2.44,6.34,0,.74,0,6.34,2.44,6.32,2.4,0,2.44-5.38,2.44-6.32,0-.76,0-6.34-2.44-6.34Z"/><path class="cls-2" d="M52.96,38.21c1.23.63,2.18.99,3,.99,1.03,0,2.56-.52,3.65-1.26.16-.11.22-.14.29-.14.2,0,.25.16.25.24,0,.31-2.44,2.09-4.75,2.09-.42,0-1.19-.02-3.23-1.05-1.91-.97-2.56-.96-3.01-.96-.81,0-2.22.27-3.41,1.03-.09.05-.6.4-.63.4-.16,0-.23-.13-.23-.23,0-.33,2.44-2.19,4.75-2.19.54,0,1.39.07,3.34,1.08Z"/><path class="cls-2" d="M71.79,41.06c0,2.58-1.88,4.77-3.86,4.77s-4.15-2.22-4.15-6.19c0-4.21,2.42-7.65,5.14-7.65,1.1,0,2.02.67,2.02,1.52,0,.63-.52.9-.94.9-.32,0-.96-.2-.99-1.21-.02-.36-.05-.61-.52-.61-1.73,0-3.03,3.47-3.03,5.87,0,.07,0,.36.13.36.05,0,.09-.05.45-.42.4-.41,1.19-1.23,2.53-1.23,1.68,0,3.23,1.59,3.23,3.9ZM65.51,40.9c0,1.86.92,4.35,2.35,4.35.83,0,2.31-.99,2.31-3.95,0-.9-.16-3.34-2.11-3.34-.76,0-2.55.97-2.55,2.94Z"/><path class="cls-2" d="M78.87,45.82c-2.85,0-4.06-3.59-4.06-6.91s1.23-6.93,4.06-6.93c2.92.02,4.06,3.76,4.06,6.93s-1.16,6.91-4.06,6.91ZM78.87,32.57c-2.4,0-2.44,5.42-2.44,6.34,0,.74,0,6.34,2.44,6.32,2.4,0,2.44-5.38,2.44-6.32,0-.76,0-6.34-2.44-6.34Z"/><path class="cls-2" d="M93.6,32.77c0,.18-.13.22-.51.31-.18.05-.51.58-.9,1.23-2.09,3.45-4.96,5-5.36,5-.07,0-.11-.04-.11-.11,0-.11.04-.13.38-.4,2.44-1.91,3.81-4.91,4.06-5.45.13-.27.6-1.81.61-1.81.13-.05,1.82.92,1.82,1.23ZM95.35,38.04c-.47,0-.47.04-.58.99-.16,1.59-.51,4.71-3.65,6.46-1.48.83-3.36,1.17-3.45,1.17-.05,0-.22,0-.22-.13,0-.09.09-.13.42-.23,1.25-.45,2.69-1.3,3.56-2.19,1.34-1.35,2.04-3.81,2.04-5.69,0-.4-.18-.4-.45-.4h-.54c-.67,0-1.53.02-1.86.04-.07.02-.32.05-.38.05-.07,0-.11-.05-.16-.13l-.36-.41c-.05-.07-.07-.09-.07-.11,0-.04.02-.05.07-.05.13,0,.67.07.79.07.88.04,1.62.05,2.47.05h3.95c.81,0,.9-.04,1.19-.34.27-.29.43-.4.56-.4.29,0,1.34.83,1.34,1.21,0,.09-.29.42-.33.49-.09.18-.2,2.24-.23,2.65-.2,2.18-.34,3.67-.85,4.48-.49.78-1.57,1.08-1.84,1.08-.2,0-.2-.05-.34-.56-.11-.42-.72-.65-1.66-.92-.4-.11-.6-.18-.6-.29s.16-.11.2-.11c.13,0,.61.11.7.13.96.13,1.07.14,1.28.14.87,0,1.35-.16,1.61-2.02.18-1.39.36-3.48.36-4.4,0-.49-.04-.65-.54-.65h-2.44ZM96.26,32.23c-.45,0-1.06.02-1.44.04-.05,0-.31.04-.36.04s-.07-.02-.14-.11l-.34-.41s-.05-.09-.05-.13c0-.02.02-.04.05-.04.11,0,.63.07.74.07.2.02.96.05,1.08.05.42,0,.65-.31.76-.47.36-.51.4-.56.54-.56.23,0,1.57.9,1.57,1.3,0,.18-.05.2-.54.32-.09.02-.36.11-.36.38,0,.94,2.38,3.81,5.43,4.12.05,0,.27.04.27.14,0,.09-.47.2-.54.22-.47.24-.87.56-1.1.83-.04.05-.23.27-.29.27-.61,0-3.59-2.49-4.31-5.22-.2-.78-.23-.85-.65-.85h-.31Z"/><path class="cls-2" d="M2.92,7.05c-.28,0-.3.11-.38.65-.33,2.03-.93,3.4-1.64,4.17-.24.27-.34.35-.42.35-.01,0-.05,0-.05-.04,0-.05.3-.65.35-.77.34-.84.99-2.49.99-6.03,0-1.29-.07-1.8-.14-2.32-.01-.07-.07-.37-.07-.43,0-.03,0-.07.04-.07.05,0,.65.34.77.41.34.18.41.22.69.22h1.12c.14,0,.23,0,.35-.16.28-.39.31-.43.5-.43.26,0,.99.62.99.84,0,.11-.01.14-.23.39-.05.07-.05.11-.05.47,0,.43.03,2.3.03,2.68,0,.91-.7.92-.81.92-.33,0-.35-.14-.35-.42,0-.19,0-.43-.38-.43h-1.31ZM3.82.94c.57,0,.65-.03.71-.08.08-.09.42-.64.54-.64.14,0,1.25.88,1.25.95,0,.11-.27.12-.7.12h-2.36c-.38,0-.8.01-1.18.03-.08,0-.47.04-.56.04-.05,0-.08-.03-.14-.1l-.27-.31c-.04-.05-.05-.07-.05-.08,0-.03.04-.03.05-.03.1,0,.52.04.61.04.46.03,1.12.05,1.57.05h.53ZM4.32,6.69c.42,0,.42-.18.42-.68,0-.3,0-2.05-.04-2.24-.03-.18-.23-.23-.38-.23h-1.19c-.39,0-.39.18-.41.6,0,.34-.05,1.9-.05,2.14,0,.12,0,.41.38.41h1.27ZM11.22,5.07c-.09,0-.27,0-.35.18-.05.09-.05,1.3-.05,1.53,0,.76.04,4.15.04,4.84,0,.62-.64.75-.83.75-.27,0-.31-.11-.31-.33,0-.12.05-1.02.07-1.21.04-.93.04-2.03.04-2.97,0-.24,0-2.52-.05-2.63-.08-.16-.28-.16-.35-.16h-1.04c-.26,0-.3.07-.31.42-.18,3.24-.75,4.36-1.84,5.51-.54.56-1,.84-1.1.84-.03,0-.05-.01-.05-.04,0-.05.15-.23.2-.29,1.35-1.52,1.86-3.08,1.86-6.25,0-1.04-.14-2.86-.15-3.08-.01-.11-.07-.6-.07-.71,0-.05,0-.09.04-.09.15,0,.92.28,1.04.28.23,0,1.02-.43,1.73-.99.12-.09.83-.69.87-.69.03,0,.91.46,1.07.54.37.18.41.2.41.27,0,.08-.05.09-.45.18-.22.04-2.82.76-3.36.88-.11.03-.15.04-.18.11-.03.07-.03.77-.03.92,0,.22.01,1.23.01,1.44,0,.22,0,.38.26.38h1.91c.57,0,.72,0,.87-.23.38-.62.42-.69.54-.69.18,0,1.37.93,1.37,1.08,0,.19-.27.19-.73.19h-1.07Z"/><path class="cls-2" d="M19.6,2.44c.39,0,.39-.23.39-.45,0-.71,0-.84-.39-.84h-1.19c-1.19,0-1.59.03-1.71.04-.05,0-.24.03-.28.03-.05,0-.08-.03-.12-.08l-.27-.31c-.04-.07-.05-.07-.05-.09s.01-.03.05-.03c.09,0,.5.04.6.04.66.03,1.22.05,1.86.05h6.17c.61,0,.68,0,.85-.23.41-.51.45-.57.57-.57.2,0,1.34.81,1.34.96,0,.19-.27.19-.72.19h-2.9c-.35,0-.35.24-.35.87,0,.16,0,.42.34.42h1.03c.11,0,.2,0,.33-.08.07-.05.31-.38.39-.38s.95.54.95.79c0,.07-.24.33-.27.39-.05.15-.05.88-.05,1.08,0,.08,0,1.04-.01,1.06-.03.05-.12.45-.65.45-.24,0-.24-.03-.28-.31-.04-.23-.19-.23-.33-.23h-2.89c-.14,0-.15,0-.15.04s.62.35.62.47c0,.09-.04.13-.39.32-.19.11-1.07,1.27-1.07,1.4,0,.11.11.11.3.11h3.78c.57,0,.6-.03.68-.09.14-.11.57-.77.72-.77.05,0,1.37.83,1.37,1.04,0,.19-.27.19-.72.19h-2.8c-.11,0-.12,0-.12.03,0,.04.01.04.14.11.34.18.38.19.38.29,0,.11-.41.38-.47.43-.16.16-.83.91-.98,1.06-.03.03-.11.11-.11.16,0,.04.04.05.42.18,1.1.35,2.51.99,2.51,1.65,0,.35-.33.49-.49.49-.03,0-.2-.01-.33-.09-1.56-1.08-2.38-1.64-2.74-1.64-.1,0-.15.03-.22.08-1.48,1.14-4.16,1.78-5.15,1.78-.09,0-.19-.03-.19-.08s.1-.08.16-.09c2.2-.47,4.32-1.95,4.32-2.11,0-.14-1.67-.6-1.82-.6-.16,0-.19.04-.41.33-.41.54-.57.68-.88.68-.19,0-.49-.11-.49-.34,0-.19.03-.22.6-.84.05-.07.99-1.29.99-1.38,0-.07-.03-.07-.31-.07h-1.18c-1.19,0-1.59.03-1.72.03-.04.01-.24.04-.28.04s-.07-.04-.12-.09l-.26-.31c-.05-.05-.05-.07-.05-.08,0-.03.01-.04.04-.04.1,0,.52.05.6.05.66.03,1.23.04,1.87.04h1.35c.16,0,.39,0,.58-.26.49-.68,1.14-1.58,1.14-1.95,0-.14-.12-.14-.24-.14h-2.25c-.12,0-.31,0-.35.15-.08.34-.16.66-.58.66s-.42-.24-.42-.47c0-.24.03-1.3.03-1.52,0-.62-.03-1.29-.07-1.67-.01-.11-.01-.19-.01-.22,0-.04,0-.13.05-.13.09,0,.69.3.83.34.04.01.24.1.49.1h1.03ZM18.56,2.79c-.37,0-.37.29-.37.64,0,1.37,0,1.41.39,1.41h1c.41,0,.41-.2.41-.75,0-1.29,0-1.3-.41-1.3h-1.03ZM21.02,7.91c-.31,0-.43.05-.58.24-.07.09-.72,1-.72,1.07,0,.08.03.08.3.12.26.04,1.82.34,1.84.34.39,0,1.46-1.56,1.46-1.67s-.08-.11-.15-.11h-2.15ZM21.17,2.79c-.41,0-.42.11-.42,1.03s.01,1.02.41,1.02h1.14c.12,0,.3-.01.37-.18.04-.08.03-1.31.03-1.52,0-.35-.28-.35-.34-.35h-1.18ZM21.17,1.15c-.39,0-.39.18-.39.81,0,.24,0,.47.41.47h1.15c.35,0,.35-.31.35-.43,0-.65,0-.85-.35-.85h-1.17ZM23.77,2.79c-.35,0-.35.16-.35,1.11,0,.73,0,.94.35.94h1.1c.35,0,.35-.16.35-1.11,0-.73,0-.94-.35-.94h-1.1Z"/><path class="cls-2" d="M33.59,1.71c.18,0,.34-.01.56-.2.31-.3.35-.34.42-.34.15,0,.75.58.75.73,0,.12-.27.58-.3.68-.08.47-.08,1.5-.08,1.73,0,.71.08,3.82.08,4.45,0,.19,0,.58-.24.83-.18.18-.46.31-.57.31-.24,0-.26-.31-.26-.39,0-.32,0-.42-.38-.42h-.77c-.3,0-.38.19-.38.38,0,.04,0,.58-.01.66-.04.35-.49.8-.69.8-.37,0-.37-.31-.37-.43s.05-.99.05-1.18c.04-1.44.07-2.4.07-6.19,0-.29-.04-1.54-.04-1.79,0-.07,0-.15.08-.15.09,0,.33.13.61.3.34.2.46.23.75.23h.73ZM33.56,8.73c.12,0,.33,0,.41-.18.04-.1.04-1.18.04-1.46,0-.49,0-1.35-.04-1.45-.04-.08-.14-.18-.31-.18h-.92c-.35,0-.35.11-.35,1.22,0,.38,0,1.78.05,1.87.04.13.19.18.33.18h.8ZM32.79,2.07c-.11,0-.2.01-.28.11-.11.14-.11,2.07-.11,2.38s0,.54.38.54h.83c.08,0,.28,0,.37-.18.05-.14.05-1.54.05-1.82,0-.98,0-1.04-.39-1.04h-.84ZM40.53,4.76c.64,0,.7,0,.91-.34.09-.15.34-.54.56-.54.07,0,.43.3.54.38.64.53.68.56.68.66,0,.19-.28.19-.73.19h-5.11c-.64,0-1.19.01-1.45.04-.05,0-.26.03-.3.03s-.07-.03-.11-.08l-.27-.31q-.05-.07-.05-.09s.01-.03.04-.03c.11,0,.53.04.61.04.47.03,1.15.05,1.6.05h.53c.41,0,.41-.27.41-.43,0-.28,0-1.03-.01-1.27-.01-.34-.23-.34-.37-.34-.43,0-1.12,0-1.52.03-.04,0-.24.04-.28.04-.05,0-.08-.04-.12-.09l-.26-.31c-.05-.05-.07-.07-.07-.08,0-.03.03-.04.05-.04.09,0,.51.04.6.05.49.01,1.08.04,1.56.04.15,0,.41,0,.41-.34,0-.61-.03-1.12-.08-1.5-.01-.07-.05-.33-.05-.38,0-.08.05-.11.11-.11.01,0,1.44.41,1.44.58,0,.07-.3.3-.34.35-.09.11-.09.39-.09.54,0,.81,0,.85.58.85s.76.01.94-.24q.38-.53.49-.53c.18,0,1.19.87,1.19.99,0,.15-.07.15-.66.15h-2.13c-.38,0-.38.22-.38.54,0,1.11,0,1.23.04,1.33.07.18.26.18.35.18h.77ZM41.04,7.45c-.41,0-.46.12-.46.49,0,.53.07,2.83.07,3.31,0,1.06-1.11,1.1-1.3,1.1-.14,0-.19-.01-.19-.16,0-.35,0-.54-.57-.75-.14-.04-.73-.19-.84-.23-.05-.03-.22-.11-.22-.16s.08-.09.2-.09c.05,0,1.29.15,1.53.15.23,0,.3-.03.35-.22.03-.11.04-.27.04-1.67,0-1.73-.01-1.76-.46-1.76h-1.11c-.3,0-1.23,0-1.71.03-.04.01-.24.04-.28.04-.05,0-.08-.04-.12-.09l-.26-.31c-.05-.05-.07-.07-.07-.08,0-.03.03-.04.05-.04.1,0,.52.04.6.05.62.03,1.23.04,1.86.04h1.06c.39,0,.39-.23.39-.46,0-.18-.07-1.08-.07-1.11,0-.11.03-.16.11-.16s1.35.37,1.35.64c0,.08-.34.34-.37.41-.03.05-.07.15-.07.41,0,.23.12.28.26.28.16,0,.2-.05.54-.51.12-.18.27-.35.42-.35.07,0,.12.04.54.38.64.51.68.55.68.66,0,.19-.27.19-.72.19h-1.25ZM38.01,10.34c-.3,0-.38-.15-.66-.64-.37-.6-.99-1.04-1.21-1.19-.05-.04-.49-.35-.49-.37,0-.07.07-.08.11-.08.27,0,2.72.47,2.72,1.79,0,.16-.16.49-.47.49Z"/><path class="cls-2" d="M49.98.91c.15,0,.23,0,.38-.15.14-.15.24-.26.37-.26.15,0,.83.5.83.69,0,.07-.22.27-.26.33-.09.12-.09.23-.09.6s.07,2.07.07,2.47c0,.75-.38.88-.57.88-.33,0-.37-.26-.39-.47-.04-.28-.19-.28-.45-.28h-1.68c-.22,0-.43,0-.5.18-.04.09-.04.72-.04.96,0,.62,0,2.91.01,3.43.01.3.05,1.73.05,2.06,0,.24,0,.98-.7.98-.35,0-.35-.38-.35-.47,0-.04.01-.37.01-.54.14-4.02.14-4.92.14-6.41,0-.83,0-2.86-.01-3.04-.01-.11-.08-1.23-.08-1.25,0-.05,0-.14.05-.14.19,0,.56.2.64.24.35.19.39.2.58.2h2.01ZM48.04,2.98c-.27,0-.41,0-.41.27v.79c0,.3.11.3.41.3h1.91c.27,0,.41,0,.41-.27v-.77c0-.3-.11-.31-.41-.31h-1.91ZM48.04,1.27c-.31,0-.39,0-.39.34v.73c0,.29.12.29.39.29h1.94c.31,0,.39,0,.39-.35v-.73c0-.27-.12-.27-.39-.27h-1.94ZM52.97,6.37c.18,0,.23-.03.31-.12.11-.12.26-.27.38-.27.14,0,.8.45.8.69,0,.08-.05.14-.08.18-.14.18-.18.22-.19.41-.04.35,0,2.49,0,2.82,0,.37,0,.54-.12.69-.18.2-.43.3-.57.3-.3,0-.3-.28-.3-.49,0-.33-.18-.33-.45-.33h-1.68c-.31,0-.38.05-.41.31-.05.41-.28.64-.62.64-.18,0-.31-.07-.31-.49,0-.1.01-.46.03-.58.04-.7.05-1.11.05-1.68,0-.07,0-1.37-.04-1.86,0-.05-.04-.35-.04-.42,0-.11.05-.12.12-.12.15,0,.84.33,1,.33h2.11ZM51.01,6.73c-.33,0-.35.03-.35.43v.68c.04.19.15.19.35.19h1.91c.2,0,.31,0,.35-.19v-.77c0-.34-.1-.34-.35-.34h-1.91ZM51.03,8.4c-.26,0-.38,0-.38.28v.94c0,.26.14.26.38.26h1.86c.3,0,.38,0,.38-.35,0-.12,0-.87-.01-.93-.04-.19-.09-.19-.37-.19h-1.86ZM56.24.88c.14,0,.18,0,.28-.11.16-.18.22-.22.3-.22.11,0,.88.43.88.69,0,.08-.07.15-.15.22-.22.19-.22.23-.22.72,0,1.25.03,7.4.03,8.79,0,.54-.07.87-.54,1.11-.27.14-.57.22-.64.22-.15,0-.24-.14-.38-.37-.08-.13-.16-.27-.38-.39-.09-.05-.66-.2-.66-.33,0-.07.5-.09.64-.09.88-.04,1.02-.11,1.06-.49.01-.13.04-3.54.04-5.47,0-.42-.19-.42-.53-.42h-1.76c-.31,0-.35.07-.39.29-.04.3-.38.43-.62.43-.08,0-.26,0-.33-.26-.01-.08-.01-2.75-.01-2.95s-.07-1.21-.07-1.44c0-.07.03-.23.15-.23.18,0,.43.12.64.22.16.08.2.08.35.08h2.32ZM56.11,2.56c.24,0,.38,0,.38-.3v-.83c-.04-.2-.16-.2-.38-.2h-1.99c-.23,0-.38,0-.38.31,0,.2,0,.76.01.81.03.2.18.2.37.2h1.99ZM56.11,4.39c.26,0,.38,0,.38-.29v-.89c0-.28-.11-.28-.38-.28h-1.96c-.27,0-.39,0-.39.27v.89c0,.3.11.3.39.3h1.96Z"/><path class="cls-2" d="M4.15,115.51c-1.59,0-2.09.04-2.27.05-.07,0-.33.04-.38.04-.07,0-.11-.04-.16-.11l-.34-.42c-.07-.09-.09-.09-.09-.13,0-.04.04-.04.07-.04.13,0,.69.05.79.05.88.04,1.62.07,2.47.07h3.12c.56,0,.61,0,.61-2.54,0-.43,0-1.39-.11-2.49-.02-.11-.07-.52-.07-.61s0-.14.11-.14c.29,0,1.64.34,1.88.41.23.05.4.14.4.33,0,.14-.09.25-.29.41-.34.29-.34.38-.38,1.23-.02.47-.14,2.56-.14,3s.32.42.61.42h3.12c.83,0,.92,0,1.16-.31.58-.74.65-.81.87-.81.4,0,1.84,1.16,1.84,1.34,0,.25-.36.25-.96.25h-5.76c-.4,0-.52,0-.52.29,0,1.1,2.35,6.46,7.46,8.46q.49.2.49.27c0,.13-.09.14-.36.16-.56.04-1.03.09-1.62.34-.09.05-.49.32-.6.32-.33,0-1.93-1.44-2.89-2.82-1.32-1.88-2.27-3.92-2.82-6.12-.02-.11-.09-.36-.13-.36-.05,0-.05.05-.13.43-.36,2.02-1.03,5.78-5.69,8.38-1.34.76-2.55.97-2.69.97-.04,0-.11-.02-.11-.07,0-.09.4-.27.58-.36,1.26-.6,5.04-2.8,6.28-7.69.2-.81.29-1.77.29-1.82,0-.4-.2-.4-.49-.4h-3.16Z"/><path class="cls-2" d="M29.79,111.12s.22,4.33,2.62,8.27c.31.49,2.35,3.79,5.13,4.51.05.02.18.05.18.13,0,.09-.05.09-.63.22-.63.14-1.06.42-1.25.54-.34.25-.4.31-.45.31-.07,0-2.36-1.43-4.12-5.25-.32-.72-1.48-3.2-1.73-6.99-.02-.2-.02-.22-.09-.22-.11,0-.11.07-.18.72-.05.58-.52,4.78-2.31,7.73-1.93,3.21-5.09,4.29-5.25,4.29-.05,0-.11-.02-.11-.09,0-.05.09-.13.23-.22,1.05-.7,3.07-2.31,4.28-4.64,2.06-3.92,2.06-9.08,2.06-9.28,0-.52,0-.72-.07-1.1-.02-.05-.07-.31-.07-.36,0-.09.09-.14.14-.14.11,0,.88.25,1.05.29.87.23,1.23.34,1.23.67,0,.2-.14.25-.31.29-.14.02-.23.04-.29.11-.04.05-.05.11-.05.22Z"/><path class="cls-2" d="M41.44,116.68c0-.65.51-1.19,1.17-1.19s1.21.52,1.21,1.19-.58,1.19-1.21,1.19-1.17-.52-1.17-1.19ZM41.44,123.51c0-.65.51-1.19,1.17-1.19s1.21.52,1.21,1.19-.58,1.19-1.21,1.19-1.17-.52-1.17-1.19Z"/><path class="cls-2" d="M48.48,124.36c-.4,0-.42-.24-.42-.29,0-.29.27-.29.92-.29.97,0,1.44-.05,1.66-.56.13-.31.13-3.48.13-4.12,0-.87-.04-5.07-.04-6.03,0-.85-.25-.85-1.77-.85-.43,0-.61,0-.61-.24s.18-.25.74-.29c.43-.02,1.34-.2,2.04-.45.13-.04.74-.4.88-.4.2,0,.2.05.2.87,0,.49-.04,2.82-.04,3.36,0,.83.02,7.76.07,7.96.13.52.38.74,1.71.74.16,0,.43,0,.43.32,0,.25-.29.25-.45.25h-5.47Z"/><path class="cls-2" d="M59.17,125.87c.33-.22.7-.61.7-.94,0-.14-.18-.23-.52-.41-.23-.11-.72-.34-.72-1.01,0-.63.51-1.19,1.19-1.19.54,0,1.21.36,1.21,1.25,0,1.59-1.57,2.91-2.04,2.91-.18,0-.22-.13-.22-.2,0-.09.02-.13.4-.4Z"/><path class="cls-2" d="M68.44,124.7c-2.85,0-4.06-3.59-4.06-6.91s1.23-6.93,4.06-6.93c2.92.02,4.06,3.76,4.06,6.93s-1.16,6.91-4.06,6.91ZM68.44,111.45c-2.4,0-2.44,5.42-2.44,6.34,0,.74,0,6.34,2.44,6.32,2.4,0,2.44-5.38,2.44-6.32,0-.76,0-6.34-2.44-6.34Z"/><path class="cls-2" d="M79.88,124.7c-2.85,0-4.06-3.59-4.06-6.91s1.23-6.93,4.06-6.93c2.92.02,4.06,3.76,4.06,6.93s-1.16,6.91-4.06,6.91ZM79.88,111.45c-2.4,0-2.44,5.42-2.44,6.34,0,.74,0,6.34,2.44,6.32,2.4,0,2.44-5.38,2.44-6.32,0-.76,0-6.34-2.44-6.34Z"/><path class="cls-2" d="M91.33,124.7c-2.85,0-4.06-3.59-4.06-6.91s1.23-6.93,4.06-6.93c2.92.02,4.06,3.76,4.06,6.93s-1.16,6.91-4.06,6.91ZM91.33,111.45c-2.4,0-2.44,5.42-2.44,6.34,0,.74,0,6.34,2.44,6.32,2.4,0,2.44-5.38,2.44-6.32,0-.76,0-6.34-2.44-6.34Z"/><path class="cls-2" d="M102.18,118.49c-.27,0-.58.02-.6.5-.02.52-.02,2.6-.02,5.42,0,1.23-.83,1.3-.99,1.3-.54,0-.54-.25-.54-.49,0-.04.11-1.53.13-1.82.13-1.91.16-9.78.16-9.96,0-.49-.07-2.85-.07-3.38,0-.13,0-.22.09-.22.23,0,.61.18.98.32.29.13.43.14.92.14h9.71c.58,0,.65-.05.85-.25.27-.25.38-.33.49-.33s1.44.85,1.44,1.1c0,.18-.09.23-.47.52-.29.22-.32.25-.32,2.18,0,1.48.18,8.93.18,10.61,0,1.28-1.37,1.46-1.46,1.46-.31,0-.34-.13-.42-.61-.09-.49-.92-.78-1.44-.97-.96-.34-1.06-.38-1.06-.49,0-.09.13-.09.22-.09.23,0,1.88.27,2.24.27.18,0,.4,0,.45-.2.05-.27.07-1.55.07-1.95,0-.36-.02-2.58-.05-2.72-.07-.34-.36-.36-.54-.36h-9.93ZM105.85,118.02c.18,0,.38-.02.47-.22.05-.14.07-3.81.07-4.24,0-.34-.02-2.42-.07-2.55-.11-.22-.27-.22-.47-.22h-3.7c-.14,0-.38.02-.47.22-.05.13-.05,3.14-.05,3.57,0,.38,0,2.98.04,3.14.05.29.38.29.49.29h3.7ZM112.02,118.02c.63,0,.63-.13.63-1.25,0-.25-.05-5.45-.09-5.67-.07-.31-.31-.31-.6-.31h-3.61c-.23,0-.45,0-.54.2-.09.18-.09,2.89-.09,3.36s0,3.29.09,3.47c.09.2.29.2.54.2h3.66Z"/><path class="cls-2" d="M6.39,137.04c-.25.04-.43.18-.9.79-1.01,1.37-2.22,3-3.83,4.24-.23.18-.79.61-1.01.61-.04,0-.07,0-.07-.04s.92-1.17,1.08-1.41c.34-.47,2.15-2.98,2.89-4.93.23-.61.25-.69.34-.69.18,0,1.46.65,1.71.79.22.13.31.31.23.45-.05.13-.13.13-.45.16ZM10.42,131.87c0,.14-.07.2-.34.43-.14.11-.23.29-.25.72-.05,1.06-.07,2.17-.07,3.25,0,1.59,0,7.82-.02,8.45,0,.58-.04,1.41-.83,1.99-.49.36-1.05.49-1.28.49q-.09,0-.29-.54c-.22-.56-.4-.69-1.19-1.12-.22-.13-.38-.22-.38-.29s.11-.07.2-.07c.22,0,1.16.09,1.35.09.42,0,.88-.07,1.03-.56.13-.45.13-5.04.13-5.83,0-3.23-.07-5.61-.11-6.91,0-.11-.07-.56-.07-.67s.13-.13.2-.13c.14,0,.72.13.9.16.47.09,1.03.22,1.03.54ZM16.21,142.47c-.4,0-.42-.02-1.25-1.52-.92-1.64-2.17-3.41-3.01-4.22-.16-.16-.32-.36-.32-.45,0-.07.07-.07.11-.07.42,0,5.13,2.74,5.13,5.16,0,.2,0,1.1-.65,1.1Z"/><path class="cls-2" d="M26.58,140.36c0-.05-.09-.23-.09-.29,0-.09.11-.11.16-.11.25,0,1.79.49,1.79.79,0,.09-.04.11-.38.31-.16.09-.18.2-.27,1.08-.4,3.72-2.51,4.55-4.91,4.84-.67.09-1.17.09-1.19.09-.04,0-.09,0-.09-.05s.16-.11.33-.16c4.22-1.16,4.71-2.82,4.71-5.99,0-.11-.04-.32-.05-.51ZM23.31,131.44c0-.11.14-.14.22-.14.09,0,.88.23,1.17.34.51.18.56.2.56.36,0,.09-.2.29-.27.38-.22.23-.22.34-.22,1.3v4.53c0,.11.04.78.04.92,0,.69-.65.97-.88.97-.43,0-.47-.34-.47-.85,0-.05.14-3.41.14-3.7,0-.18-.05-2.8-.05-3.14,0-.16-.23-.96-.23-.98ZM28.75,139.04c-.29,0-.45,0-.6.22-.27.36-.38.52-.78.52-.47,0-.52-.31-.52-.67,0-.69.13-4.04.13-4.8,0-1.1-.02-1.59-.14-2.15-.04-.13-.18-.67-.18-.76,0-.05.04-.11.11-.11.09,0,.51.18.87.43.67.47.72.52,1.3.52h4.69c.34,0,.49-.02.67-.33.13-.2.27-.43.42-.43.05,0,.14.04.18.05.09.04.45.29.54.34.51.33.56.36.56.49,0,.02,0,.11-.07.2-.04.05-.34.25-.38.32-.09.2-.09,2.51-.09,2.78v2.91c0,.85-.14,1.37-.83,1.37-.42,0-.45-.2-.52-.58-.05-.34-.42-.34-.56-.34h-4.78ZM33.62,135.34c.61,0,.63-.14.63-1.26,0-1.21,0-1.35-.63-1.35h-4.87c-.63,0-.63.13-.63,1.25,0,1.23,0,1.37.63,1.37h4.87ZM33.57,138.57c.63,0,.63-.13.63-1.23,0-1.5,0-1.54-.63-1.54h-4.82c-.63,0-.63.14-.63,1.17,0,1.5,0,1.59.65,1.59h4.8ZM31.92,142.16c0,.38,0,2.74.02,2.85.14.63.65.7,2.11.7,1.72,0,1.81-.23,2.29-1.7.23-.69.42-1.23.45-1.35.05-.16.05-.22.14-.22.07,0,.07.11.07.14,0,1.05,0,2.09.02,2.2.02.29.09.5.38.76.18.16.2.23.2.31,0,.33-.42.65-.94.83-.67.23-2.31.22-2.71.22-3.16,0-3.16-.67-3.16-1.88,0-.61.04-3.32,0-3.86-.04-.49-.05-.54-.14-1.01,0-.07-.07-.34-.07-.4,0-.09.07-.13.13-.13.13,0,1.14.33,1.3.4.45.14.56.18.56.4,0,.07-.02.16-.22.31-.23.16-.34.29-.4.49-.04.14-.04.63-.04.94Z"/><path class="cls-2" d="M45.47,146.37c.09.1.55.6.55.67,0,.02-.02.07-.08.07-.11,0-2.72-1.87-2.72-5.38s2.61-5.37,2.72-5.37c.06,0,.08.05.08.07,0,.07-.46.56-.55.67-.45.56-1.63,2.18-1.63,4.64s1.17,4.08,1.63,4.64Z"/><path class="cls-2" d="M49.32,146.02c-.25,0-.26-.15-.26-.18,0-.18.17-.18.58-.18.61,0,.9-.03,1.04-.35.08-.19.08-2.18.08-2.57,0-.54-.02-3.17-.02-3.77,0-.53-.16-.53-1.11-.53-.27,0-.38,0-.38-.15s.11-.16.46-.18c.27-.01.84-.12,1.28-.28.08-.02.46-.25.55-.25.12,0,.12.03.12.54,0,.31-.02,1.76-.02,2.1,0,.52.01,4.86.04,4.98.08.33.24.46,1.07.46.1,0,.27,0,.27.2,0,.16-.18.16-.28.16h-3.42Z"/><path class="cls-2" d="M56.03,146.02c-.07,0-.33-.01-.33-.17,0-.6.72-1.47.98-1.77,2.66-3.17,2.9-3.47,2.9-4.54,0-1.01-.73-1.59-1.5-1.59-.68,0-1.26.46-1.26.95,0,.04,0,.18.11.34.15.21.24.34.24.54,0,.33-.27.61-.61.61-.38,0-.64-.34-.64-.77,0-.96.99-2.04,2.43-2.04,1.22,0,2.26.79,2.26,2.12,0,1.16-.71,1.81-1.67,2.61-1.7,1.42-2.31,2.47-2.31,2.69,0,.17.36.17.41.17h1.16c1.14,0,1.8-.32,2.11-1.06.18-.42.18-.43.25-.43.11,0,.11.13.11.16,0,.09-.36,1.55-.42,1.78-.1.41-.5.41-.68.41h-3.53Z"/><path class="cls-2" d="M64.97,141.17c-.21,0-.35.06-.35.33-.02.86-.04,1.69-.26,2.52-.44,1.66-1.48,2.64-1.56,2.64-.01,0-.02-.02-.02-.03,0-.05.23-.44.27-.52.28-.51.82-1.85.82-3.74,0-.16,0-1.13-.09-1.47-.01-.04-.14-.25-.14-.3,0-.07.09-.08.12-.08.06,0,.29.03.67.21.12.07.29.15.46.15h3.02c.11,0,.3-.02.3-.26,0-.11-.03-.64-.06-.77-.01-.06-.15-.26-.15-.32,0-.02.03-.1.14-.1s1.17.11,1.17.39c0,.07-.02.08-.21.25-.1.08-.12.15-.12.28,0,.4.04.52.35.52h1.54c.42,0,.51-.02.58-.1.07-.09.36-.63.49-.63.15,0,.95.7.95.89,0,.13-.07.13-.61.13h-2.85c-.14,0-.34,0-.34.26,0,.5.5,2.34.82,2.34.17,0,.81-1.3.82-1.65.01-.15.01-.19.08-.19s.95.48.95.68c0,.08-.06.12-.15.15-.09.03-.14.06-.18.1-.02.02-.73,1.12-.88,1.32-.12.16-.16.21-.16.29,0,.35,1.31,1.17,1.65,1.17.11,0,.27-.14.34-.24.11-.19.6-1.16.67-1.21h.02c-.02.16-.18,1.37-.18,1.43,0,.11.02.28.04.39.02.06.14.29.14.35,0,.11-.08.33-.44.33-.76,0-1.98-.81-2.55-1.33-.14-.12-.23-.21-.28-.21-.07,0-.09.02-.32.21-1.25,1.07-2.98,1.47-3.18,1.47-.01,0-.03,0-.03-.02,0-.03.73-.4.87-.46,1.31-.71,2.2-1.58,2.2-1.79,0-.07-.06-.17-.19-.42-.33-.62-.61-1.46-.77-2.33-.11-.58-.12-.64-.41-.64h-3ZM69.45,137.74c.45,0,.52-.01.59-.09.09-.08.4-.56.5-.56.16,0,.93.66.93.81,0,.15-.06.15-.6.15h-1.9c-.3,0-.3.18-.3.33,0,.51,0,.61.32.61h2.07c.28,0,.47,0,.56-.03.12-.07.52-.63.64-.63s.9.62.9.79c0,.18-.16.18-.49.18h-7.56c-.25,0-1.03,0-1.42.02-.03.01-.2.03-.24.03-.04,0-.07-.02-.1-.08l-.21-.26s-.06-.06-.06-.07c0-.02.02-.04.05-.04.08,0,.43.05.5.05.52.02,1.03.03,1.55.03h.24c.1,0,.3,0,.3-.33,0-.26-.01-1.29-.07-1.52-.01-.06-.14-.25-.14-.29,0-.07.07-.08.1-.08.12,0,1.2.13,1.2.45,0,.11-.03.15-.19.27-.14.1-.14.26-.14.6,0,.81,0,.9.34.9h.68c.3,0,.35-.1.35-.42,0-1.31,0-1.43-.03-1.56-.01-.04-.14-.26-.14-.3,0-.09.11-.11.18-.11.15,0,.79.24.93.27.14.04.24.09.24.19,0,.06-.08.11-.25.19-.04.03-.08.08-.08.2,0,.19.07.29.29.29h.47ZM66.08,143.77c0,.09-.04.11-.15.15-.11.02-.12.06-.29.36-.37.68-1.2,1.59-1.38,1.59-.03,0-.02-.02.11-.25.53-.86.84-1.76.84-2.33,0-.08,0-.11.06-.11.12,0,.41.2.42.2.1.07.4.28.4.38ZM64.81,142.39c-.04-.06-.06-.06-.06-.08,0-.01.02-.02.04-.02.06,0,.32.02.36.03.25.01.99.04,1.25.04.61,0,.68,0,.82-.19.21-.29.25-.33.33-.33.19,0,.73.51.73.67,0,.06-.04.1-.12.12-.1.02-.23.02-.54.02h-.4c-.16,0-.34.02-.34.33,0,.4.06,2.17.06,2.53,0,.32-.14.63-.51.63-.21,0-.25-.07-.35-.33-.07-.17-.17-.23-.53-.38-.15-.07-.19-.09-.19-.12s.06-.04.07-.04c.08,0,.46.07.54.07.26,0,.26-.04.26-.47,0-.25-.03-1.46-.03-1.73,0-.32-.03-.46-.33-.46-.12,0-.65.04-.76.04-.05,0-.07-.02-.1-.07l-.21-.26ZM68.29,144.83c0,.27-.15.5-.37.5-.27,0-.29-.2-.32-.49-.02-.2-.29-.97-.37-1.15-.02-.04-.11-.21-.11-.26,0-.01,0-.02.02-.02.08,0,.33.16.44.25.34.27.71.73.71,1.17ZM71.16,140.24c0,.24-.16.41-.37.41-.15,0-.18-.06-.44-.5-.12-.21-.23-.35-.41-.52-.02-.02-.03-.03-.03-.06,0-.06.04-.06.08-.06s.25.01.41.04c.15.02.77.15.77.68Z"/><path class="cls-2" d="M77.92,141.59c-.99,0-1.31.02-1.42.03-.04,0-.2.02-.24.02-.04,0-.07-.02-.1-.07l-.21-.26c-.05-.06-.06-.06-.06-.08,0-.01.02-.02.05-.02.08,0,.43.03.5.03.55.03,1.02.04,1.55.04h2.25c.33,0,.33-.16.33-.49,0-.2,0-1.35-.01-1.41-.03-.24-.19-.24-.33-.24h-1.32c-.98,0-1.31.02-1.42.03-.03,0-.2.02-.24.02-.04,0-.07-.02-.1-.07l-.21-.26s-.06-.06-.06-.08c0-.01.02-.02.04-.02.08,0,.43.03.5.03.55.03,1.02.04,1.55.04h1.26c.2,0,.34-.03.34-.33,0-.02.01-.88-.05-1.31-.01-.08-.08-.42-.08-.5,0-.07.09-.12.24-.12s.98.16.98.41c0,.06-.19.23-.23.27-.08.1-.09.19-.09.46,0,.12-.01.7-.01.81.01.26.12.3.37.3h1.1c.47,0,.53,0,.75-.26s.38-.46.46-.46c.16,0,1.1.62,1.1.82,0,.19-.18.19-.61.19h-2.8c-.18,0-.33.01-.36.23-.01.07-.03,1.26-.03,1.48,0,.3.03.43.38.43h2.06c.51,0,.56,0,.71-.23.23-.36.32-.5.51-.5.18,0,1.08.62,1.08.82,0,.19-.18.19-.61.19h-3.66c-.08,0-.17,0-.17.1,0,.07,1.02,1.75,2.9,2.81.92.52,1.32.61,1.57.67.19.04.2.04.2.09,0,.01-.38.17-.46.2-.2.09-.47.29-.56.44-.08.11-.08.12-.14.12-.4,0-2.45-1.62-3.5-3.77-.03-.07-.21-.44-.25-.44-.02,0-.06.01-.06.06v.42c0,.47.02,2.55.03,2.98,0,.15.03.82.03.96,0,.59-.55.67-.62.67-.28,0-.3-.28-.3-.43,0-.24.12-3.06.12-3.64,0-.07,0-.26-.1-.26-.07,0-.15.08-.2.15-1.56,2.06-3.7,3.4-4.38,3.4-.01,0-.02,0-.02-.03s.08-.08.17-.12c2.15-1.24,3.94-4.03,3.94-4.25,0-.12-.12-.12-.2-.12h-1.84Z"/><path class="cls-2" d="M90.1,140.17c0,.41-.34.5-.46.5-.19,0-.23-.06-.5-.67-.19-.42-.49-.79-.64-.93-.12-.1-.14-.11-.14-.15,0-.04.04-.04.06-.04.08,0,.63.1,1.03.33.19.11.65.45.65.95ZM90.92,139.77s.03.03.03.06c0,.32-.65,3.26-.65,3.9,0,.29.06.71.15,1.1.24.95.27,1.05.27,1.25,0,.54-.4.7-.59.7-.43,0-.43-.49-.43-.67,0-.15.01-.78.01-.92,0-.86-.31-1.38-.86-1.51-.3-.08-.34-.09-.34-.12,0-.09.7-.2.82-.25.25-.1.38-.37.52-.7.12-.29.56-1.57.85-2.37.02-.06.17-.46.21-.46ZM90.99,137.78c0,.28-.24.53-.46.53s-.26-.07-.54-.69c-.19-.43-.28-.6-.52-.88-.01-.01-.05-.06-.05-.07,0-.04.05-.04.07-.04.06,0,.47.12.64.2.36.18.86.54.86.95ZM94.25,141.13c.26,0,.34-.12.34-.28,0-.14-.01-.68-.01-.73-.01-.25-.23-.24-.32-.24h-1.12c-.99,0-1.32.02-1.43.02-.03.01-.2.03-.24.03s-.06-.03-.1-.08l-.21-.26s-.05-.06-.05-.07c0-.02.01-.03.03-.03.12,0,.7.06.82.06.08,0,.75.02.91.02.2,0,.33-.11.33-.3,0-.86,0-.94-.32-.94-.12,0-.82.04-.91.04-.05,0-.07-.02-.1-.07l-.23-.26s-.04-.06-.04-.08c0-.02.01-.02.04-.02.19,0,1.05.07,1.23.07s.32-.09.32-.28c0-.26-.01-.5-.06-.76-.01-.06-.1-.28-.1-.33,0-.08.1-.08.12-.08.16,0,1.05.09,1.05.34,0,.08-.02.09-.16.21-.1.08-.11.17-.11.5,0,.18,0,.41.34.41h1.23c.3,0,.33-.23.33-.32,0-.52,0-.64-.03-.87,0-.03-.03-.15-.03-.2,0-.1.11-.11.19-.11.14,0,.73.19.81.23.08.04.11.12.11.18s-.2.21-.23.27c-.03.1-.05.41-.05.53,0,.29.25.29.38.29.44,0,.47-.03.53-.09.08-.07.35-.43.43-.43.17,0,.67.49.67.66,0,.16-.21.16-.6.16h-1.1c-.24,0-.33.12-.33.33,0,.85,0,.94.32.94.45,0,.51,0,.67-.19.32-.38.35-.42.45-.42.08,0,1.06.6,1.06.74,0,.16-.23.16-.61.16h-2.88c-.1,0-.35,0-.35.3,0,.89,0,.95.35.95h1.42c.33,0,.44-.18.46-.21.17-.28.2-.34.35-.34.23,0,.77.42.77.6,0,.07-.25.3-.28.35-.07.12-.07.31-.07.42v2.01c0,.23.07,1.31.07,1.55,0,.53-.08.89-.36,1.15-.2.18-.43.26-.55.26-.14,0-.17-.04-.5-.43-.08-.1-.41-.33-.5-.37-.08-.05-.1-.06-.1-.09s.06-.03.08-.03c1.05,0,1.17,0,1.17-.35,0-.62.01-3.33.01-3.88,0-.32-.23-.32-.34-.32h-1.66c-.26,0-.33.15-.33.29,0,.24,0,2.56.02,2.64.05.18.24.18.31.18h.19c.32,0,.32-.18.32-.58,0-.29.01-1.39-.02-1.58,0-.03-.04-.18-.04-.24s.03-.06.09-.06c.07,0,.95.18.95.35,0,.06-.19.25-.2.31-.05.14-.06.61-.06.78,0,.2.08,1.08.08,1.25,0,.72-.52.77-.55.77-.24,0-.25-.28-.25-.41-.01-.11-.04-.29-.3-.29h-1.61c-.28,0-.32.13-.34.26-.06.24-.16.5-.42.5s-.35-.26-.35-.61c0-.11.02-.61.02-.72,0-.33,0-1.64-.05-1.91,0-.03-.03-.16-.03-.21s.07-.07.15-.07.93.11.93.36c0,.07-.24.28-.26.34-.04.12-.04.23-.04.99s.04.77.5.77c.2,0,.32-.11.32-.31,0-.35,0-2.57-.01-2.63-.06-.18-.25-.18-.33-.18h-1.43c-.23,0-.28.04-.33.1-.08.1-.07.82-.07,1.02,0,.58.02,3.13.02,3.65,0,.12-.01.7-.51.7-.08,0-.29-.03-.29-.34s.01-.63.02-.93c.07-1.54.07-1.75.07-3.71,0-.53,0-.59-.01-.71-.01-.07-.09-.38-.09-.45,0-.09.04-.11.14-.11.25,0,.46.16.7.33.05.03.21.16.51.16h1.28ZM94.26,138.32c-.32,0-.32.21-.32.47,0,.66,0,.78.32.78h1.26c.32,0,.32-.21.32-.42,0-.74,0-.83-.32-.83h-1.26Z"/><path class="cls-2" d="M102.14,137.09c-.09-.1-.55-.6-.55-.67,0-.02.02-.07.08-.07.11,0,2.72,1.87,2.72,5.37s-2.61,5.38-2.72,5.38c-.06,0-.08-.04-.08-.07,0-.07.46-.56.55-.67.45-.56,1.63-2.18,1.63-4.64s-1.17-4.08-1.63-4.64Z"/><path class="cls-2" d="M108.66,138.35c0-.65.51-1.19,1.17-1.19s1.21.52,1.21,1.19-.58,1.19-1.21,1.19-1.17-.52-1.17-1.19ZM108.66,145.18c0-.65.51-1.19,1.17-1.19s1.21.52,1.21,1.19-.58,1.19-1.21,1.19-1.17-.52-1.17-1.19Z"/><path class="cls-2" d="M116.56,134.24c-.61,0-.61.16-.63.72-.02.27-.14,3.32-.14,3.34,0,.14.04.27.16.27.11,0,.16-.04.7-.38.52-.34,1.16-.52,1.9-.52,2.36,0,3.88,1.93,3.88,4.1,0,2.67-2.22,4.6-4.51,4.6-1.91,0-3.38-1.41-3.38-2.56,0-.6.42-1.05,1.06-1.05.52,0,.92.33.92.88,0,.14-.14.85-.14,1.01,0,.78.87,1.14,1.5,1.14,1.32,0,2.87-1.28,2.87-3.81s-1.39-3.54-2.54-3.54-2.18.9-2.35,1.05c-.09.07-.43.5-.56.5-.14,0-.16-.12-.16-.29,0-.72.22-5.2.25-6.17,0-.24.04-.67.58-.67h5.16c.36,0,.52,0,.52.18,0,.11-.14.65-.25.92s-.29.27-.52.27h-4.31Z"/><path class="cls-2" d="M129.89,146.37c-2.85,0-4.06-3.59-4.06-6.91s1.23-6.93,4.06-6.93c2.92.02,4.06,3.75,4.06,6.93s-1.16,6.91-4.06,6.91ZM129.89,133.12c-2.4,0-2.44,5.42-2.44,6.34,0,.74,0,6.34,2.44,6.32,2.4,0,2.44-5.38,2.44-6.32,0-.76,0-6.34-2.44-6.34Z"/><path class="cls-2" d="M141.34,146.37c-2.85,0-4.06-3.59-4.06-6.91s1.23-6.93,4.06-6.93c2.92.02,4.06,3.75,4.06,6.93s-1.16,6.91-4.06,6.91ZM141.34,133.12c-2.4,0-2.44,5.42-2.44,6.34,0,.74,0,6.34,2.44,6.32,2.4,0,2.44-5.38,2.44-6.32,0-.76,0-6.34-2.44-6.34Z"/><path class="cls-2" d="M152.19,140.16c-.27,0-.58.02-.6.5-.02.52-.02,2.6-.02,5.42,0,1.23-.83,1.3-.99,1.3-.54,0-.54-.25-.54-.49,0-.04.11-1.54.13-1.82.13-1.91.16-9.78.16-9.96,0-.49-.07-2.85-.07-3.38,0-.13,0-.22.09-.22.23,0,.61.18.98.33.29.13.43.14.92.14h9.71c.58,0,.65-.05.85-.25.27-.25.38-.33.49-.33s1.44.85,1.44,1.1c0,.18-.09.23-.47.52-.29.22-.32.25-.32,2.18,0,1.48.18,8.94.18,10.61,0,1.28-1.37,1.46-1.46,1.46-.31,0-.34-.13-.42-.61-.09-.49-.92-.78-1.44-.97-.96-.34-1.06-.38-1.06-.49,0-.09.13-.09.22-.09.23,0,1.88.27,2.24.27.18,0,.4,0,.45-.2.05-.27.07-1.55.07-1.95,0-.36-.02-2.58-.05-2.73-.07-.34-.36-.36-.54-.36h-9.93ZM155.85,139.69c.18,0,.38-.02.47-.22.05-.14.07-3.81.07-4.24,0-.34-.02-2.42-.07-2.55-.11-.22-.27-.22-.47-.22h-3.7c-.14,0-.38.02-.47.22-.05.13-.05,3.14-.05,3.57,0,.38,0,2.98.04,3.14.05.29.38.29.49.29h3.7ZM162.03,139.69c.63,0,.63-.13.63-1.25,0-.25-.05-5.45-.09-5.67-.07-.31-.31-.31-.6-.31h-3.61c-.23,0-.45,0-.54.2-.09.18-.09,2.89-.09,3.36s0,3.29.09,3.47c.09.2.29.2.54.2h3.66Z"/><line class="cls-1" y1="20" x2="189.05" y2="20"/><path class="cls-2" d="M2.59,80.51c-.15,0-.28-.07-.45-.45-.33-.81-.89-1.42-1.54-2.07-.2-.2-.23-.23-.23-.27,0-.05.07-.07.11-.07.24,0,1.14.39,1.31.49.77.43,1.31,1.15,1.31,1.63,0,.05,0,.16-.04.3-.05.23-.23.45-.47.45ZM.44,82.79q-.05-.07-.05-.1s.03-.03.04-.03c.24,0,1.38.08,1.65.08.22,0,.3-.08.41-.2.38-.42.42-.46.47-.46.07,0,.87.47.87.72,0,.08-.37.3-.41.37-.04.08-.04.23-.04,1.65s0,1.73.35,2.19c.64.84,1.83.99,4.51.99,1.21,0,2.41-.01,3.6-.22.15-.03.94-.23,1.11-.23.04,0,.07,0,.07.03s-.2.24-.24.28c-.16.19-.22.35-.38.84-.08.27-.27.3-1.76.3-1.59,0-3.88-.13-4.86-.34-.37-.08-1.67-.38-2.32-1.54-.22-.41-.26-.49-.41-.49-.05,0-.12.1-.26.26-.27.34-.91,1.17-1,1.5-.11.34-.15.49-.35.49-.23,0-.99-.89-.99-.99,0-.07.38-.19.45-.23.83-.43,1.57-.83,1.64-1.46,0-.03-.01-2.18-.01-2.59,0-.29-.01-.5-.41-.5-.03,0-.69.01-1,.04-.05,0-.24.03-.3.03-.04,0-.07-.03-.11-.08l-.27-.31ZM11,77.72c.27,0,.39-.07.45-.11.05-.05.3-.31.37-.31.12,0,1.14.8,1.14,1.1,0,.14-.14.29-.28.29-.04,0-.26-.03-.31-.03-.12,0-.26,0-.65.23-.47.28-.53.31-.64.31-.04,0-.07-.01-.07-.07,0-.1.31-.75.31-.89s-.14-.15-.28-.15h-5.57c-.22,0-.23.04-.24.3-.04.66-.53,1.41-1.03,1.41-.28,0-.52-.27-.52-.54,0-.23.08-.31.46-.69.45-.45.45-.73.45-1.23,0-.03,0-.08.04-.08.11,0,.33.22.38.28.14.18.15.19.41.19h5.6ZM6.53,84.44c-.19,0-.3.01-.41.16-.14.19-.26.35-.54.35-.37,0-.45-.18-.45-.41,0-.1.04-.57.04-.68.03-.41.03-.58.03-2.28,0-.11-.07-.62-.07-.73,0-.04.01-.2.15-.2.09,0,.56.23.65.28.04.01.35.14.65.14h.75c.19,0,.3-.04.3-.29,0-.49,0-.57-.3-.57h-.45c-.27,0-1.06,0-1.45.03-.04,0-.2.04-.24.04s-.07-.03-.11-.09l-.22-.31s-.05-.04-.05-.08c0-.03.01-.04.04-.04.07,0,.42.04.5.05.31.01.94.04,1.59.04h.34c.24,0,.33-.05.33-.3,0-.08-.01-.38-.01-.49,0-.09-.09-.5-.09-.6s.09-.1.18-.1c.05,0,1.17.1,1.17.42,0,.07-.24.34-.27.41-.07.14-.07.33-.07.35,0,.3.16.3.3.3h.54c.14,0,.47,0,.57-.04.11-.07.49-.69.64-.69.08,0,1.08.73,1.08.91,0,.19-.24.19-.62.19h-2.2c-.33,0-.33.11-.33.49,0,.23.01.37.28.37h1.07c.09,0,.26,0,.38-.05.05-.03.31-.2.38-.2.11,0,.83.39.83.6,0,.04-.24.31-.27.35-.12.14-.12.8-.12,1,0,.22.04,1.25.04,1.48,0,.49-.38.68-.66.68s-.3-.08-.38-.34c-.04-.15-.23-.15-.31-.15h-.83c-.34,0-.39.18-.39.42,0,.53,0,.69.42.69h1.57c.53,0,.58,0,.77-.26.3-.41.39-.5.52-.5.14,0,1.11.73,1.11.93,0,.19-.24.19-.62.19h-3.33c-.3,0-.39.12-.39.39,0,.12.03.81.03.96,0,.18-.01.64-.57.64-.39,0-.42-.3-.42-.43,0-.18.04-.99.04-1.18,0-.38-.24-.38-.39-.38h-1.23c-.35,0-.91,0-1.37.03-.04,0-.33.04-.34.04-.04,0-.07-.03-.11-.09l-.22-.31s-.05-.07-.05-.08c0-.03.01-.04.04-.04.07,0,.35.04.42.04.76.05,1.71.05,2.41.05h.46c.39,0,.39-.23.39-.55s0-.56-.39-.56h-.71ZM7.24,82.59c.42,0,.42-.2.42-.53,0-.45,0-.62-.42-.62h-.81c-.42,0-.42.2-.42.53,0,.45,0,.62.42.62h.81ZM7.24,84.08c.41,0,.41-.18.41-.66,0-.24,0-.47-.41-.47h-.81c-.42,0-.42.2-.42.57s0,.57.42.57h.81ZM8.88,81.43c-.41,0-.41.22-.41.61,0,.31,0,.54.41.54h.94c.39,0,.41-.18.41-.58,0-.37,0-.57-.41-.57h-.94ZM8.9,82.94c-.42,0-.42.2-.42.62,0,.29,0,.52.39.52h.92c.41,0,.41-.19.41-.64,0-.29,0-.5-.41-.5h-.89Z"/><path class="cls-2" d="M21.06,87.91c0,.15-.07.16-.66.24-.04,0-2.56.75-3.06.84-.72.15-1.38.2-1.44.2-.03,0-.15,0-.15-.04,0-.05,1.35-.51,1.61-.62.57-.23,1.84-.74,2.29-1.22.04-.04.16-.31.22-.31.03,0,.56.35.58.37.54.37.61.41.61.54ZM19.51,78.89c0,.08-.14.22-.2.27-.12.11-.15.2-.15.38,0,.07.09,1.34.09,1.6,0,.23,0,.75-.5.75-.16,0-.35-.03-.39-.2-.03-.13-.03-1.1-.03-1.34-.01-.87-.01-.96-.2-.96-.08,0-.51.24-.65.32-.28.15-1.41.73-1.64.73-.01,0-.03-.01-.03-.03,0-.05.15-.16.34-.3,1.56-1.12,2.57-1.95,3.01-2.85.04-.08.15-.28.18-.28.01,0,1.1.58,1.1.83,0,.12-.11.15-.23.18-.34.07-.88.52-.88.61,0,.05.19.24.19.3ZM24.26,82.49c.22,0,.31,0,.43-.11.19-.19.24-.23.37-.23s.95.5.95.65c0,.07-.34.31-.37.41v.26c0,.42-.04,2.49-.04,2.97,0,.39,0,.88-.57.88-.16,0-.26-.05-.37-.19-.15-.18-.2-.22-.39-.22h-5.16c-.24,0-.26.04-.42.3-.15.23-.43.26-.54.26-.33,0-.33-.28-.33-.39,0-.31.05-1.84.05-2.18,0-.28-.03-1.64-.03-1.95,0-.09-.07-.55-.07-.65,0-.08.04-.19.18-.19.15,0,.46.16.7.29.2.11.28.11.46.11h5.14ZM19.13,84.17c-.3,0-.43.03-.43.49s.14.5.43.5h5.14c.33,0,.42-.05.42-.5s-.09-.49-.42-.49h-5.14ZM24.3,83.82c.22,0,.42-.03.42-.37,0-.47,0-.6-.42-.6h-5.18c-.26,0-.42.04-.42.37,0,.46,0,.6.42.6h5.18ZM24.28,86.56c.38,0,.38-.15.38-.53s0-.52-.38-.52h-5.15c-.37,0-.38.15-.38.43,0,.5,0,.61.38.61h5.15ZM22.95,81.64c-.33,0-1.23,0-1.71.04-.04,0-.24.03-.28.03-.05,0-.07-.03-.12-.08l-.26-.31q-.07-.07-.07-.1s.04-.03.05-.03c.07,0,.41.04.49.04.23.01,1.3.05,1.44.05.3,0,.43-.04.43-.42,0-.92,0-1.03-.42-1.03h-.37c-.33,0-1.23,0-1.71.04-.04,0-.24.03-.28.03-.05,0-.08-.03-.12-.09l-.26-.3q-.07-.08-.07-.09s.03-.03.05-.03c.08,0,.5.04.6.04.39.01,1.08.05,1.86.05h.3c.27,0,.38-.08.38-.42,0-.12-.01-.66-.04-.75-.04-.08-.15-.09-.37-.09-.14,0-.83.03-.99.03-.04,0-.31,0-.31-.07,0-.04.12-.09.26-.12.18-.04,2.22-.53,2.76-.8.07-.03.34-.26.41-.26.01,0,1.03.76,1.03.89,0,.18-1.4.2-1.65.26-.23.05-.23.12-.23.87,0,.31.05.46.38.46h1.15c.56,0,.62,0,.72-.09.11-.09.53-.68.68-.68.11,0,1.11.77,1.11.93,0,.19-.27.19-.72.19h-2.93c-.41,0-.41.03-.41,1.03,0,.31.08.42.35.42h.43c.57,0,.62,0,.75-.11.07-.07.41-.5.52-.5s.96.61.96.79-.28.18-.73.18h-3.06ZM26.16,89.43c-.22,0-.27-.04-1.26-.74-.64-.46-1.59-1.07-2.25-1.4-.24-.12-.27-.13-.27-.19,0-.04.05-.04.08-.04.11,0,.99.2,1.91.52,1.61.55,2.09.87,2.15,1.38.04.28-.2.47-.37.47Z"/><path class="cls-2" d="M35.27,88.82c.11.12.66.72.66.8,0,.03-.03.08-.09.08-.14,0-3.27-2.25-3.27-6.45s3.13-6.45,3.27-6.45c.07,0,.09.05.09.08,0,.08-.56.68-.66.8-.54.68-1.95,2.61-1.95,5.57s1.41,4.89,1.95,5.57Z"/><path class="cls-2" d="M45.16,83.8c.11,0,.24,0,.34-.07.05-.04.28-.34.37-.34.15,0,.34.1.47.18.46.3.73.47.73.65,0,.12-.07.16-.23.24-.26.14-.28.33-.28.69,0,.27.03,1.57.03,1.87,0,.22.07,1.29.07,1.53,0,.81-.8.84-.83.84-.37,0-.37-.28-.37-.42,0-.22.11-1.27.12-1.52.01-.58.01-1.44.01-2.71,0-.34,0-.58-.41-.58h-3.77c-.37,0-.42.11-.46.43-.34,3.04-1.44,4.02-2.07,4.58-.12.11-.28.18-.28.14,0-.07.2-.31.23-.38.94-1.57,1.41-3.14,1.41-7.17,0-1.04-.03-2.84-.2-3.81-.01-.05-.12-.3-.12-.37,0-.14.14-.15.22-.15.27,0,1.3.24,1.3.46,0,.05-.07.12-.08.15-.08.08-.14.15-.15.27-.04.15-.04.2-.04,2.09,0,.26.05.42.41.42h2.48c.24,0,.34-.11.37-.24.03-.07.03-1.46.03-1.67,0-.12,0-.91-.04-1.25-.01-.05-.11-.37-.11-.43,0-.11.07-.12.18-.12.26,0,1.33.33,1.33.53,0,.07-.28.3-.31.37-.07.19-.07.57-.07,2.3,0,.34.01.52.42.52h1.73c.31,0,.56,0,.65-.04.14-.07.6-.68.76-.68.08,0,1.26.72,1.26.89,0,.19-.27.19-.72.19h-7.97c-.12,0-.31.01-.37.18-.05.1-.12,1.94-.12,2.1,0,.32.3.32.41.32h3.69Z"/><path class="cls-2" d="M52.78,82.73q-.05-.07-.05-.08s.03-.04.04-.04c.23,0,1.3.08,1.54.08.26,0,.31-.03.47-.2.35-.38.39-.43.45-.43.07,0,.87.47.87.72,0,.07-.05.12-.09.15-.14.1-.33.23-.34.3-.01.07-.01,1.48-.01,1.69,0,1.69.04,1.8.14,2.02.35.84,1.26,1.11,4.35,1.11,2.45,0,3.96-.3,4.88-.38.03,0,.3-.04.3-.03,0,.05-.05.12-.19.26-.05.05-.26.41-.38.66-.03.05-.1.35-.15.39-.01.03-1.4.03-1.54.03-1.27,0-3.39-.03-4.62-.18-1.07-.13-2.14-.35-2.67-1.29-.07-.12-.33-.92-.49-.92-.11,0-1.44,1.6-1.49,1.9-.04.24-.09.47-.27.47-.2,0-.81-1.08-.81-1.1,0-.11.15-.15.23-.18.2-.07,1.6-.74,1.77-1.21.05-.15.05-2.11.05-2.43,0-.88,0-.99-.47-.99-.18,0-.96.07-1.12.07-.04,0-.07-.03-.12-.09l-.26-.31ZM55.16,80.4q-.18,0-.62-.85c-.15-.29-.42-.79-1.08-1.52-.04-.04-.26-.2-.26-.26s.08-.05.09-.05c.76,0,2.52,1.04,2.34,2.17-.04.26-.26.52-.47.52ZM58.7,86.73c-.18,0-.23.01-.26.26-.04.39-.52.49-.73.49-.14,0-.28-.01-.28-.31,0-.15.08-.8.09-.94.05-.61.08-1.95.08-3.1,0-.38-.05-2.33-.05-2.4,0-.04,0-.12.05-.12.18,0,.58.22.87.38.05.03.19.11.35.11.24,0,.33,0,.41-.08.15-.15.27-.96.27-1.07,0-.24-.18-.24-.31-.24h-.47c-1.19,0-1.59.03-1.72.03-.04.01-.24.04-.28.04s-.07-.04-.12-.1l-.26-.31c-.05-.05-.05-.07-.05-.08,0-.03.01-.04.04-.04.09,0,.52.05.6.05.66.03,1.23.04,1.86.04h1.95c.24,0,.53,0,1.07-1.79.01-.05.07-.33.08-.38.01-.05.04-.12.14-.12.15,0,1.1.56,1.1.71,0,.07-.34.14-.39.16-.46.26-1.29,1.27-1.29,1.34,0,.01.03.08.12.08h.79c.69,0,.79,0,1.19-.6.04-.07.14-.19.23-.19.19,0,1.14.84,1.14.96,0,.19-.27.19-.73.19h-3.01c-.42,0-.47.04-.8.46-.09.11-.65.8-.65.85,0,.08.11.08.15.08h1.88c.22,0,.31,0,.47-.19.22-.26.24-.28.31-.28.16,0,.96.46.96.58,0,.08-.31.31-.34.37-.05.09-.05.2-.05,1.19,0,.64.14,3.79.14,4.08,0,.38-.28.54-.64.54-.33,0-.35-.15-.35-.33,0-.23,0-.32-.19-.32h-3.35ZM58.97,79.13c-.27,0-.34-.12-.6-.65-.18-.35-.64-.89-.65-.91-.04-.04-.18-.16-.18-.2,0-.03.09-.03.11-.03.27,0,2.05.57,1.76,1.52-.07.22-.3.27-.45.27ZM61.88,84.62c.41,0,.41-.18.41-.58,0-.76-.01-.88-.42-.88h-3.06c-.41,0-.41.18-.41.61,0,.75,0,.85.41.85h3.08ZM61.84,82.79c.41,0,.41-.11.41-.79,0-.37,0-.54-.41-.54h-3.01c-.42,0-.42.16-.42.56,0,.68,0,.77.42.77h3.01ZM61.9,86.38c.41,0,.41-.23.41-.69,0-.49,0-.7-.41-.7h-3.06c-.37,0-.41.2-.41.39,0,.91,0,1,.42,1h3.05Z"/><path class="cls-2" d="M68.45,77.68c-.11-.12-.66-.72-.66-.8,0-.03.03-.08.09-.08.14,0,3.27,2.25,3.27,6.45s-3.13,6.45-3.27,6.45c-.07,0-.09-.05-.09-.08,0-.08.56-.68.66-.8.54-.68,1.95-2.62,1.95-5.57s-1.41-4.89-1.95-5.57Z"/><line class="cls-1" y1="97.04" x2="189.05" y2="97.04"/></g></svg>