<svg xmlns="http://www.w3.org/2000/svg" width="189.051" height="147.4" viewBox="0 0 189.051 147.4">
  <g id="car02" transform="translate(0 0.02)">
    <path id="パス_35001" data-name="パス 35001" d="M2.92,7.05c-.28,0-.3.11-.38.65A8.13,8.13,0,0,1,.9,11.87c-.24.27-.34.35-.42.35-.01,0-.05,0-.05-.04s.3-.65.35-.77a14.63,14.63,0,0,0,.99-6.03,14.571,14.571,0,0,0-.14-2.32c-.01-.07-.07-.37-.07-.43,0-.03,0-.07.04-.07s.65.34.77.41a1.155,1.155,0,0,0,.69.22H4.18a.347.347,0,0,0,.35-.16c.28-.39.31-.43.5-.43.26,0,.99.62.99.84,0,.11-.01.14-.23.39-.05.07-.05.11-.05.47,0,.43.03,2.3.03,2.68,0,.91-.7.92-.81.92-.33,0-.35-.14-.35-.42,0-.19,0-.43-.38-.43H2.92ZM3.82.94c.57,0,.65-.03.71-.08.08-.09.42-.64.54-.64a5.871,5.871,0,0,1,1.25.95c0,.11-.27.12-.7.12H3.26c-.38,0-.8.01-1.18.03-.08,0-.47.04-.56.04-.05,0-.08-.03-.14-.1L1.11.95C1.07.9,1.06.88,1.06.87c0-.03.04-.03.05-.03.1,0,.52.04.61.04.46.03,1.12.05,1.57.05h.53Zm.5,5.75c.42,0,.42-.18.42-.68,0-.3,0-2.05-.04-2.24s-.23-.23-.38-.23H3.13c-.39,0-.39.18-.41.6,0,.34-.05,1.9-.05,2.14,0,.12,0,.41.38.41H4.32Zm6.9-1.62a.339.339,0,0,0-.35.18,14.265,14.265,0,0,0-.05,1.53c0,.76.04,4.15.04,4.84,0,.62-.64.75-.83.75-.27,0-.31-.11-.31-.33,0-.12.05-1.02.07-1.21.04-.93.04-2.03.04-2.97,0-.24,0-2.52-.05-2.63a.369.369,0,0,0-.35-.16H8.39c-.26,0-.3.07-.31.42C7.9,8.73,7.33,9.85,6.24,11a3.13,3.13,0,0,1-1.1.84c-.03,0-.05-.01-.05-.04a1.165,1.165,0,0,1,.2-.29C6.64,9.99,7.15,8.43,7.15,5.26c0-1.04-.14-2.86-.15-3.08-.01-.11-.07-.6-.07-.71,0-.05,0-.09.04-.09.15,0,.92.28,1.04.28A5.036,5.036,0,0,0,9.74.67c.12-.09.83-.69.87-.69s.91.46,1.07.54c.37.18.41.2.41.27s-.05.09-.45.18c-.22.04-2.82.76-3.36.88-.11.03-.15.04-.18.11a8.636,8.636,0,0,0-.03.92c0,.22.01,1.23.01,1.44s0,.38.26.38h1.91c.57,0,.72,0,.87-.23.38-.62.42-.69.54-.69a4.466,4.466,0,0,1,1.37,1.08c0,.19-.27.19-.73.19H11.23Z" fill="#3e3a39"/>
    <path id="パス_35002" data-name="パス 35002" d="M19.6,2.44c.39,0,.39-.23.39-.45,0-.71,0-.84-.39-.84H18.41c-1.19,0-1.59.03-1.71.04-.05,0-.24.03-.28.03s-.08-.03-.12-.08L16.03.83c-.04-.07-.05-.07-.05-.09s.01-.03.05-.03c.09,0,.5.04.6.04.66.03,1.22.05,1.86.05h6.17c.61,0,.68,0,.85-.23.41-.51.45-.57.57-.57a3.839,3.839,0,0,1,1.34.96c0,.19-.27.19-.72.19H23.8c-.35,0-.35.24-.35.87,0,.16,0,.42.34.42h1.03a.536.536,0,0,0,.33-.08c.07-.05.31-.38.39-.38s.95.54.95.79c0,.07-.24.33-.27.39a7.458,7.458,0,0,0-.05,1.08c0,.08,0,1.04-.01,1.06a.633.633,0,0,1-.65.45c-.24,0-.24-.03-.28-.31-.04-.23-.19-.23-.33-.23H22.01c-.14,0-.15,0-.15.04s.62.35.62.47c0,.09-.04.13-.39.32a6.365,6.365,0,0,0-1.07,1.4c0,.11.11.11.3.11H25.1c.57,0,.6-.03.68-.09.14-.11.57-.77.72-.77.05,0,1.37.83,1.37,1.04,0,.19-.27.19-.72.19h-2.8c-.11,0-.12,0-.12.03s.01.04.14.11c.34.18.38.19.38.29s-.41.38-.47.43c-.16.16-.83.91-.98,1.06-.03.03-.11.11-.11.16s.04.05.42.18c1.1.35,2.51.99,2.51,1.65a.5.5,0,0,1-.49.49.727.727,0,0,1-.33-.09c-1.56-1.08-2.38-1.64-2.74-1.64a.329.329,0,0,0-.22.08,10.822,10.822,0,0,1-5.15,1.78c-.09,0-.19-.03-.19-.08s.1-.08.16-.09a10.157,10.157,0,0,0,4.32-2.11,6.827,6.827,0,0,0-1.82-.6c-.16,0-.19.04-.41.33-.41.54-.57.68-.88.68-.19,0-.49-.11-.49-.34,0-.19.03-.22.6-.84.05-.07.99-1.29.99-1.38,0-.07-.03-.07-.31-.07H17.98c-1.19,0-1.59.03-1.72.03a2.7,2.7,0,0,1-.28.04c-.04,0-.07-.04-.12-.09l-.26-.31c-.05-.05-.05-.07-.05-.08,0-.03.01-.04.04-.04.1,0,.52.05.6.05.66.03,1.23.04,1.87.04h1.35a.628.628,0,0,0,.58-.26,6.247,6.247,0,0,0,1.14-1.95c0-.14-.12-.14-.24-.14H18.64c-.12,0-.31,0-.35.15-.08.34-.16.66-.58.66s-.42-.24-.42-.47.03-1.3.03-1.52c0-.62-.03-1.29-.07-1.67-.01-.11-.01-.19-.01-.22s0-.13.05-.13c.09,0,.69.3.83.34a1.471,1.471,0,0,0,.49.1h1.03Zm-1.04.35c-.37,0-.37.29-.37.64,0,1.37,0,1.41.39,1.41h1c.41,0,.41-.2.41-.75,0-1.29,0-1.3-.41-1.3H18.55Zm2.46,5.12a.6.6,0,0,0-.58.24,11.815,11.815,0,0,0-.72,1.07c0,.08.03.08.3.12s1.82.34,1.84.34c.39,0,1.46-1.56,1.46-1.67s-.08-.11-.15-.11H21.02Zm.15-5.12c-.41,0-.42.11-.42,1.03s.01,1.02.41,1.02H22.3a.355.355,0,0,0,.37-.18c.04-.08.03-1.31.03-1.52a.312.312,0,0,0-.34-.35H21.18Zm0-1.64c-.39,0-.39.18-.39.81,0,.24,0,.47.41.47h1.15c.35,0,.35-.31.35-.43,0-.65,0-.85-.35-.85Zm2.6,1.64c-.35,0-.35.16-.35,1.11,0,.73,0,.94.35.94h1.1c.35,0,.35-.16.35-1.11,0-.73,0-.94-.35-.94Z" fill="#3e3a39"/>
    <path id="パス_35003" data-name="パス 35003" d="M33.59,1.71a.733.733,0,0,0,.56-.2c.31-.3.35-.34.42-.34a1.761,1.761,0,0,1,.75.73,5.19,5.19,0,0,1-.3.68,14.377,14.377,0,0,0-.08,1.73c0,.71.08,3.82.08,4.45a1.191,1.191,0,0,1-.24.83,1.118,1.118,0,0,1-.57.31c-.24,0-.26-.31-.26-.39,0-.32,0-.42-.38-.42H32.8a.341.341,0,0,0-.38.38c0,.04,0,.58-.01.66a1.117,1.117,0,0,1-.69.8c-.37,0-.37-.31-.37-.43s.05-.99.05-1.18c.04-1.44.07-2.4.07-6.19,0-.29-.04-1.54-.04-1.79,0-.07,0-.15.08-.15a2.093,2.093,0,0,1,.61.3,1.184,1.184,0,0,0,.75.23h.73Zm-.03,7.02c.12,0,.33,0,.41-.18.04-.1.04-1.18.04-1.46a13.274,13.274,0,0,0-.04-1.45.338.338,0,0,0-.31-.18h-.92c-.35,0-.35.11-.35,1.22,0,.38,0,1.78.05,1.87a.32.32,0,0,0,.33.18h.8Zm-.77-6.66a.309.309,0,0,0-.28.11,16.051,16.051,0,0,0-.11,2.38c0,.31,0,.54.38.54h.83a.38.38,0,0,0,.37-.18c.05-.14.05-1.54.05-1.82,0-.98,0-1.04-.39-1.04H32.8Zm7.74,2.69c.64,0,.7,0,.91-.34.09-.15.34-.54.56-.54a3.408,3.408,0,0,1,.54.38c.64.53.68.56.68.66,0,.19-.28.19-.73.19H37.38c-.64,0-1.19.01-1.45.04-.05,0-.26.03-.3.03s-.07-.03-.11-.08l-.27-.31a.246.246,0,0,1-.05-.09.045.045,0,0,1,.04-.03c.11,0,.53.04.61.04.47.03,1.15.05,1.6.05h.53c.41,0,.41-.27.41-.43,0-.28,0-1.03-.01-1.27-.01-.34-.23-.34-.37-.34-.43,0-1.12,0-1.52.03-.04,0-.24.04-.28.04s-.08-.04-.12-.09l-.26-.31c-.05-.05-.07-.07-.07-.08,0-.03.03-.04.05-.04.09,0,.51.04.6.05.49.01,1.08.04,1.56.04.15,0,.41,0,.41-.34A11.952,11.952,0,0,0,38.3.52c-.01-.07-.05-.33-.05-.38a.1.1,0,0,1,.11-.11c.01,0,1.44.41,1.44.58,0,.07-.3.3-.34.35a1.064,1.064,0,0,0-.09.54c0,.81,0,.85.58.85s.76.01.94-.24q.38-.53.49-.53a3.887,3.887,0,0,1,1.19.99c0,.15-.07.15-.66.15H39.78c-.38,0-.38.22-.38.54a5.705,5.705,0,0,0,.04,1.33.333.333,0,0,0,.35.18h.77Zm.51,2.69c-.41,0-.46.12-.46.49,0,.53.07,2.83.07,3.31,0,1.06-1.11,1.1-1.3,1.1-.14,0-.19-.01-.19-.16,0-.35,0-.54-.57-.75-.14-.04-.73-.19-.84-.23-.05-.03-.22-.11-.22-.16s.08-.09.2-.09c.05,0,1.29.15,1.53.15s.3-.03.35-.22a10.185,10.185,0,0,0,.04-1.67c0-1.73-.01-1.76-.46-1.76H38.08c-.3,0-1.23,0-1.71.03a2.7,2.7,0,0,1-.28.04c-.05,0-.08-.04-.12-.09l-.26-.31c-.05-.05-.07-.07-.07-.08,0-.03.03-.04.05-.04.1,0,.52.04.6.05.62.03,1.23.04,1.86.04h1.06c.39,0,.39-.23.39-.46,0-.18-.07-1.08-.07-1.11,0-.11.03-.16.11-.16s1.35.37,1.35.64c0,.08-.34.34-.37.41a.786.786,0,0,0-.07.41c0,.23.12.28.26.28.16,0,.2-.05.54-.51.12-.18.27-.35.42-.35.07,0,.12.04.54.38.64.51.68.55.68.66,0,.19-.27.19-.72.19H41.02Zm-3.03,2.89c-.3,0-.38-.15-.66-.64a4.34,4.34,0,0,0-1.21-1.19c-.05-.04-.49-.35-.49-.37,0-.07.07-.08.11-.08.27,0,2.72.47,2.72,1.79A.518.518,0,0,1,38.01,10.34Z" fill="#3e3a39"/>
    <path id="パス_35004" data-name="パス 35004" d="M49.98.91a.421.421,0,0,0,.38-.15c.14-.15.24-.26.37-.26.15,0,.83.5.83.69,0,.07-.22.27-.26.33-.09.12-.09.23-.09.6s.07,2.07.07,2.47c0,.75-.38.88-.57.88-.33,0-.37-.26-.39-.47-.04-.28-.19-.28-.45-.28H48.19c-.22,0-.43,0-.5.18a6.579,6.579,0,0,0-.04.96c0,.62,0,2.91.01,3.43.01.3.05,1.73.05,2.06,0,.24,0,.98-.7.98-.35,0-.35-.38-.35-.47,0-.04.01-.37.01-.54.14-4.02.14-4.92.14-6.41,0-.83,0-2.86-.01-3.04-.01-.11-.08-1.23-.08-1.25,0-.05,0-.14.05-.14a2.042,2.042,0,0,1,.64.24c.35.19.39.2.58.2H50ZM48.04,2.98c-.27,0-.41,0-.41.27v.79c0,.3.11.3.41.3h1.91c.27,0,.41,0,.41-.27V3.3c0-.3-.11-.31-.41-.31H48.04Zm0-1.71c-.31,0-.39,0-.39.34v.73c0,.29.12.29.39.29h1.94c.31,0,.39,0,.39-.35V1.55c0-.27-.12-.27-.39-.27H48.04Zm4.93,5.1a.324.324,0,0,0,.31-.12c.11-.12.26-.27.38-.27.14,0,.8.45.8.69a.3.3,0,0,1-.08.18c-.14.18-.18.22-.19.41-.04.35,0,2.49,0,2.82,0,.37,0,.54-.12.69a.885.885,0,0,1-.57.3c-.3,0-.3-.28-.3-.49,0-.33-.18-.33-.45-.33H51.07c-.31,0-.38.05-.41.31-.05.41-.28.64-.62.64-.18,0-.31-.07-.31-.49,0-.1.01-.46.03-.58.04-.7.05-1.11.05-1.68,0-.07,0-1.37-.04-1.86,0-.05-.04-.35-.04-.42,0-.11.05-.12.12-.12.15,0,.84.33,1,.33h2.11Zm-1.96.36c-.33,0-.35.03-.35.43v.68c.04.19.15.19.35.19h1.91c.2,0,.31,0,.35-.19V7.07c0-.34-.1-.34-.35-.34H51.01Zm.02,1.67c-.26,0-.38,0-.38.28v.94c0,.26.14.26.38.26h1.86c.3,0,.38,0,.38-.35,0-.12,0-.87-.01-.93-.04-.19-.09-.19-.37-.19H51.03ZM56.24.88a.28.28,0,0,0,.28-.11c.16-.18.22-.22.3-.22.11,0,.88.43.88.69,0,.08-.07.15-.15.22-.22.19-.22.23-.22.72,0,1.25.03,7.4.03,8.79,0,.54-.07.87-.54,1.11a2.127,2.127,0,0,1-.64.22c-.15,0-.24-.14-.38-.37a.928.928,0,0,0-.38-.39c-.09-.05-.66-.2-.66-.33,0-.07.5-.09.64-.09.88-.04,1.02-.11,1.06-.49.01-.13.04-3.54.04-5.47,0-.42-.19-.42-.53-.42H54.21c-.31,0-.35.07-.39.29-.04.3-.38.43-.62.43a.3.3,0,0,1-.33-.26c-.01-.08-.01-2.75-.01-2.95s-.07-1.21-.07-1.44c0-.07.03-.23.15-.23a1.808,1.808,0,0,1,.64.22.58.58,0,0,0,.35.08h2.32Zm-.13,1.68c.24,0,.38,0,.38-.3V1.43c-.04-.2-.16-.2-.38-.2H54.12c-.23,0-.38,0-.38.31,0,.2,0,.76.01.81.03.2.18.2.37.2h1.99Zm0,1.83c.26,0,.38,0,.38-.29V3.21c0-.28-.11-.28-.38-.28H54.15c-.27,0-.39,0-.39.27v.89c0,.3.11.3.39.3h1.96Z" fill="#3e3a39"/>
    <path id="パス_35005" data-name="パス 35005" d="M4.15,115.51c-1.59,0-2.09.04-2.27.05-.07,0-.33.04-.38.04-.07,0-.11-.04-.16-.11L1,115.07c-.07-.09-.09-.09-.09-.13s.04-.04.07-.04c.13,0,.69.05.79.05.88.04,1.62.07,2.47.07H7.36c.56,0,.61,0,.61-2.54a24.735,24.735,0,0,0-.11-2.49c-.02-.11-.07-.52-.07-.61s0-.14.11-.14a15.624,15.624,0,0,1,1.88.41c.23.05.4.14.4.33,0,.14-.09.25-.29.41-.34.29-.34.38-.38,1.23-.02.47-.14,2.56-.14,3s.32.42.61.42H13.1c.83,0,.92,0,1.16-.31.58-.74.65-.81.87-.81a4.582,4.582,0,0,1,1.84,1.34c0,.25-.36.25-.96.25H10.25c-.4,0-.52,0-.52.29,0,1.1,2.35,6.46,7.46,8.46q.49.2.49.27c0,.13-.09.14-.36.16a4.614,4.614,0,0,0-1.62.34,2.889,2.889,0,0,1-.6.32,9.355,9.355,0,0,1-2.89-2.82,18.321,18.321,0,0,1-2.82-6.12c-.02-.11-.09-.36-.13-.36s-.05.05-.13.43a10.757,10.757,0,0,1-5.69,8.38,7.757,7.757,0,0,1-2.69.97c-.04,0-.11-.02-.11-.07,0-.09.4-.27.58-.36a11.864,11.864,0,0,0,6.28-7.69,13.076,13.076,0,0,0,.29-1.82c0-.4-.2-.4-.49-.4H4.14Z" fill="#3e3a39"/>
    <path id="パス_35006" data-name="パス 35006" d="M29.79,111.12a19.7,19.7,0,0,0,2.62,8.27c.31.49,2.35,3.79,5.13,4.51.05.02.18.05.18.13s-.05.09-.63.22a3.787,3.787,0,0,0-1.25.54c-.34.25-.4.31-.45.31-.07,0-2.36-1.43-4.12-5.25a19.6,19.6,0,0,1-1.73-6.99c-.02-.2-.02-.22-.09-.22-.11,0-.11.07-.18.72a20.7,20.7,0,0,1-2.31,7.73,9.969,9.969,0,0,1-5.25,4.29c-.05,0-.11-.02-.11-.09,0-.05.09-.13.23-.22a13.32,13.32,0,0,0,4.28-4.64,22.688,22.688,0,0,0,2.06-9.28,5.114,5.114,0,0,0-.07-1.1,2.287,2.287,0,0,1-.07-.36.149.149,0,0,1,.14-.14c.11,0,.88.25,1.05.29.87.23,1.23.34,1.23.67,0,.2-.14.25-.31.29a.433.433,0,0,0-.29.11.326.326,0,0,0-.05.22Z" fill="#3e3a39"/>
    <path id="パス_35007" data-name="パス 35007" d="M41.44,116.68a1.176,1.176,0,0,1,1.17-1.19,1.2,1.2,0,0,1,1.21,1.19,1.217,1.217,0,0,1-1.21,1.19A1.182,1.182,0,0,1,41.44,116.68Zm0,6.83a1.176,1.176,0,0,1,1.17-1.19,1.2,1.2,0,0,1,1.21,1.19,1.217,1.217,0,0,1-1.21,1.19A1.182,1.182,0,0,1,41.44,123.51Z" fill="#3e3a39"/>
    <path id="パス_35035" data-name="パス 35035" d="M-21.753,0h5.976V-.576h-.99c-.882,0-1.26-.324-1.26-1.1V-13.23c0-.144-.036-.252-.2-.252-.072,0-.126.036-.252.108a6.932,6.932,0,0,1-2.934.756h-.324v.558h1.368c.342,0,.864.09.864.648v9.738c0,.738-.324,1.1-1.26,1.1h-.99Zm10.3,2.088A4.191,4.191,0,0,0-9.747-.72a1.045,1.045,0,0,0-1.062-1.026A1.041,1.041,0,0,0-11.835-.7c0,.558.306.81.774,1.026.144.054.162.234.162.306a1.831,1.831,0,0,1-.846,1.188ZM1.071-3.69l-.54-.2C-.009-2.394-.6-1.422-3.123-1.422H-5.607A15.625,15.625,0,0,1-1.719-5.94C-.1-7.326.945-8.316.945-10.134a3.285,3.285,0,0,0-3.6-3.348,3.6,3.6,0,0,0-3.87,3.222A1.137,1.137,0,0,0-5.5-9a1,1,0,0,0,.972-1.008,1.551,1.551,0,0,0-.378-.9.994.994,0,0,1-.18-.558c0-.648.756-1.4,2.016-1.4A2.313,2.313,0,0,1-.675-10.4c0,1.8-.9,2.826-3.546,5.886A12.192,12.192,0,0,0-6.867-.486V0H.207ZM12.015-6.57c0-4.914-2.2-6.912-4.05-6.912-2.412,0-4.05,2.916-4.05,6.75a11.2,11.2,0,0,0,1.1,5.13A3.644,3.644,0,0,0,7.965.342C10.161.342,12.015-2.16,12.015-6.57Zm-4.05-6.3c1.44,0,2.43,2.2,2.43,6.3a16.667,16.667,0,0,1-.432,3.96c-.2.684-.756,2.34-2,2.34-1.476,0-2.43-2.286-2.43-6.3a16.289,16.289,0,0,1,.414-3.906C6.129-11.106,6.687-12.87,7.965-12.87Zm14.85,6.3c0-4.914-2.2-6.912-4.05-6.912-2.412,0-4.05,2.916-4.05,6.75a11.2,11.2,0,0,0,1.1,5.13A3.644,3.644,0,0,0,18.765.342C20.961.342,22.815-2.16,22.815-6.57Zm-4.05-6.3c1.44,0,2.43,2.2,2.43,6.3a16.667,16.667,0,0,1-.432,3.96c-.2.684-.756,2.34-2,2.34-1.476,0-2.43-2.286-2.43-6.3a16.289,16.289,0,0,1,.414-3.906C16.929-11.106,17.487-12.87,18.765-12.87Z" transform="translate(70 123.98)" fill="#3e3a39"/>
    <path id="パス_35013" data-name="パス 35013" d="M102.18,118.49c-.27,0-.58.02-.6.5-.02.52-.02,2.6-.02,5.42,0,1.23-.83,1.3-.99,1.3-.54,0-.54-.25-.54-.49,0-.04.11-1.53.13-1.82.13-1.91.16-9.78.16-9.96,0-.49-.07-2.85-.07-3.38,0-.13,0-.22.09-.22a3.9,3.9,0,0,1,.98.32,1.813,1.813,0,0,0,.92.14h9.71c.58,0,.65-.05.85-.25.27-.25.38-.33.49-.33s1.44.85,1.44,1.1c0,.18-.09.23-.47.52-.29.22-.32.25-.32,2.18,0,1.48.18,8.93.18,10.61,0,1.28-1.37,1.46-1.46,1.46-.31,0-.34-.13-.42-.61s-.92-.78-1.44-.97c-.96-.34-1.06-.38-1.06-.49,0-.09.13-.09.22-.09.23,0,1.88.27,2.24.27.18,0,.4,0,.45-.2.05-.27.07-1.55.07-1.95,0-.36-.02-2.58-.05-2.72a.469.469,0,0,0-.54-.36H102.2Zm3.67-.47c.18,0,.38-.02.47-.22.05-.14.07-3.81.07-4.24,0-.34-.02-2.42-.07-2.55-.11-.22-.27-.22-.47-.22h-3.7a.48.48,0,0,0-.47.22c-.05.13-.05,3.14-.05,3.57,0,.38,0,2.98.04,3.14.05.29.38.29.49.29h3.7Zm6.17,0c.63,0,.63-.13.63-1.25,0-.25-.05-5.45-.09-5.67-.07-.31-.31-.31-.6-.31h-3.61c-.23,0-.45,0-.54.2-.09.18-.09,2.89-.09,3.36s0,3.29.09,3.47c.09.2.29.2.54.2h3.66Z" transform="translate(-1.318)" fill="#3e3a39"/>
    <path id="パス_35014" data-name="パス 35014" d="M6.39,137.04c-.25.04-.43.18-.9.79a20.508,20.508,0,0,1-3.83,4.24,3.132,3.132,0,0,1-1.01.61c-.04,0-.07,0-.07-.04s.92-1.17,1.08-1.41a26.05,26.05,0,0,0,2.89-4.93c.23-.61.25-.69.34-.69a12.091,12.091,0,0,1,1.71.79c.22.13.31.31.23.45-.05.13-.13.13-.45.16Zm4.03-5.17c0,.14-.07.2-.34.43-.14.11-.23.29-.25.72-.05,1.06-.07,2.17-.07,3.25,0,1.59,0,7.82-.02,8.45a2.241,2.241,0,0,1-.83,1.99,2.517,2.517,0,0,1-1.28.49q-.09,0-.29-.54c-.22-.56-.4-.69-1.19-1.12-.22-.13-.38-.22-.38-.29s.11-.07.2-.07c.22,0,1.16.09,1.35.09.42,0,.88-.07,1.03-.56.13-.45.13-5.04.13-5.83,0-3.23-.07-5.61-.11-6.91,0-.11-.07-.56-.07-.67s.13-.13.2-.13c.14,0,.72.13.9.16.47.09,1.03.22,1.03.54Zm5.79,10.6c-.4,0-.42-.02-1.25-1.52a21.331,21.331,0,0,0-3.01-4.22,1.1,1.1,0,0,1-.32-.45c0-.07.07-.07.11-.07.42,0,5.13,2.74,5.13,5.16,0,.2,0,1.1-.65,1.1Z" fill="#3e3a39"/>
    <path id="パス_35015" data-name="パス 35015" d="M26.58,140.36c0-.05-.09-.23-.09-.29,0-.09.11-.11.16-.11.25,0,1.79.49,1.79.79,0,.09-.04.11-.38.31-.16.09-.18.2-.27,1.08-.4,3.72-2.51,4.55-4.91,4.84a9.694,9.694,0,0,1-1.19.09c-.04,0-.09,0-.09-.05s.16-.11.33-.16c4.22-1.16,4.71-2.82,4.71-5.99,0-.11-.04-.32-.05-.51Zm-3.27-8.92c0-.11.14-.14.22-.14a9.755,9.755,0,0,1,1.17.34c.51.18.56.2.56.36,0,.09-.2.29-.27.38-.22.23-.22.34-.22,1.3v4.53c0,.11.04.78.04.92a.992.992,0,0,1-.88.97c-.43,0-.47-.34-.47-.85,0-.05.14-3.41.14-3.7,0-.18-.05-2.8-.05-3.14,0-.16-.23-.96-.23-.98Zm5.44,7.6c-.29,0-.45,0-.6.22-.27.36-.38.52-.78.52-.47,0-.52-.31-.52-.67,0-.69.13-4.04.13-4.8a9.683,9.683,0,0,0-.14-2.15,6.836,6.836,0,0,1-.18-.76.111.111,0,0,1,.11-.11,2.8,2.8,0,0,1,.87.43c.67.47.72.52,1.3.52h4.69c.34,0,.49-.02.67-.33.13-.2.27-.43.42-.43a.946.946,0,0,1,.18.05c.09.04.45.29.54.34.51.33.56.36.56.49a.324.324,0,0,1-.07.2c-.04.05-.34.25-.38.32-.09.2-.09,2.51-.09,2.78v2.91c0,.85-.14,1.37-.83,1.37-.42,0-.45-.2-.52-.58-.05-.34-.42-.34-.56-.34H28.77Zm4.87-3.7c.61,0,.63-.14.63-1.26,0-1.21,0-1.35-.63-1.35H28.75c-.63,0-.63.13-.63,1.25,0,1.23,0,1.37.63,1.37h4.87Zm-.05,3.23c.63,0,.63-.13.63-1.23,0-1.5,0-1.54-.63-1.54H28.75c-.63,0-.63.14-.63,1.17,0,1.5,0,1.59.65,1.59h4.8Zm-1.65,3.59c0,.38,0,2.74.02,2.85.14.63.65.7,2.11.7,1.72,0,1.81-.23,2.29-1.7.23-.69.42-1.23.45-1.35.05-.16.05-.22.14-.22.07,0,.07.11.07.14,0,1.05,0,2.09.02,2.2a.986.986,0,0,0,.38.76c.18.16.2.23.2.31,0,.33-.42.65-.94.83a11.846,11.846,0,0,1-2.71.22c-3.16,0-3.16-.67-3.16-1.88,0-.61.04-3.32,0-3.86a6.639,6.639,0,0,0-.14-1.01c0-.07-.07-.34-.07-.4a.126.126,0,0,1,.13-.13,10.622,10.622,0,0,1,1.3.4c.45.14.56.18.56.4,0,.07-.02.16-.22.31a.872.872,0,0,0-.4.49,6.149,6.149,0,0,0-.04.94Z" fill="#3e3a39"/>
    <path id="パス_35016" data-name="パス 35016" d="M45.47,146.37a4.943,4.943,0,0,1,.55.67.077.077,0,0,1-.08.07,6.671,6.671,0,0,1,0-10.75.077.077,0,0,1,.08.07,5.644,5.644,0,0,1-.55.67,7.419,7.419,0,0,0,0,9.28Z" fill="#3e3a39"/>
    <path id="パス_35017" data-name="パス 35017" d="M49.32,146.02c-.25,0-.26-.15-.26-.18,0-.18.17-.18.58-.18.61,0,.9-.03,1.04-.35a25.5,25.5,0,0,0,.08-2.57c0-.54-.02-3.17-.02-3.77,0-.53-.16-.53-1.11-.53-.27,0-.38,0-.38-.15s.11-.16.46-.18a5.147,5.147,0,0,0,1.28-.28,5.448,5.448,0,0,1,.55-.25c.12,0,.12.03.12.54,0,.31-.02,1.76-.02,2.1,0,.52.01,4.86.04,4.98.08.33.24.46,1.07.46.1,0,.27,0,.27.2,0,.16-.18.16-.28.16H49.32Z" fill="#3e3a39"/>
    <path id="パス_35018" data-name="パス 35018" d="M56.03,146.02c-.07,0-.33-.01-.33-.17a3.721,3.721,0,0,1,.98-1.77c2.66-3.17,2.9-3.47,2.9-4.54a1.5,1.5,0,0,0-1.5-1.59c-.68,0-1.26.46-1.26.95a.583.583,0,0,0,.11.34.894.894,0,0,1,.24.54.612.612,0,0,1-.61.61.694.694,0,0,1-.64-.77,2.312,2.312,0,0,1,2.43-2.04,2.112,2.112,0,0,1,2.26,2.12c0,1.16-.71,1.81-1.67,2.61-1.7,1.42-2.31,2.47-2.31,2.69,0,.17.36.17.41.17H58.2c1.14,0,1.8-.32,2.11-1.06.18-.42.18-.43.25-.43.11,0,.11.13.11.16,0,.09-.36,1.55-.42,1.78a.6.6,0,0,1-.68.41H56.04Z" fill="#3e3a39"/>
    <path id="パス_35019" data-name="パス 35019" d="M64.97,141.17c-.21,0-.35.06-.35.33a10.627,10.627,0,0,1-.26,2.52,5.088,5.088,0,0,1-1.56,2.64c-.01,0-.02-.02-.02-.03a5.266,5.266,0,0,1,.27-.52,8.162,8.162,0,0,0,.82-3.74,9.1,9.1,0,0,0-.09-1.47,2.75,2.75,0,0,1-.14-.3c0-.07.09-.08.12-.08a1.862,1.862,0,0,1,.67.21.965.965,0,0,0,.46.15h3.02c.11,0,.3-.02.3-.26a7.015,7.015,0,0,0-.06-.77c-.01-.06-.15-.26-.15-.32a.127.127,0,0,1,.14-.1c.11,0,1.17.11,1.17.39,0,.07-.02.08-.21.25a.3.3,0,0,0-.12.28c0,.4.04.52.35.52h1.54c.42,0,.51-.02.58-.1s.36-.63.49-.63c.15,0,.95.7.95.89,0,.13-.07.13-.61.13H69.43c-.14,0-.34,0-.34.26,0,.5.5,2.34.82,2.34a3.8,3.8,0,0,0,.82-1.65c.01-.15.01-.19.08-.19s.95.48.95.68c0,.08-.06.12-.15.15a.426.426,0,0,0-.18.1c-.02.02-.73,1.12-.88,1.32-.12.16-.16.21-.16.29,0,.35,1.31,1.17,1.65,1.17a.57.57,0,0,0,.34-.24c.11-.19.6-1.16.67-1.21h.02c-.02.16-.18,1.37-.18,1.43a2.578,2.578,0,0,0,.04.39,2.553,2.553,0,0,1,.14.35c0,.11-.08.33-.44.33a5.124,5.124,0,0,1-2.55-1.33c-.14-.12-.23-.21-.28-.21-.07,0-.09.02-.32.21a7.134,7.134,0,0,1-3.18,1.47c-.01,0-.03,0-.03-.02a8.214,8.214,0,0,1,.87-.46,5.457,5.457,0,0,0,2.2-1.79,1.411,1.411,0,0,0-.19-.42,8.387,8.387,0,0,1-.77-2.33c-.11-.58-.12-.64-.41-.64h-3Zm4.48-3.43c.45,0,.52-.01.59-.09.09-.08.4-.56.5-.56a2.364,2.364,0,0,1,.93.81c0,.15-.06.15-.6.15h-1.9c-.3,0-.3.18-.3.33,0,.51,0,.61.32.61h2.07a2.456,2.456,0,0,0,.56-.03c.12-.07.52-.63.64-.63s.9.62.9.79-.16.18-.49.18H65.11c-.25,0-1.03,0-1.42.02a1.748,1.748,0,0,1-.24.03c-.04,0-.07-.02-.1-.08l-.21-.26a.435.435,0,0,1-.06-.07.046.046,0,0,1,.05-.04c.08,0,.43.05.5.05.52.02,1.03.03,1.55.03h.24c.1,0,.3,0,.3-.33a12.6,12.6,0,0,0-.07-1.52c-.01-.06-.14-.25-.14-.29,0-.07.07-.08.1-.08.12,0,1.2.13,1.2.45,0,.11-.03.15-.19.27-.14.1-.14.26-.14.6,0,.81,0,.9.34.9h.68c.3,0,.35-.1.35-.42a10.474,10.474,0,0,0-.03-1.56c-.01-.04-.14-.26-.14-.3,0-.09.11-.11.18-.11.15,0,.79.24.93.27s.24.09.24.19c0,.06-.08.11-.25.19a.221.221,0,0,0-.08.2c0,.19.07.29.29.29h.47Zm-3.37,6.03c0,.09-.04.11-.15.15-.11.02-.12.06-.29.36a4.7,4.7,0,0,1-1.38,1.59c-.03,0-.02-.02.11-.25a5.091,5.091,0,0,0,.84-2.33c0-.08,0-.11.06-.11a1.5,1.5,0,0,1,.42.2c.1.07.4.28.4.38Zm-1.27-1.38c-.04-.06-.06-.06-.06-.08s.02-.02.04-.02c.06,0,.32.02.36.03.25.01.99.04,1.25.04.61,0,.68,0,.82-.19.21-.29.25-.33.33-.33a1.374,1.374,0,0,1,.73.67q0,.09-.12.12a3.217,3.217,0,0,1-.54.02h-.4c-.16,0-.34.02-.34.33,0,.4.06,2.17.06,2.53,0,.32-.14.63-.51.63-.21,0-.25-.07-.35-.33-.07-.17-.17-.23-.53-.38-.15-.07-.19-.09-.19-.12s.06-.04.07-.04c.08,0,.46.07.54.07.26,0,.26-.04.26-.47,0-.25-.03-1.46-.03-1.73,0-.32-.03-.46-.33-.46-.12,0-.65.04-.76.04-.05,0-.07-.02-.1-.07l-.21-.26Zm3.48,2.44c0,.27-.15.5-.37.5-.27,0-.29-.2-.32-.49a7.7,7.7,0,0,0-.37-1.15,1.2,1.2,0,0,1-.11-.26c0-.01,0-.02.02-.02a1.343,1.343,0,0,1,.44.25,1.719,1.719,0,0,1,.71,1.17Zm2.87-4.59a.38.38,0,0,1-.37.41c-.15,0-.18-.06-.44-.5a2.047,2.047,0,0,0-.41-.52.071.071,0,0,1-.03-.06c0-.06.04-.06.08-.06a2.957,2.957,0,0,1,.41.04c.15.02.77.15.77.68Z" fill="#3e3a39"/>
    <path id="パス_35020" data-name="パス 35020" d="M77.92,141.59c-.99,0-1.31.02-1.42.03-.04,0-.2.02-.24.02s-.07-.02-.1-.07l-.21-.26c-.05-.06-.06-.06-.06-.08s.02-.02.05-.02c.08,0,.43.03.5.03.55.03,1.02.04,1.55.04h2.25c.33,0,.33-.16.33-.49,0-.2,0-1.35-.01-1.41-.03-.24-.19-.24-.33-.24H78.91c-.98,0-1.31.02-1.42.03-.03,0-.2.02-.24.02s-.07-.02-.1-.07l-.21-.26s-.06-.06-.06-.08.02-.02.04-.02c.08,0,.43.03.5.03.55.03,1.02.04,1.55.04h1.26c.2,0,.34-.03.34-.33a12.216,12.216,0,0,0-.05-1.31c-.01-.08-.08-.42-.08-.5s.09-.12.24-.12.98.16.98.41c0,.06-.19.23-.23.27-.08.1-.09.19-.09.46,0,.12-.01.7-.01.81.01.26.12.3.37.3h1.1c.47,0,.53,0,.75-.26s.38-.46.46-.46c.16,0,1.1.62,1.1.82s-.18.19-.61.19H81.7c-.18,0-.33.01-.36.23-.01.07-.03,1.26-.03,1.48,0,.3.03.43.38.43h2.06c.51,0,.56,0,.71-.23.23-.36.32-.5.51-.5s1.08.62,1.08.82-.18.19-.61.19H81.78c-.08,0-.17,0-.17.1a7.944,7.944,0,0,0,2.9,2.81,5.361,5.361,0,0,0,1.57.67c.19.04.2.04.2.09,0,.01-.38.17-.46.2a1.486,1.486,0,0,0-.56.44c-.08.11-.08.12-.14.12-.4,0-2.45-1.62-3.5-3.77a1.967,1.967,0,0,0-.25-.44.057.057,0,0,0-.06.06v.42c0,.47.02,2.55.03,2.98,0,.15.03.82.03.96a.654.654,0,0,1-.62.67c-.28,0-.3-.28-.3-.43,0-.24.12-3.06.12-3.64,0-.07,0-.26-.1-.26-.07,0-.15.08-.2.15-1.56,2.06-3.7,3.4-4.38,3.4-.01,0-.02,0-.02-.03s.08-.08.17-.12a11.833,11.833,0,0,0,3.94-4.25c0-.12-.12-.12-.2-.12H77.94Z" fill="#3e3a39"/>
    <path id="パス_35021" data-name="パス 35021" d="M90.1,140.17a.472.472,0,0,1-.46.5c-.19,0-.23-.06-.5-.67a3.307,3.307,0,0,0-.64-.93c-.12-.1-.14-.11-.14-.15s.04-.04.06-.04a3.021,3.021,0,0,1,1.03.33,1.222,1.222,0,0,1,.65.95Zm.82-.4a.1.1,0,0,1,.03.06c0,.32-.65,3.26-.65,3.9a5.413,5.413,0,0,0,.15,1.1,5.661,5.661,0,0,1,.27,1.25.636.636,0,0,1-.59.7c-.43,0-.43-.49-.43-.67,0-.15.01-.78.01-.92,0-.86-.31-1.38-.86-1.51-.3-.08-.34-.09-.34-.12,0-.09.7-.2.82-.25.25-.1.38-.37.52-.7.12-.29.56-1.57.85-2.37a1.976,1.976,0,0,1,.21-.46Zm.07-1.99a.533.533,0,0,1-.46.53c-.22,0-.26-.07-.54-.69a2.924,2.924,0,0,0-.52-.88.3.3,0,0,1-.05-.07c0-.04.05-.04.07-.04a3.378,3.378,0,0,1,.64.2c.36.18.86.54.86.95Zm3.26,3.35c.26,0,.34-.12.34-.28,0-.14-.01-.68-.01-.73-.01-.25-.23-.24-.32-.24H93.14c-.99,0-1.32.02-1.43.02a1.748,1.748,0,0,1-.24.03c-.04,0-.06-.03-.1-.08l-.21-.26a.423.423,0,0,1-.05-.07.027.027,0,0,1,.03-.03c.12,0,.7.06.82.06.08,0,.75.02.91.02a.292.292,0,0,0,.33-.3c0-.86,0-.94-.32-.94-.12,0-.82.04-.91.04-.05,0-.07-.02-.1-.07l-.23-.26a.293.293,0,0,1-.04-.08c0-.02.01-.02.04-.02.19,0,1.05.07,1.23.07s.32-.09.32-.28a3.9,3.9,0,0,0-.06-.76c-.01-.06-.1-.28-.1-.33,0-.08.1-.08.12-.08.16,0,1.05.09,1.05.34,0,.08-.02.09-.16.21-.1.08-.11.17-.11.5,0,.18,0,.41.34.41H95.5a.3.3,0,0,0,.33-.32,5.936,5.936,0,0,0-.03-.87c0-.03-.03-.15-.03-.2,0-.1.11-.11.19-.11a4.311,4.311,0,0,1,.81.23.2.2,0,0,1,.11.18c0,.06-.2.21-.23.27a2.98,2.98,0,0,0-.05.53c0,.29.25.29.38.29.44,0,.47-.03.53-.09.08-.07.35-.43.43-.43a1.271,1.271,0,0,1,.67.66c0,.16-.21.16-.6.16h-1.1a.288.288,0,0,0-.33.33c0,.85,0,.94.32.94.45,0,.51,0,.67-.19.32-.38.35-.42.45-.42.08,0,1.06.6,1.06.74,0,.16-.23.16-.61.16H95.59c-.1,0-.35,0-.35.3,0,.89,0,.95.35.95h1.42a.5.5,0,0,0,.46-.21c.17-.28.2-.34.35-.34.23,0,.77.42.77.6,0,.07-.25.3-.28.35a.908.908,0,0,0-.07.42v2.01c0,.23.07,1.31.07,1.55a1.442,1.442,0,0,1-.36,1.15.953.953,0,0,1-.55.26c-.14,0-.17-.04-.5-.43a2.388,2.388,0,0,0-.5-.37c-.08-.05-.1-.06-.1-.09s.06-.03.08-.03c1.05,0,1.17,0,1.17-.35,0-.62.01-3.33.01-3.88,0-.32-.23-.32-.34-.32H95.56c-.26,0-.33.15-.33.29,0,.24,0,2.56.02,2.64.05.18.24.18.31.18h.19c.32,0,.32-.18.32-.58,0-.29.01-1.39-.02-1.58,0-.03-.04-.18-.04-.24s.03-.06.09-.06.95.18.95.35c0,.06-.19.25-.2.31a3.919,3.919,0,0,0-.06.78c0,.2.08,1.08.08,1.25,0,.72-.52.77-.55.77-.24,0-.25-.28-.25-.41a.272.272,0,0,0-.3-.29H94.16c-.28,0-.32.13-.34.26-.06.24-.16.5-.42.5s-.35-.26-.35-.61c0-.11.02-.61.02-.72,0-.33,0-1.64-.05-1.91,0-.03-.03-.16-.03-.21s.07-.07.15-.07.93.11.93.36c0,.07-.24.28-.26.34a3.833,3.833,0,0,0-.04.99c0,.76.04.77.5.77a.287.287,0,0,0,.32-.31c0-.35,0-2.57-.01-2.63a.308.308,0,0,0-.33-.18H92.82c-.23,0-.28.04-.33.1a4.018,4.018,0,0,0-.07,1.02c0,.58.02,3.13.02,3.65,0,.12-.01.7-.51.7-.08,0-.29-.03-.29-.34s.01-.63.02-.93c.07-1.54.07-1.75.07-3.71,0-.53,0-.59-.01-.71-.01-.07-.09-.38-.09-.45,0-.09.04-.11.14-.11a1.288,1.288,0,0,1,.7.33.849.849,0,0,0,.51.16h1.28Zm.01-2.81c-.32,0-.32.21-.32.47,0,.66,0,.78.32.78h1.26c.32,0,.32-.21.32-.42,0-.74,0-.83-.32-.83Z" fill="#3e3a39"/>
    <path id="パス_35022" data-name="パス 35022" d="M102.14,137.09a4.944,4.944,0,0,1-.55-.67.077.077,0,0,1,.08-.07,6.671,6.671,0,0,1,0,10.75.071.071,0,0,1-.08-.07,5.643,5.643,0,0,1,.55-.67,7.419,7.419,0,0,0,0-9.28Z" fill="#3e3a39"/>
    <path id="パス_35023" data-name="パス 35023" d="M108.66,138.35a1.176,1.176,0,0,1,1.17-1.19,1.2,1.2,0,0,1,1.21,1.19,1.217,1.217,0,0,1-1.21,1.19A1.182,1.182,0,0,1,108.66,138.35Zm0,6.83a1.176,1.176,0,0,1,1.17-1.19,1.2,1.2,0,0,1,1.21,1.19,1.217,1.217,0,0,1-1.21,1.19A1.182,1.182,0,0,1,108.66,145.18Z" fill="#3e3a39"/>
    <path id="パス_35036" data-name="パス 35036" d="M13.044-7.11c.07-1.583.158-4.169,1.724-5.893a1.809,1.809,0,0,1,1.284-.633c.475,0,.51.246.528.633.035,1,.616,1.231.967,1.231a.879.879,0,0,0,.9-.915c0-.844-.827-1.548-2.005-1.548-2.691,0-4.978,3.377-4.978,7.441,0,3.8,2.04,6.069,4.046,6.069,2.023,0,3.764-2.181,3.764-4.626,0-2.128-1.407-3.887-3.149-3.887a2.972,2.972,0,0,0-1.53.457A4.372,4.372,0,0,0,13.044-7.11Zm.018,1.055c.827-1.9,1.953-2.392,2.621-2.392,1.812,0,2.005,2.463,2.005,3.254,0,2.9-1.319,3.87-2.252,3.87a1.741,1.741,0,0,1-1.425-.95A8.4,8.4,0,0,1,13.062-6.054Z" transform="translate(103.227 147.094)" fill="#3e3a39"/>
    <path id="パス_35025" data-name="パス 35025" d="M129.89,146.37c-2.85,0-4.06-3.59-4.06-6.91s1.23-6.93,4.06-6.93c2.92.02,4.06,3.75,4.06,6.93S132.79,146.37,129.89,146.37Zm0-13.25c-2.4,0-2.44,5.42-2.44,6.34,0,.74,0,6.34,2.44,6.32,2.4,0,2.44-5.38,2.44-6.32C132.33,138.7,132.33,133.12,129.89,133.12Z" fill="#3e3a39"/>
    <path id="パス_35026" data-name="パス 35026" d="M141.34,146.37c-2.85,0-4.06-3.59-4.06-6.91s1.23-6.93,4.06-6.93c2.92.02,4.06,3.75,4.06,6.93S144.24,146.37,141.34,146.37Zm0-13.25c-2.4,0-2.44,5.42-2.44,6.34,0,.74,0,6.34,2.44,6.32,2.4,0,2.44-5.38,2.44-6.32C143.78,138.7,143.78,133.12,141.34,133.12Z" fill="#3e3a39"/>
    <path id="パス_35027" data-name="パス 35027" d="M152.19,140.16c-.27,0-.58.02-.6.5-.02.52-.02,2.6-.02,5.42,0,1.23-.83,1.3-.99,1.3-.54,0-.54-.25-.54-.49,0-.04.11-1.54.13-1.82.13-1.91.16-9.78.16-9.96,0-.49-.07-2.85-.07-3.38,0-.13,0-.22.09-.22a3.612,3.612,0,0,1,.98.33,1.813,1.813,0,0,0,.92.14h9.71c.58,0,.65-.05.85-.25.27-.25.38-.33.49-.33s1.44.85,1.44,1.1c0,.18-.09.23-.47.52-.29.22-.32.25-.32,2.18,0,1.48.18,8.94.18,10.61,0,1.28-1.37,1.46-1.46,1.46-.31,0-.34-.13-.42-.61s-.92-.78-1.44-.97c-.96-.34-1.06-.38-1.06-.49,0-.09.13-.09.22-.09.23,0,1.88.27,2.24.27.18,0,.4,0,.45-.2.05-.27.07-1.55.07-1.95,0-.36-.02-2.58-.05-2.73a.469.469,0,0,0-.54-.36h-9.93Zm3.66-.47c.18,0,.38-.02.47-.22.05-.14.07-3.81.07-4.24,0-.34-.02-2.42-.07-2.55-.11-.22-.27-.22-.47-.22h-3.7a.48.48,0,0,0-.47.22c-.05.13-.05,3.14-.05,3.57,0,.38,0,2.98.04,3.14.05.29.38.29.49.29h3.7Zm6.18,0c.63,0,.63-.13.63-1.25,0-.25-.05-5.45-.09-5.67-.07-.31-.31-.31-.6-.31h-3.61c-.23,0-.45,0-.54.2-.09.18-.09,2.89-.09,3.36s0,3.29.09,3.47c.09.2.29.2.54.2h3.66Z" fill="#3e3a39"/>
    <line id="線_7896" data-name="線 7896" x2="189.05" transform="translate(0 20)" fill="none" stroke="#3e3a39" stroke-miterlimit="10" stroke-width="0.28"/>
    <path id="パス_35028" data-name="パス 35028" d="M2.59,80.51c-.15,0-.28-.07-.45-.45A6.363,6.363,0,0,0,.6,77.99c-.2-.2-.23-.23-.23-.27s.07-.07.11-.07a5.538,5.538,0,0,1,1.31.49A2.374,2.374,0,0,1,3.1,79.77a1.046,1.046,0,0,1-.04.3.53.53,0,0,1-.47.45ZM.44,82.79a.221.221,0,0,1-.05-.1s.03-.03.04-.03c.24,0,1.38.08,1.65.08a.471.471,0,0,0,.41-.2c.38-.42.42-.46.47-.46.07,0,.87.47.87.72,0,.08-.37.3-.41.37a7.924,7.924,0,0,0-.04,1.65c0,1.42,0,1.73.35,2.19.64.84,1.83.99,4.51.99a20.607,20.607,0,0,0,3.6-.22c.15-.03.94-.23,1.11-.23.04,0,.07,0,.07.03a1.9,1.9,0,0,1-.24.28,2.2,2.2,0,0,0-.38.84c-.08.27-.27.3-1.76.3a31.174,31.174,0,0,1-4.86-.34,3.45,3.45,0,0,1-2.32-1.54c-.22-.41-.26-.49-.41-.49-.05,0-.12.1-.26.26a7.523,7.523,0,0,0-1,1.5c-.11.34-.15.49-.35.49-.23,0-.99-.89-.99-.99,0-.07.38-.19.45-.23.83-.43,1.57-.83,1.64-1.46,0-.03-.01-2.18-.01-2.59,0-.29-.01-.5-.41-.5-.03,0-.69.01-1,.04-.05,0-.24.03-.3.03-.04,0-.07-.03-.11-.08l-.27-.31ZM11,77.72a.747.747,0,0,0,.45-.11c.05-.05.3-.31.37-.31.12,0,1.14.8,1.14,1.1a.311.311,0,0,1-.28.29c-.04,0-.26-.03-.31-.03a1.118,1.118,0,0,0-.65.23c-.47.28-.53.31-.64.31-.04,0-.07-.01-.07-.07,0-.1.31-.75.31-.89s-.14-.15-.28-.15H5.47c-.22,0-.23.04-.24.3-.04.66-.53,1.41-1.03,1.41a.555.555,0,0,1-.52-.54c0-.23.08-.31.46-.69a1.378,1.378,0,0,0,.45-1.23c0-.03,0-.08.04-.08.11,0,.33.22.38.28.14.18.15.19.41.19h5.6ZM6.53,84.44c-.19,0-.3.01-.41.16-.14.19-.26.35-.54.35-.37,0-.45-.18-.45-.41,0-.1.04-.57.04-.68.03-.41.03-.58.03-2.28,0-.11-.07-.62-.07-.73,0-.04.01-.2.15-.2a3.643,3.643,0,0,1,.65.28,2.114,2.114,0,0,0,.65.14h.75c.19,0,.3-.04.3-.29,0-.49,0-.57-.3-.57H6.88c-.27,0-1.06,0-1.45.03-.04,0-.2.04-.24.04s-.07-.03-.11-.09l-.22-.31s-.05-.04-.05-.08.01-.04.04-.04c.07,0,.42.04.5.05.31.01.94.04,1.59.04h.34c.24,0,.33-.05.33-.3,0-.08-.01-.38-.01-.49,0-.09-.09-.5-.09-.6s.09-.1.18-.1c.05,0,1.17.1,1.17.42,0,.07-.24.34-.27.41a.88.88,0,0,0-.07.35c0,.3.16.3.3.3h.54a2.551,2.551,0,0,0,.57-.04c.11-.07.49-.69.64-.69.08,0,1.08.73,1.08.91s-.24.19-.62.19H8.83c-.33,0-.33.11-.33.49,0,.23.01.37.28.37H9.85a1.076,1.076,0,0,0,.38-.05,1.721,1.721,0,0,1,.38-.2c.11,0,.83.39.83.6a2.744,2.744,0,0,1-.27.35,2.7,2.7,0,0,0-.12,1c0,.22.04,1.25.04,1.48a.648.648,0,0,1-.66.68c-.28,0-.3-.08-.38-.34-.04-.15-.23-.15-.31-.15H8.91c-.34,0-.39.18-.39.42,0,.53,0,.69.42.69h1.57c.53,0,.58,0,.77-.26.3-.41.39-.5.52-.5s1.11.73,1.11.93-.24.19-.62.19H8.96c-.3,0-.39.12-.39.39,0,.12.03.81.03.96,0,.18-.01.64-.57.64a.385.385,0,0,1-.42-.43c0-.18.04-.99.04-1.18,0-.38-.24-.38-.39-.38H6.03c-.35,0-.91,0-1.37.03-.04,0-.33.04-.34.04-.04,0-.07-.03-.11-.09l-.22-.31a.558.558,0,0,1-.05-.08c0-.03.01-.04.04-.04.07,0,.35.04.42.04.76.05,1.71.05,2.41.05h.46c.39,0,.39-.23.39-.55s0-.56-.39-.56H6.56Zm.71-1.85c.42,0,.42-.2.42-.53,0-.45,0-.62-.42-.62H6.43c-.42,0-.42.2-.42.53,0,.45,0,.62.42.62Zm0,1.49c.41,0,.41-.18.41-.66,0-.24,0-.47-.41-.47H6.43c-.42,0-.42.2-.42.57s0,.57.42.57h.81Zm1.64-2.65c-.41,0-.41.22-.41.61,0,.31,0,.54.41.54h.94c.39,0,.41-.18.41-.58,0-.37,0-.57-.41-.57Zm.02,1.51c-.42,0-.42.2-.42.62,0,.29,0,.52.39.52h.92c.41,0,.41-.19.41-.64,0-.29,0-.5-.41-.5Z" fill="#3e3a39"/>
    <path id="パス_35029" data-name="パス 35029" d="M21.06,87.91c0,.15-.07.16-.66.24-.04,0-2.56.75-3.06.84a10.731,10.731,0,0,1-1.44.2c-.03,0-.15,0-.15-.04s1.35-.51,1.61-.62a8.152,8.152,0,0,0,2.29-1.22c.04-.04.16-.31.22-.31.03,0,.56.35.58.37.54.37.61.41.61.54Zm-1.55-9.02c0,.08-.14.22-.2.27a.43.43,0,0,0-.15.38c0,.07.09,1.34.09,1.6,0,.23,0,.75-.5.75-.16,0-.35-.03-.39-.2-.03-.13-.03-1.1-.03-1.34-.01-.87-.01-.96-.2-.96a3.84,3.84,0,0,0-.65.32,9.208,9.208,0,0,1-1.64.73.032.032,0,0,1-.03-.03c0-.05.15-.16.34-.3a9.221,9.221,0,0,0,3.01-2.85c.04-.08.15-.28.18-.28.01,0,1.1.58,1.1.83,0,.12-.11.15-.23.18a1.8,1.8,0,0,0-.88.61c0,.05.19.24.19.3Zm4.75,3.6c.22,0,.31,0,.43-.11.19-.19.24-.23.37-.23s.95.5.95.65c0,.07-.34.31-.37.41v.26c0,.42-.04,2.49-.04,2.97,0,.39,0,.88-.57.88a.419.419,0,0,1-.37-.19c-.15-.18-.2-.22-.39-.22H19.11c-.24,0-.26.04-.42.3a.65.65,0,0,1-.54.26c-.33,0-.33-.28-.33-.39,0-.31.05-1.84.05-2.18,0-.28-.03-1.64-.03-1.95,0-.09-.07-.55-.07-.65a.174.174,0,0,1,.18-.19,2.212,2.212,0,0,1,.7.29.744.744,0,0,0,.46.11h5.14Zm-5.13,1.68c-.3,0-.43.03-.43.49s.14.5.43.5h5.14c.33,0,.42-.05.42-.5s-.09-.49-.42-.49Zm5.17-.35c.22,0,.42-.03.42-.37,0-.47,0-.6-.42-.6H19.12c-.26,0-.42.04-.42.37,0,.46,0,.6.42.6Zm-.02,2.74c.38,0,.38-.15.38-.53s0-.52-.38-.52H19.13c-.37,0-.38.15-.38.43,0,.5,0,.61.38.61h5.15Zm-1.33-4.92c-.33,0-1.23,0-1.71.04-.04,0-.24.03-.28.03s-.07-.03-.12-.08l-.26-.31q-.07-.07-.07-.1a.219.219,0,0,1,.05-.03c.07,0,.41.04.49.04.23.01,1.3.05,1.44.05.3,0,.43-.04.43-.42,0-.92,0-1.03-.42-1.03h-.37c-.33,0-1.23,0-1.71.04-.04,0-.24.03-.28.03s-.08-.03-.12-.09l-.26-.3a.434.434,0,0,1-.07-.09s.03-.03.05-.03c.08,0,.5.04.6.04.39.01,1.08.05,1.86.05h.3c.27,0,.38-.08.38-.42a5.96,5.96,0,0,0-.04-.75c-.04-.08-.15-.09-.37-.09-.14,0-.83.03-.99.03-.04,0-.31,0-.31-.07,0-.04.12-.09.26-.12a22.569,22.569,0,0,0,2.76-.8c.07-.03.34-.26.41-.26.01,0,1.03.76,1.03.89,0,.18-1.4.2-1.65.26-.23.05-.23.12-.23.87,0,.31.05.46.38.46h1.15c.56,0,.62,0,.72-.09s.53-.68.68-.68a3.652,3.652,0,0,1,1.11.93c0,.19-.27.19-.72.19H24.14c-.41,0-.41.03-.41,1.03,0,.31.08.42.35.42h.43c.57,0,.62,0,.75-.11.07-.07.41-.5.52-.5s.96.61.96.79-.28.18-.73.18H22.95Zm3.21,7.79c-.22,0-.27-.04-1.26-.74a19.374,19.374,0,0,0-2.25-1.4c-.24-.12-.27-.13-.27-.19,0-.04.05-.04.08-.04a12.167,12.167,0,0,1,1.91.52c1.61.55,2.09.87,2.15,1.38a.413.413,0,0,1-.37.47Z" fill="#3e3a39"/>
    <path id="パス_35030" data-name="パス 35030" d="M35.27,88.82a6.016,6.016,0,0,1,.66.8.088.088,0,0,1-.09.08,8,8,0,0,1,0-12.9.081.081,0,0,1,.09.08,6.915,6.915,0,0,1-.66.8,8.93,8.93,0,0,0,0,11.14Z" fill="#3e3a39"/>
    <path id="パス_35031" data-name="パス 35031" d="M45.16,83.8a.582.582,0,0,0,.34-.07c.05-.04.28-.34.37-.34a1.047,1.047,0,0,1,.47.18c.46.3.73.47.73.65,0,.12-.07.16-.23.24-.26.14-.28.33-.28.69,0,.27.03,1.57.03,1.87,0,.22.07,1.29.07,1.53a.827.827,0,0,1-.83.84c-.37,0-.37-.28-.37-.42,0-.22.11-1.27.12-1.52.01-.58.01-1.44.01-2.71,0-.34,0-.58-.41-.58H41.41c-.37,0-.42.11-.46.43-.34,3.04-1.44,4.02-2.07,4.58-.12.11-.28.18-.28.14,0-.07.2-.31.23-.38.94-1.57,1.41-3.14,1.41-7.17a28,28,0,0,0-.2-3.81,3.216,3.216,0,0,1-.12-.37c0-.14.14-.15.22-.15.27,0,1.3.24,1.3.46,0,.05-.07.12-.08.15a.41.41,0,0,0-.15.27,12.169,12.169,0,0,0-.04,2.09c0,.26.05.42.41.42h2.48c.24,0,.34-.11.37-.24.03-.07.03-1.46.03-1.67,0-.12,0-.91-.04-1.25-.01-.05-.11-.37-.11-.43,0-.11.07-.12.18-.12.26,0,1.33.33,1.33.53,0,.07-.28.3-.31.37a11.353,11.353,0,0,0-.07,2.3c0,.34.01.52.42.52h1.73a2.491,2.491,0,0,0,.65-.04c.14-.07.6-.68.76-.68.08,0,1.26.72,1.26.89,0,.19-.27.19-.72.19H41.57c-.12,0-.31.01-.37.18-.05.1-.12,1.94-.12,2.1,0,.32.3.32.41.32h3.69Z" fill="#3e3a39"/>
    <path id="パス_35032" data-name="パス 35032" d="M52.78,82.73a.351.351,0,0,1-.05-.08s.03-.04.04-.04c.23,0,1.3.08,1.54.08a.481.481,0,0,0,.47-.2c.35-.38.39-.43.45-.43s.87.47.87.72a.2.2,0,0,1-.09.15c-.14.1-.33.23-.34.3s-.01,1.48-.01,1.69c0,1.69.04,1.8.14,2.02.35.84,1.26,1.11,4.35,1.11a38.088,38.088,0,0,0,4.88-.38c.03,0,.3-.04.3-.03,0,.05-.05.12-.19.26a4.741,4.741,0,0,0-.38.66,2.619,2.619,0,0,1-.15.39c-.01.03-1.4.03-1.54.03-1.27,0-3.39-.03-4.62-.18a3.217,3.217,0,0,1-2.67-1.29c-.07-.12-.33-.92-.49-.92a8.376,8.376,0,0,0-1.49,1.9c-.04.24-.09.47-.27.47-.2,0-.81-1.08-.81-1.1,0-.11.15-.15.23-.18.2-.07,1.6-.74,1.77-1.21.05-.15.05-2.11.05-2.43,0-.88,0-.99-.47-.99-.18,0-.96.07-1.12.07-.04,0-.07-.03-.12-.09l-.26-.31Zm2.38-2.33q-.18,0-.62-.85a6.739,6.739,0,0,0-1.08-1.52c-.04-.04-.26-.2-.26-.26s.08-.05.09-.05c.76,0,2.52,1.04,2.34,2.17-.04.26-.26.52-.47.52Zm3.54,6.33c-.18,0-.23.01-.26.26-.04.39-.52.49-.73.49-.14,0-.28-.01-.28-.31,0-.15.08-.8.09-.94.05-.61.08-1.95.08-3.1,0-.38-.05-2.33-.05-2.4,0-.04,0-.12.05-.12a2.9,2.9,0,0,1,.87.38.713.713,0,0,0,.35.11c.24,0,.33,0,.41-.08a3.01,3.01,0,0,0,.27-1.07c0-.24-.18-.24-.31-.24h-.47c-1.19,0-1.59.03-1.72.03a2.7,2.7,0,0,1-.28.04c-.04,0-.07-.04-.12-.1l-.26-.31c-.05-.05-.05-.07-.05-.08,0-.03.01-.04.04-.04.09,0,.52.05.6.05.66.03,1.23.04,1.86.04h1.95c.24,0,.53,0,1.07-1.79.01-.05.07-.33.08-.38a.134.134,0,0,1,.14-.12c.15,0,1.1.56,1.1.71,0,.07-.34.14-.39.16a5.622,5.622,0,0,0-1.29,1.34.117.117,0,0,0,.12.08h.79c.69,0,.79,0,1.19-.6.04-.07.14-.19.23-.19a3.493,3.493,0,0,1,1.14.96c0,.19-.27.19-.73.19H61.18c-.42,0-.47.04-.8.46-.09.11-.65.8-.65.85,0,.08.11.08.15.08h1.88a.468.468,0,0,0,.47-.19c.22-.26.24-.28.31-.28a2.29,2.29,0,0,1,.96.58c0,.08-.31.31-.34.37-.05.09-.05.2-.05,1.19,0,.64.14,3.79.14,4.08,0,.38-.28.54-.64.54-.33,0-.35-.15-.35-.33,0-.23,0-.32-.19-.32H58.72Zm.27-7.6c-.27,0-.34-.12-.6-.65a7.334,7.334,0,0,0-.65-.91c-.04-.04-.18-.16-.18-.2s.09-.03.11-.03c.27,0,2.05.57,1.76,1.52a.441.441,0,0,1-.45.27Zm2.91,5.49c.41,0,.41-.18.41-.58,0-.76-.01-.88-.42-.88H58.81c-.41,0-.41.18-.41.61,0,.75,0,.85.41.85h3.08Zm-.04-1.83c.41,0,.41-.11.41-.79,0-.37,0-.54-.41-.54H58.83c-.42,0-.42.16-.42.56,0,.68,0,.77.42.77h3.01Zm.06,3.59c.41,0,.41-.23.41-.69,0-.49,0-.7-.41-.7H58.84c-.37,0-.41.2-.41.39,0,.91,0,1,.42,1H61.9Z" fill="#3e3a39"/>
    <path id="パス_35033" data-name="パス 35033" d="M68.45,77.68a6.016,6.016,0,0,1-.66-.8.088.088,0,0,1,.09-.08,8,8,0,0,1,0,12.9.081.081,0,0,1-.09-.08,6.914,6.914,0,0,1,.66-.8,8.93,8.93,0,0,0,0-11.14Z" fill="#3e3a39"/>
    <line id="線_7897" data-name="線 7897" x2="189.05" transform="translate(0 97.04)" fill="none" stroke="#3e3a39" stroke-miterlimit="10" stroke-width="0.28"/>
    <path id="パス_35034" data-name="パス 35034" d="M-45.248-13.133a2.447,2.447,0,0,1-.114.759A24.263,24.263,0,0,1-48.075-7.46c-.3.019-1.176.038-1.764.038a6.729,6.729,0,0,1-1.347-.133l.417,1.613c.038.114.152.342.342.342.171,0,.36-.36.474-.55.247-.057,1.2-.266,2.391-.531-.019,3.206-.038,5.066-.057,5.673,0,.266-.076,1.518-.076,1.821,0,.323.114.569.512.569a.857.857,0,0,0,.911-.816c0-.342-.057-2.049-.076-2.428,0-.36-.057-4.25-.057-5.066l1.727-.379c.114.285.19.55.209.607.171.645.36.873.816.873a.719.719,0,0,0,.721-.778c0-.873-1.138-1.726-2.618-2.3l-.095.114a5.292,5.292,0,0,1,.778,1.081c-1.006.133-2.6.209-2.694.209C-47.05-8.03-46.424-8.731-45.7-9.6c.816-1.006,1.347-1.632,1.594-1.935.588-.114.8-.228.8-.4a.384.384,0,0,0-.247-.342Zm3.776,1.973A21.83,21.83,0,0,0-40.22-14.1c.455-.209.74-.342.74-.531a.31.31,0,0,0-.209-.266l-2.049-.873a4.4,4.4,0,0,1,.095.721,20.185,20.185,0,0,1-2.049,6.982l.114.076A10.774,10.774,0,0,0-41.719-10.7H-36.6c0,.323.019,1.67.019,1.992,0,1.954-.095,8.215-2.011,8.215a19.059,19.059,0,0,1-2.523-.379l-.019.114A3.308,3.308,0,0,1-39.4,1.381,3.315,3.315,0,0,0-36.463-.478c1.006-1.935,1.043-4.288,1.157-9.543.342-.247.7-.512.7-.645a.418.418,0,0,0-.171-.285l-.911-.778c-.057-.057-.19-.171-.266-.171-.057,0-.171.114-.266.209l-.569.531Zm-8.879-.987a5.173,5.173,0,0,1,1.271,1.8c.417.93.531,1.157.968,1.157a.85.85,0,0,0,.778-.911,1.989,1.989,0,0,0-1.119-1.5c1.29-1.48,1.423-1.651,2.315-2.789.436-.076.721-.133.721-.417a.356.356,0,0,0-.228-.285l-1.8-.892a10.421,10.421,0,0,1-1.252,4.25,9.122,9.122,0,0,0-1.632-.531ZM-50.958.261a11.7,11.7,0,0,0,2.447-4.345c.493-.19.607-.285.607-.417,0-.095-.133-.209-.266-.266l-1.556-.569A15.4,15.4,0,0,1-51.053.2Zm5.047-5.217a5.489,5.489,0,0,1,1.043,2.087c.247.873.342,1.252.854,1.252a.866.866,0,0,0,.835-.93c0-1.29-1.9-2.144-2.675-2.485Zm3.87-2.466a4.857,4.857,0,0,1,.949,1.632c.417,1.309.569,1.518,1.062,1.518.531,0,.759-.436.759-.892,0-1.025-.892-1.632-2.694-2.372Zm19.333,3.51-.569-.209c-.569,1.575-1.2,2.6-3.851,2.6h-2.618a16.469,16.469,0,0,1,4.1-4.762c1.708-1.461,2.808-2.5,2.808-4.421a3.462,3.462,0,0,0-3.795-3.529,3.8,3.8,0,0,0-4.079,3.4,1.2,1.2,0,0,0,1.081,1.328,1.053,1.053,0,0,0,1.025-1.062,1.635,1.635,0,0,0-.4-.949,1.048,1.048,0,0,1-.19-.588c0-.683.8-1.48,2.125-1.48a2.438,2.438,0,0,1,2.523,2.6c0,1.9-.949,2.979-3.738,6.2a12.851,12.851,0,0,0-2.789,4.25v.512h7.456Zm8.044-3.927c.816-.607,2.372-1.783,2.372-3.4a3.186,3.186,0,0,0-3.472-3,3.479,3.479,0,0,0-3.795,3.4c0,2.068,1.821,3.13,2.827,3.719-1.745,1.025-3.377,1.992-3.377,4.041,0,2.163,1.935,3.415,4.1,3.415a4.227,4.227,0,0,0,4.478-4.174C-11.533-5.791-12.88-6.739-14.664-7.84Zm-1.5,1.025c1.385.778,3.263,1.84,3.263,3.643A2.954,2.954,0,0,1-15.783-.308a2.731,2.731,0,0,1-2.732-2.827C-18.515-5.013-17.016-6.17-16.163-6.815Zm.949-1.347c-1.973-1.176-3.055-1.84-3.055-3.168a2.188,2.188,0,0,1,2.239-2.258,2.394,2.394,0,0,1,2.353,2.561A3.61,3.61,0,0,1-15.214-8.162Zm23.165.285L7.7-8.162A7.958,7.958,0,0,1,3.569-6.626C2.7-6.626,2.354-6.8.249-7.783A7.511,7.511,0,0,0-3.167-8.807,7.139,7.139,0,0,0-8.1-6.588l.247.285A7.809,7.809,0,0,1-3.717-7.821c.835,0,.892.038,3.643,1.29a7.314,7.314,0,0,0,3.111.873A7.108,7.108,0,0,0,7.951-7.878ZM13.169-6.55c.076-1.708.171-4.5,1.859-6.356a1.952,1.952,0,0,1,1.385-.683c.512,0,.55.266.569.683.038,1.081.664,1.328,1.043,1.328a.949.949,0,0,0,.968-.987c0-.911-.892-1.67-2.163-1.67-2.9,0-5.369,3.643-5.369,8.025,0,4.1,2.2,6.546,4.364,6.546,2.182,0,4.06-2.353,4.06-4.99,0-2.3-1.518-4.193-3.4-4.193a3.206,3.206,0,0,0-1.651.493A4.715,4.715,0,0,0,13.169-6.55Zm.019,1.138c.892-2.049,2.106-2.58,2.827-2.58,1.954,0,2.163,2.656,2.163,3.51,0,3.13-1.423,4.174-2.428,4.174a1.878,1.878,0,0,1-1.537-1.025A9.057,9.057,0,0,1,13.188-5.411ZM30.946-6.948c0-5.179-2.315-7.285-4.269-7.285-2.542,0-4.269,3.074-4.269,7.115a11.8,11.8,0,0,0,1.157,5.407A3.841,3.841,0,0,0,26.677.337C28.992.337,30.946-2.3,30.946-6.948Zm-4.269-6.64c1.518,0,2.561,2.315,2.561,6.64a17.568,17.568,0,0,1-.455,4.174c-.209.721-.8,2.466-2.106,2.466-1.556,0-2.561-2.41-2.561-6.64a17.169,17.169,0,0,1,.436-4.117C24.742-11.729,25.33-13.588,26.677-13.588ZM51.911-8.637l-.019-.19a8.862,8.862,0,0,1-6.963-5.085c.342-.057,1.214-.209,1.214-.588a.336.336,0,0,0-.152-.285l-.7-.683c-.133-.114-.209-.209-.323-.209-.095,0-.171.038-.342.209l-.607.607h-.949c-.379,0-1.214-.019-2.068-.095l.247.664a8.858,8.858,0,0,1,1.594-.114H44.36c1.423,4.288,3.681,6.337,5.711,7.21A3.119,3.119,0,0,1,51.911-8.637ZM40.527-13.551c0-.133-.152-.247-.247-.3l-1.632-1.1a6.277,6.277,0,0,1-.3,1.214A24.658,24.658,0,0,1,33.754-6.8l.095.133a16.386,16.386,0,0,0,5.881-6.451C40.034-13.19,40.527-13.323,40.527-13.551Zm6.678,5.787a.5.5,0,0,0-.171-.3L46.276-8.9c-.076-.076-.171-.171-.266-.171a.562.562,0,0,0-.342.209l-.512.455H39.787c-.569,0-1.727-.019-2.9-.114l.36.759a12,12,0,0,1,2.239-.19h.55c-.19,4.421-2.144,7.285-6,9.069l.038.152c5.976-1.1,7.248-6.242,7.361-9.221H45.27a38.591,38.591,0,0,1-.285,5.464C44.7-.763,44.341-.554,43.43-.554a11.846,11.846,0,0,1-2.2-.323l-.019.133a2.722,2.722,0,0,1,1.423,2.087c3.415-.3,3.795-1.689,3.984-8.519C47.149-7.555,47.206-7.593,47.206-7.764Z" transform="translate(52 45.98)" fill="#3e3a39"/>
  </g>
</svg>
