<?xml version="1.0" encoding="UTF-8"?>
<svg id="_レイヤー_2" data-name="レイヤー 2" xmlns="http://www.w3.org/2000/svg" viewBox="0 0 598.67 153.39">
  <defs>
    <style>
      .cls-1, .cls-2 {
        letter-spacing: .02em;
      }

      .cls-1, .cls-3, .cls-4, .cls-5, .cls-6, .cls-7, .cls-8, .cls-9, .cls-10, .cls-11 {
        font-size: 19.02px;
      }

      .cls-3 {
        letter-spacing: .02em;
      }

      .cls-4 {
        letter-spacing: .02em;
      }

      .cls-12, .cls-13 {
        letter-spacing: .02em;
      }

      .cls-14, .cls-6 {
        letter-spacing: .03em;
      }

      .cls-15, .cls-16 {
        letter-spacing: .03em;
      }

      .cls-5 {
        letter-spacing: .02em;
      }

      .cls-17, .cls-18, .cls-16, .cls-19, .cls-13 {
        font-size: 13px;
      }

      .cls-17, .cls-20 {
        letter-spacing: -.47em;
      }

      .cls-21 {
        font-size: 32.82px;
      }

      .cls-18, .cls-8, .cls-22 {
        fill: #3e3a39;
        font-family: YuMinPr6N-Regular-83pv-RKSJ-H, 'Yu Mincho Pr6N';
      }

      .cls-23 {
        fill: none;
        stroke: #3e3a39;
        stroke-miterlimit: 10;
        stroke-width: .26px;
      }

      .cls-9, .cls-24 {
        letter-spacing: .05em;
      }

      .cls-10 {
        letter-spacing: .05em;
      }

      .cls-25 {
        letter-spacing: -.5em;
      }

      .cls-25, .cls-26 {
        font-size: 11.27px;
      }

      .cls-11 {
        letter-spacing: .05em;
      }

      .cls-19 {
        letter-spacing: .02em;
      }
    </style>
  </defs>
  <g id="_レイヤー_1-2" data-name="レイヤー 1">
    <text class="cls-22" transform="translate(.94 27.62)"><tspan class="cls-6" x="0" y="0">銀</tspan><tspan class="cls-1" x="19.49" y="0">座</tspan><tspan class="cls-9" x="38.97" y="0">へ</tspan><tspan class="cls-17" x="58.88" y="-1.29" xml:space="preserve"> （</tspan><tspan class="cls-16" x="62.91" y="-1.29">「銀座</tspan><tspan class="cls-17" x="102.88" y="-1.29">」</tspan><tspan class="cls-19" x="109.71" y="-1.29">出入口</tspan><tspan class="cls-17" x="149.68" y="-1.29">）</tspan></text>
    <text class="cls-22" transform="translate(197.87 28.88)"><tspan class="cls-21" x="0" y="0">8</tspan><tspan class="cls-7" x="17.79" y="-1.72">分</tspan><tspan class="cls-26" x="31.17" y="-1.85">（約7.1km</tspan><tspan class="cls-25" x="84.29" y="-1.85">）</tspan></text>
    <line class="cls-23" y1="36.54" x2="287.8" y2="36.54"/>
    <text class="cls-22" transform="translate(.67 80.75)"><tspan class="cls-11" x="0" y="0">お</tspan><tspan class="cls-5" x="20.01" y="0">台</tspan><tspan class="cls-3" x="39.5" y="0">場</tspan><tspan class="cls-9" x="58.97" y="0">へ</tspan><tspan class="cls-17" x="78.88" y="-1.29" xml:space="preserve"> （</tspan><tspan class="cls-16" x="82.91" y="-1.29">「台場</tspan><tspan class="cls-17" x="122.89" y="-1.29">」</tspan><tspan class="cls-19" x="129.71" y="-1.29">出入口</tspan><tspan class="cls-17" x="169.69" y="-1.29">）</tspan></text>
    <text class="cls-22" transform="translate(173.98 82.01)"><tspan class="cls-21" x="0" y="0">16</tspan><tspan class="cls-7" x="35.58" y="-1.72">分</tspan><tspan class="cls-26" x="48.96" y="-1.85">（約12.7km</tspan><tspan class="cls-25" x="108.19" y="-1.85">）</tspan></text>
    <line class="cls-23" y1="89.66" x2="287.8" y2="89.66"/>
    <text class="cls-22" transform="translate(311.8 27.62)"><tspan class="cls-6" x="0" y="0">新</tspan><tspan class="cls-4" x="19.49" y="0">宿</tspan><tspan class="cls-10" x="38.97" y="0">へ</tspan><tspan class="cls-17" x="58.88" y="-1.29" xml:space="preserve"> （</tspan><tspan class="cls-13" x="62.91" y="-1.29">「新宿</tspan><tspan class="cls-17" x="102.88" y="-1.29">」</tspan><tspan class="cls-16" x="109.71" y="-1.29">出入口</tspan><tspan class="cls-17" x="149.68" y="-1.29">）</tspan></text>
    <text class="cls-18" transform="translate(305.3 82.12)"><tspan class="cls-20" x="0" y="0">（</tspan><tspan class="cls-15" x="6.83" y="0">「空港中央</tspan><tspan class="cls-20" x="73.45" y="0">」</tspan><tspan class="cls-12" x="80.28" y="0">出入口</tspan><tspan class="cls-20" x="120.25" y="0">）</tspan></text>
    <text class="cls-22" transform="translate(484.84 28.88)"><tspan class="cls-21" x="0" y="0">18</tspan><tspan class="cls-7" x="35.58" y="-1.72">分</tspan><tspan class="cls-26" x="48.96" y="-1.85">（約14.8km</tspan><tspan class="cls-25" x="108.19" y="-1.85">）</tspan></text>
    <line class="cls-23" x1="310.87" y1="36.54" x2="598.67" y2="36.54"/>
    <text class="cls-22" transform="translate(.94 133.87)"><tspan class="cls-6" x="0" y="0">浦</tspan><tspan class="cls-1" x="19.49" y="0">安</tspan><tspan class="cls-9" x="38.97" y="0">へ</tspan><tspan class="cls-17" x="58.88" y="-1.29" xml:space="preserve"> （</tspan><tspan class="cls-16" x="62.91" y="-1.29">「浦安</tspan><tspan class="cls-17" x="102.88" y="-1.29">」</tspan><tspan class="cls-19" x="109.71" y="-1.29">出入口</tspan><tspan class="cls-17" x="149.68" y="-1.29">）</tspan></text>
    <text class="cls-22" transform="translate(173.98 135.13)"><tspan class="cls-21" x="0" y="0">17</tspan><tspan class="cls-7" x="35.58" y="-1.72">分</tspan><tspan class="cls-26" x="48.96" y="-1.85">（約17.3km</tspan><tspan class="cls-25" x="108.19" y="-1.85">）</tspan></text>
    <line class="cls-23" y1="142.79" x2="287.8" y2="142.79"/>
    <text class="cls-8" transform="translate(311.8 63.75)"><tspan class="cls-14" x="0" y="0">羽田空</tspan><tspan class="cls-2" x="58.48" y="0">港</tspan><tspan class="cls-24" x="77.95" y="0">へ</tspan></text>
    <text class="cls-22" transform="translate(484.84 82.01)"><tspan class="cls-21" x="0" y="0">23</tspan><tspan class="cls-7" x="35.58" y="-1.72">分</tspan><tspan class="cls-26" x="48.96" y="-1.85">（約22.9km</tspan><tspan class="cls-25" x="108.19" y="-1.85">）</tspan></text>
    <line class="cls-23" x1="310.87" y1="89.66" x2="598.67" y2="89.66"/>
  </g>
</svg>