<?xml version="1.0" encoding="UTF-8"?><svg id="_レイヤー_2" xmlns="http://www.w3.org/2000/svg" viewBox="0 0 299.29 47.11"><defs><style>.cls-1{fill:#3e3a39;stroke-width:0px;}</style></defs><g id="_レイヤー_1-2"><path class="cls-1" d="M3.72,38.19c.1,0,.25,0,.25.17,0,.16-.14.16-.3.16-.13,0-.66,0-.74.52-.03.17-.03,3.22-.03,3.79,0,.25.02,1.47.02,1.75,0,.6-.01,1.39-.61,1.99-.37.37-.86.55-1.34.55-.54,0-.97-.24-.97-.72,0-.25.13-.58.59-.58.37,0,.43.16.57.54.07.18.17.24.36.24.46,0,.53-.36.57-.6.04-.3.04-5.17.04-5.93,0-1.41,0-1.55-1.05-1.55-.04,0-.2,0-.2-.16,0-.17.15-.17.25-.17h2.59Z"/><path class="cls-1" d="M8.11,38.19c.48,0,2.76.05,2.76,1.73,0,1.02-.77,1.48-1.33,1.75-.35.17-.39.19-.39.3,0,.24.84,2.01,1.04,2.39.14.27.41.8,1.18.8.1,0,.3,0,.3.16,0,.14-.2.16-.25.16h-1.25c-.1,0-.3,0-.47-.29-.06-.1-.77-1.65-.88-1.9-.55-1.21-.62-1.37-.97-1.37h-.55c-.07,0-.2.04-.23.12-.04.1-.04,1.42-.04,1.65,0,1.21,0,1.47.92,1.47.07,0,.21,0,.21.16s-.18.16-.29.16h-2.47c-.1,0-.25-.02-.25-.16,0-.16.14-.16.28-.16.69,0,.79-.32.82-.69.02-.34.02-3.09.02-3.56,0-.37,0-1.77-.08-2.02-.13-.37-.56-.37-.79-.37-.06,0-.27,0-.27-.18,0-.15.18-.15.3-.15h2.68ZM7.75,38.52c-.72,0-.72.45-.72,1.48,0,1.57,0,1.6.27,1.6h.81c.98,0,1.81-.54,1.81-1.58,0-.7-.38-1.5-1.68-1.5h-.49Z"/><path class="cls-1" d="M14,43.38c-.28.6-.69,1.46-.98,1.78-.25.29-.28.29-.33.29-.01,0-.02,0-.02-.02s.25-.61.29-.73c.07-.23.39-1.16.46-1.67.03-.17.03-.19.08-.19.03,0,.29.08.44.14.17.06.23.1.2.19-.02.04-.12.18-.14.21ZM14.66,41.67c.28,0,.63,0,.9-.01.08,0,.15,0,.15-.07,0-.14-.18-.46-.2-.5-.02-.03-.1-.17-.1-.19,0-.03.03-.06.06-.06.12,0,1.01.56,1.01,1.13,0,.36-.26.48-.31.48-.15,0-.26-.33-.28-.37-.04-.11-.07-.19-.17-.19-.03,0-.48.07-.54.08-.15.03-.16.03-.16,1.17,0,.38.06,2.22.06,2.64,0,.24-.23.4-.44.4-.28,0-.28-.22-.28-.36,0-.46.08-2.76.08-3.28,0-.37-.01-.42-.21-.42-.14,0-.62.06-.81.12-.03,0-.2.12-.24.12-.15,0-.26-.69-.26-.7,0-.08.07-.09.12-.09s.32.05.38.05c.07,0,.48.03.55.03.16,0,.21-.03.28-.17.24-.45.82-1.68,1.09-2.67.06-.22.07-.25.12-.25.06,0,.8.45.8.62,0,.1-.07.13-.12.15-.2.08-.22.09-.28.17-.16.19-.78,1.23-.93,1.46-.15.23-.38.58-.38.69,0,.02.08.02.11.02ZM14.26,39.5c.04.06.2.25.2.53,0,.33-.21.46-.34.46-.12,0-.2-.09-.22-.13-.06-.1-.23-.6-.28-.7-.06-.13-.44-.76-.44-.77,0-.01,0-.04.05-.04.11,0,.67.29.68.29.14,0,.53-.98.68-1.65.06-.28.06-.31.12-.31.02,0,.81.39.81.54,0,.04-.02.05-.18.13-.21.11-.28.21-.93,1.08-.04.06-.24.34-.24.4s.05.12.09.17ZM16.17,44.55c-.3,0-.32-.2-.38-.76-.02-.17-.11-.45-.18-.63-.02-.04-.05-.11-.05-.13,0-.03.03-.05.06-.05.15,0,.88.54.88,1.02,0,.19-.06.55-.33.55ZM16.72,45.62c-.2,0-.38-.13-.38-.37,0-.12.02-.17.18-.37.08-.11.46-.59.55-1.2,0-.07.02-.14.05-.14.13,0,.24.63.24.79,0,.48-.09,1.29-.64,1.29ZM18.44,37.83c0,.09-.07.12-.18.18-.08.04-.24.33-.33.49-.43.76-.84,1.32-1.32,1.66-.05.03-.14.09-.21.09,0,0-.03,0-.03-.03,0-.06.17-.25.2-.3.27-.4.79-1.31,1.02-2.4.01-.04.02-.24.05-.24.09.05.27.15.37.21.39.24.43.26.43.34ZM19.96,40.64s.02-.06.07-.06c.12,0,1.18.84,1.18,1.53,0,.24-.14.42-.35.42s-.2,0-.44-.79c-.03-.09-.06-.16-.18-.16-.07,0-1.61.3-2.48.58-.09.03-.53.25-.54.25-.14,0-.47-.69-.47-.85,0-.05.02-.09.08-.09.08,0,.42.06.5.06.2,0,.24,0,.59-.72.33-.66.57-1.47.62-1.62.02-.08.05-.09.08-.09.1,0,.82.42.82.66,0,.1-.09.11-.21.14-.22.05-.28.06-.98,1.08-.05.07-.3.43-.3.46,0,.08.09.08.12.08,0,0,.97-.05,1.73-.17.34-.05.37-.05.38-.13.01-.08-.22-.48-.22-.58ZM18.72,43.35s-.13.25-.14.29c-.07.28-.07.36-.07.85,0,.81,0,.95.62.95.88,0,.9-.04,1.18-.63.03-.07.03-.08.07-.21,0-.02.02-.05.05-.05.05,0,.12.59.15.64.03.03.15.17.17.2.01.03.02.05.02.07,0,.57-1.65.57-1.88.57-.59,0-.97-.04-.97-.87,0-.2,0-1.07,0-1.25,0-.08-.02-.43-.02-.5,0-.04-.04-.2-.04-.24,0-.05.05-.06.08-.06.04,0,.26.05.32.06.41.08.45.09.45.18ZM18.91,37.67s-.04-.05-.04-.07.02-.02.03-.02.38.03.45.03c.16,0,.21-.05.26-.11.15-.17.23-.25.31-.25.1,0,.45.26.45.4,0,.06-.08.11-.15.15-.05.02-.21.11-.21.21s.47,1.19,1.8,1.67c.05.02.1.03.1.05,0,.07-.33.16-.39.2-.05.03-.31.24-.38.24-.11,0-.25-.13-.3-.17-.57-.53-.76-1-1.09-1.86-.07-.18-.09-.21-.2-.21-.06,0-.32.03-.36.03-.03,0-.05-.02-.09-.06l-.19-.23ZM20.04,43.3c0,.26-.22.45-.38.45-.21,0-.24-.17-.31-.58-.05-.26-.12-.39-.27-.69-.05-.1-.05-.14-.05-.15,0-.03.04-.05.08-.05.09,0,.35.16.51.3.18.17.42.47.42.72ZM21.75,44.62c0,.33-.13.66-.37.66-.2,0-.23-.25-.28-.5,0-.08-.08-.5-.48-1.3-.1-.19-.11-.21-.11-.22,0-.03.04-.08.1-.08.05,0,.35.2.6.47.53.57.54.76.54.97Z"/><path class="cls-1" d="M30.33,39.87c.49,0,.54,0,.68-.18.28-.34.31-.38.4-.38.07,0,.86.56.86.68,0,.14-.2.14-.54.14h-1.92c-.24,0-.4,0-.4.31,0,.61.23,1.63.45,2.27.51,1.51,1.2,2.17,1.35,2.17.21,0,.58-.66.69-.9.04-.09.2-.4.24-.4s.05.04.05.06c0,.06-.06.34-.06.39-.04.23-.16,1.04-.16,1.21,0,.1.1.53.1.62,0,.17-.1.28-.35.28-.87,0-2.62-1.96-2.96-5.42-.05-.55-.06-.59-.49-.59h-1.55s-.09,0-.09.04.02.05.21.12c0,.01.28.11.28.22,0,.07-.05.1-.18.22-.13.1-.13.86-.13,1.14,0,.14,0,.37.28.37h.2c.12,0,.22,0,.35-.2.19-.29.21-.32.31-.32.18,0,.79.47.79.64,0,.14-.19.14-.54.14h-1.07c-.16,0-.32,0-.32.32,0,.25.01,1.31.01,1.53,0,.1,0,.37.28.37.12,0,1.68-.24,1.77-.26.09-.02.38-.09.44-.09.02,0,.03,0,.03.03,0,.09-.93.41-2.23.75-.42.11-2.51.64-2.64.68-.12.04-.14.07-.28.24-.05.05-.12.08-.18.08-.1,0-.12-.04-.31-.4-.11-.22-.36-.71-.36-.74s0-.05.04-.05.13.05.15.05c.18.05.26.05.53.05.15,0,.36,0,.36-.38v-2.61c0-.14-.02-.23-.04-.44,0-.05-.04-.19-.04-.23,0-.07.05-.07.09-.07.02,0,.78.22.84.24.03.02.12.05.12.17,0,.07-.27.28-.29.35,0,.05-.03,2.48-.03,2.51,0,.18.1.33.28.33.79,0,.79-.23.79-.57v-3.48c0-.64-.06-.75-.35-.75h-.75c-.87,0-1.16.02-1.26.03-.03,0-.18.02-.21.02-.04,0-.06-.02-.09-.06l-.19-.23s-.05-.05-.05-.07.02-.02.04-.02c.07,0,.38.03.44.03.49.02.9.04,1.37.04h3.18c.34,0,.4,0,.4-.32,0-.28-.07-1.73-.11-1.97,0-.06-.12-.3-.12-.35,0-.07.07-.11.13-.11.14,0,.52.15.82.27.13.05.19.08.19.16s-.07.12-.17.18c-.1.06-.11.08-.11.2,0,.25.04,1.36.05,1.58,0,.34.18.36.46.36h.52ZM26.4,38.36c.3,0,.39,0,.46-.09.07-.07.31-.44.39-.44.13,0,.75.46.75.65,0,.14-.19.14-.54.14h-1.62c-.7,0-1.02.03-1.05.03-.04,0-.18.02-.21.02-.04,0-.06-.02-.09-.06l-.19-.23s-.05-.05-.05-.07c0,0,.02-.02.04-.02.05,0,.27.03.32.03.3.02.99.04,1.28.04h.51ZM30.29,37.66s-.06-.04-.06-.06c0,0,0-.04.07-.04,0,0,.22.02.54.12.16.05.74.23.74.77,0,.19-.16.44-.39.44-.2,0-.26-.16-.31-.27-.18-.43-.21-.5-.45-.82-.03-.04-.08-.09-.14-.14Z"/><path class="cls-1" d="M35.25,41.66c.33,0,.74,0,.99,0,.27,0,.27-.04.27-.1,0-.11-.23-.63-.23-.65,0-.02.03-.05.07-.05.14,0,.96.65.96,1.22,0,.28-.19.43-.39.43-.26,0-.29-.2-.34-.5-.02-.15-.03-.18-.11-.18-.04,0-.42.09-.45.12-.05.05-.05.7-.05.87,0,.43.05,2.34.05,2.73s-.3.6-.53.6c-.17,0-.19-.17-.19-.42,0-.45.07-2.46.07-2.87,0-.14,0-.59-.03-.69-.02-.08-.05-.1-.18-.1-.04,0-.75.1-.92.18-.05.02-.24.17-.29.17-.1,0-.36-.79-.36-.81,0-.03.02-.03.05-.03.04,0,.37.04.44.05.05,0,.41.02.5.02.24,0,.28-.07.62-.72.36-.69.88-1.69,1.02-2.11.09-.25.1-.28.16-.28.03,0,.84.38.84.53,0,.08-.02.08-.24.15-.13.04-.23.12-.3.21-.43.56-1.02,1.53-1.49,2.06-.04.04-.07.11-.05.14,0,.03.07.04.11.04ZM35.02,43.32c0,.07-.22.28-.25.34-.22.41-.5,1.11-.76,1.51-.02.03-.24.36-.34.36,0,0-.04,0-.04-.04s.3-.92.34-1.07c.2-.78.21-1.25.21-1.33,0-.18,0-.21.06-.21s.31.11.39.14c.25.11.39.19.39.3ZM35.01,39.51c.31.22.38.47.38.62,0,.24-.18.32-.3.32-.06,0-.13-.02-.22-.1-.08-.09-.44-.59-.53-.69-.09-.09-.55-.5-.55-.52,0-.04.04-.05.08-.05.1,0,.57.17.68.17.07,0,.09-.04.23-.37.12-.28.41-.97.41-1.66,0-.04,0-.11.06-.11,0,0,.93.3.93.51,0,.03,0,.09-.04.11-.04.03-.27.12-.31.16-.12.11-.56.78-.67.93-.08.1-.35.45-.33.54,0,.02.15.12.18.14ZM36.76,42.71s-.04-.05-.04-.07.02-.02.03-.02c.19,0,1.1.06,1.31.06.16,0,.23-.06.29-.14.1-.14.15-.2.25-.2.16,0,.65.28.65.48,0,.06-.05.1-.1.12q-.21.08-.28.21c-.42.83-.65,1.25-1.09,1.74-.71.79-1.61,1.16-1.64,1.16,0,0-.03,0-.03-.02,0-.03,0-.04.06-.09.75-.74.83-.82,1.02-1.06.77-.94,1.01-1.82,1.01-1.84,0-.08-.04-.08-.33-.08-.12,0-.74.04-.83.04-.03,0-.05-.02-.09-.06l-.19-.23ZM37.29,44.24c0,.34-.25.43-.34.43-.22,0-.24-.26-.29-.68,0-.13-.08-.34-.27-.75,0-.04-.04-.09-.04-.11,0-.03.03-.05.05-.05.06,0,.32.21.43.32.1.1.46.45.46.84ZM38.42,41.52c-.13,0-.2,0-.29.11-.11.14-.23.28-.42.28-.23,0-.23-.15-.23-.42,0-.29.04-1.73.04-2.05,0-.17-.02-.99-.02-1.17,0-.04,0-.07.06-.07.1,0,.56.33.68.33.2,0,.81-1.11.82-1.31.01-.07.02-.14.08-.14.02,0,.5.24.58.28.14.07.28.14.28.22,0,.07-.41.18-.48.22-.33.23-.74.61-.74.69,0,.06.02.06.19.06h1.92c.21,0,.28-.01.36-.14.22-.34.25-.38.35-.38.13,0,.69.37.69.59,0,.07-.05.14-.12.2-.14.12-.18.16-.18.33,0,.15.03.9.03,1.07,0,.19.07,1.1.07,1.18,0,.45-.48.48-.53.48-.14,0-.16-.04-.22-.24-.03-.12-.16-.12-.23-.12h-1.15s-.09,0-.09.04.02.05.19.12c.08.02.29.11.29.23,0,.08-.02.09-.18.21-.02.02-.06.06-.06.12,0,.07.3.64.36.76.08.15.21.4.33.4.24,0,.92-.72,1.14-.97.02-.03.11-.13.13-.13.05,0,.7.59.7.7,0,.04-.03.05-.06.05-.04,0-.22,0-.26,0-.29,0-.5.1-1.36.49-.18.08-.18.09-.18.15,0,.1.68,1.14,1.74,1.76.32.19.36.2.36.24,0,.03-.03.03-.16.04-.14,0-.37.04-.57.11-.04.02-.25.14-.3.14-.09,0-1.13-1.2-1.68-2.54-.04-.09-.22-.62-.24-.62-.03,0-.03.29-.03.34,0,.1.02,1.67.02,1.85,0,.61,0,.83-.22,1-.2.15-.54.27-.78.27-.06,0-.08-.02-.11-.07-.08-.17-.1-.22-.2-.34-.06-.06-.38-.33-.38-.34,0-.03.03-.03.29-.03.75,0,.79-.1.79-.83,0-.46,0-2.56-.05-2.85-.04-.24-.15-.29-.35-.29h-.62ZM38.44,38.81c-.13,0-.26.02-.3.21v.57c0,.26.19.26.31.26h2.6c.3,0,.3-.04.3-.77,0-.27-.2-.27-.3-.27h-2.61ZM38.44,40.11c-.11,0-.3,0-.3.28,0,.85,0,.87.3.87h2.64c.09,0,.28-.02.28-.27,0-.84,0-.88-.29-.88h-2.63Z"/><path class="cls-1" d="M44.21,41.98c-.16,0-.26-.15-.26-.32,0-.19.07-.36.27-.81.07-.17.41-.94.41-1.6,0-.03,0-.05.03-.05.02,0,.25.35.25,1.4,0,.59-.21,1.38-.7,1.38ZM46.08,41.52c0,.45,0,2.53.09,3.77,0,.07.03.35.03.41,0,.36-.27.51-.57.51s-.31-.15-.3-.27c0-.21.05-.57.06-.74,0-.17.09-2.72.09-4.42,0-.89-.02-2.78-.08-3.05,0-.08-.11-.46-.11-.5,0-.09.1-.11.18-.11.2,0,.95.12.95.38,0,.06-.04.12-.16.2-.1.07-.16.13-.16.38,0,.48-.02,2.96-.02,3.44ZM50.74,39.1c.09,0,.19,0,.28-.07.04-.04.22-.28.29-.28.05,0,.78.37.78.55,0,.04-.01.05-.15.17-.15.12-.14.24-.15.34-.01.26,0,1.53,0,1.82,0,.12,0,.25.12.25s.19-.12.21-.18c.14-.26.18-.35.29-.35.1,0,.81.57.81.73,0,.13-.21.13-.53.13h-2.73s-.13,0-.13.08.14.41.25.63c.44.84,1.19,1.38,1.68,1.66.72.42,1.55.57,1.68.57.02,0,.05,0,.05.03s-.04.04-.07.05c-.09.02-.51.31-.65.61-.05.08-.08.12-.14.12-.12,0-2.35-1.05-2.89-3.51-.04-.16-.04-.17-.08-.17-.05,0-.04.05-.05.18-.13,3.08-2.97,3.71-3.1,3.71,0,0-.03,0-.03-.02,0-.03.04-.04.05-.05.43-.19.84-.5,1.2-.83,1.23-1.14,1.23-2.79,1.23-2.8,0-.26-.17-.26-.29-.26h-.43c-.4,0-1.07,0-1.26.02-.04,0-.18.03-.22.03-.02,0-.04-.02-.08-.06l-.2-.24s-.04-.05-.04-.06c0-.02.02-.03.03-.03.07,0,.37.04.44.04.29.02,1,.03,1.38.03h.41c.28,0,.33,0,.33-1.18,0-.29,0-1.18-.03-1.25-.06-.14-.2-.14-.26-.14-.15,0-.89.05-.99.05-.03,0-.05-.03-.09-.07l-.19-.23s-.04-.05-.04-.06c0-.03.02-.03.03-.03.18,0,1.08.07,1.28.07.28,0,.28-.17.28-.39,0-.83,0-.92-.04-1.13,0-.05-.11-.3-.11-.36s.07-.06.13-.06c.09,0,1.09.09,1.09.38,0,.06-.28.23-.32.29-.07.09-.07.84-.07,1,0,.19.08.27.3.27h.74ZM46.94,40.63c-.25,0-.25-.18-.28-.63,0-.21-.09-.55-.19-.76,0,0-.02-.05-.02-.06,0,0,0-.02.02-.02.04,0,.87.37.87,1,0,.27-.17.47-.4.47ZM49.99,39.37c-.09,0-.24,0-.28.12-.04.11-.08,2.1-.08,2.18,0,.27.18.27.31.27h.9c.31,0,.31-.09.31-.5,0-.26,0-1.84-.04-1.95-.05-.12-.19-.12-.29-.12h-.83Z"/><path class="cls-1" d="M54.84,41.26s-.04-.05-.04-.07.02-.02.04-.02c.16,0,.98.06,1.16.06.12,0,.2,0,.34-.16.13-.13.18-.16.24-.16.13,0,.66.41.66.55,0,.05-.02.08-.14.18-.25.19-.28.22-.3.3-.03.07-.03,1.01-.03,1.19,0,.41.01.61.18.91.58,1.01,1.95,1.01,3.74,1.01.85,0,2.23,0,3-.23.06-.02.34-.11.38-.11,0,0,.01,0,.01.02,0,.01-.17.17-.19.19-.22.2-.43.45-.44.68-.02.28-.06.28-.47.28-.47,0-1.69-.05-2.54-.09-1.75-.07-3.24-.25-3.77-1.74-.05-.14-.07-.18-.11-.18s-.07.04-.09.06c-.25.34-.68.87-.93,1.21-.06.07-.26.48-.36.48-.14,0-.6-.75-.6-.9,0-.07.03-.07.17-.08.13,0,.36-.12.52-.21.77-.43.83-.49.85-.73,0-.08,0-.26,0-1.91,0-.1,0-.28-.34-.28-.1,0-.58.04-.66.04-.04,0-.06-.02-.09-.06l-.2-.23ZM57.22,39.38c0,.22-.17.37-.34.37-.2,0-.25-.08-.68-.78-.35-.58-.84-1.16-1.04-1.37-.02-.02-.19-.2-.19-.21,0-.04.52.14.98.42,1.09.68,1.27,1.32,1.27,1.57ZM60.99,41.43c-.13,0-.3,0-.3.24,0,.17.07.2.3.29,1.45.57,2.51,1.37,2.51,1.94,0,.19-.1.33-.3.33s-.26-.07-.8-.74c-.46-.57-.83-.96-1.37-1.31-.18-.12-.2-.13-.25-.13-.09,0-.09.13-.09.19,0,.31.03,1.7.03,1.98,0,.41-.24.54-.39.54-.24,0-.3-.15-.3-.35,0-.32.08-1.72.08-2,0-.09-.01-.15-.06-.15s-.06,0-.23.22c-.91,1.08-2.04,1.65-2.14,1.65-.04,0,.32-.33.35-.37.78-.83,1.74-2.07,1.74-2.22,0-.11-.13-.11-.21-.11h-.63c-.16,0-.18.09-.22.22-.05.18-.27.23-.38.23-.27,0-.27-.21-.27-.33,0-.18.02-.98.02-1.14,0-.44,0-.68-.02-.83,0-.05-.03-.28-.03-.33s.07-.06.1-.06c.1,0,.42.15.54.21.17.09.23.09.33.09h.83c.28,0,.28-.06.28-.64,0-.27-.19-.28-.31-.28h-.76c-.68,0-1.04,0-1.27.03-.03,0-.18.02-.21.02s-.05-.02-.09-.06l-.19-.23s-.04-.05-.04-.07c0,0,.01-.02.03-.02.07,0,.38.03.44.03.49.03.91.04,1.38.04h.67c.3,0,.3-.14.3-.26,0-.13-.05-.47-.07-.58,0-.03-.06-.19-.06-.22,0-.07.05-.09.1-.09s.94.18.94.32c0,.03-.15.19-.17.21-.04.06-.11.15-.11.35,0,.24.11.27.27.27h.63c.45,0,.5,0,.64-.18.28-.36.31-.4.4-.4.11,0,.86.55.86.7,0,.14-.16.14-.46.14h-2.06c-.28,0-.28.11-.28.6,0,.17,0,.32.28.32h.85c.14,0,.2,0,.3-.1.18-.18.19-.2.29-.2.17,0,.61.36.61.47,0,.05-.16.2-.19.24-.07.09-.08.22-.08.38,0,.15.07.8.07.94,0,.29-.21.5-.48.5-.17,0-.2-.06-.28-.21-.05-.08-.17-.08-.24-.08h-.83ZM59.83,41.17c.12,0,.28,0,.28-.35,0-.12,0-.8-.01-.85-.04-.2-.15-.21-.27-.21h-.85c-.12,0-.28,0-.28.35,0,1.05,0,1.06.28,1.06h.85ZM61.83,41.17c.3,0,.3-.1.3-.69,0-.65,0-.72-.3-.72h-.86c-.3,0-.3.1-.3.68,0,.66,0,.73.3.73h.86Z"/><path class="cls-1" d="M67.08,40.14c-.22,0-.91,0-1.26.02-.03.01-.18.03-.21.03-.04,0-.05-.03-.09-.07l-.19-.23s-.05-.05-.05-.06c0-.02.02-.03.04-.03.04,0,.53.05.63.05.73.03.75.02,1.32.02.31,0,.31-.08.31-.61,0-.13,0-.94-.03-.99-.07-.12-.13-.13-.26-.13-.14,0-1.12.05-1.34.05-.18,0-.2,0-.2-.05s.02-.05.24-.09c1.74-.33,2.23-.55,2.47-.66.36-.16.4-.18.48-.18.09,0,.94.39.94.54,0,.1-.04.1-.61.16-1.06.11-1.06.13-1.06.5,0,.13.01,1.26.02,1.3.05.16.21.16.28.16h.18c.23,0,.29-.02.41-.16.28-.34.31-.37.4-.37.12,0,.87.57.87.66,0,.14-.2.14-.53.14h-1.34c-.29,0-.31.04-.31.76,0,.29.1.31.18.33.42.08,1.47.34,1.47,1.1,0,.36-.22.49-.34.49-.2,0-.23-.07-.48-.69-.23-.56-.69-.77-.76-.77-.08,0-.08.07-.08.15,0,.39.03,3.21.06,3.59,0,.19.03.54.03.58,0,.38-.46.5-.58.5-.21,0-.21-.14-.21-.29,0-.49.06-2.64.06-3.08,0-.1,0-.5,0-.59s-.02-.17-.12-.17c-.05,0-.06.02-.18.15-.53.61-1.07,1.2-1.91,1.8-.08.06-.12.09-.16.09-.03,0-.05-.02-.05-.05,0,0,.63-.74.72-.86.97-1.21,1.73-2.77,1.73-2.9,0-.11-.07-.14-.13-.14h-.37ZM71.6,40.85c0,1.75,0,1.95.02,2.39,0,.07.02.38.02.44,0,.28-.15.49-.55.49-.25,0-.25-.12-.25-.19,0-.06.03-.24.03-.28.03-.32.05-1.46.05-2.84,0-.45,0-1.65-.08-2.32-.02-.13-.02-.2-.02-.21,0-.05,0-.09.08-.09.05,0,1.04.18,1.04.36,0,.04-.02.08-.05.11-.2.18-.23.22-.26.36,0,.04-.03.86-.03,1.78ZM73.55,41.06c0,.6.06,3.22.06,3.75,0,.72-.05.92-.22,1.04-.26.19-.55.33-.7.33-.14,0-.16-.06-.21-.22-.12-.37-.75-.59-.86-.62-.03-.01-.09-.04-.09-.08,0-.03.06-.04.07-.04.13,0,.66.09.77.09.49,0,.49-.09.49-.86,0-.93,0-5.79-.05-6.49,0-.11-.09-.65-.09-.68,0-.05.06-.09.11-.09.03,0,.85.15.91.16.06.02.15.05.15.15,0,.09-.05.12-.16.2-.08.05-.13.19-.15.3-.02.17-.03,2.54-.03,3.06Z"/><path class="cls-1" d="M77.64,42.78c-.29,0-.29.08-.33.44-.17,1.75-1.28,2.82-1.43,2.82-.04,0-.06-.03-.06-.05,0,0,.24-.4.28-.48.41-.85.58-1.73.58-4.22,0-.79-.02-2.43-.09-3.17,0-.11-.08-.68-.08-.7,0-.06,0-.08.07-.08.11,0,.39.12.5.17.35.18.47.23.79.23h4.89c.22,0,.28-.05.35-.12.17-.18.18-.2.25-.2.08,0,.81.41.81.57,0,.09-.08.15-.16.19-.23.12-.26.13-.26,1.08,0,.82.06,4.51.06,5.36,0,.44,0,1.55-.93,1.55-.09,0-.1-.02-.17-.22-.14-.36-.75-.57-.84-.59-.03,0-.18-.04-.18-.1,0-.04.07-.06.12-.06.13,0,.76.05.9.05.39,0,.4-.11.4-1.38,0-.13,0-.83-.02-.91-.04-.18-.19-.18-.3-.18h-2.03c-.27,0-.32.1-.31.39.01.72.01,1.54.01,2.31,0,.19-.03.26-.1.33-.09.08-.27.18-.47.18s-.21-.13-.21-.26c0-.37.06-2.21.06-2.63,0-.22-.07-.32-.31-.32h-1.79ZM79.46,40.02q.3,0,.3-1.01c0-.97,0-1-.3-1h-1.82c-.3,0-.3.04-.3.87,0,1.14.01,1.14.31,1.14h1.81ZM79.46,42.51c.09,0,.21,0,.26-.12.04-.08.04-1.04.04-1.17,0-.89,0-.93-.3-.93h-1.82c-.11,0-.24.02-.28.18,0,.05,0,1.46,0,1.69,0,.16,0,.35.29.35h1.82ZM80.75,38.01c-.13,0-.26.02-.3.18,0,.06,0,1.21,0,1.45,0,.21,0,.38.31.38h1.99c.31,0,.31-.11.31-.68,0-1.33,0-1.33-.33-1.33h-1.97ZM80.75,40.29c-.31,0-.31.03-.31.95,0,.16,0,1.06.04,1.14.05.13.2.13.27.13h2.04c.3,0,.3-.07.3-.73,0-1.47,0-1.49-.32-1.49h-2.02Z"/><path class="cls-1" d="M9.93,8.02c.38,0,.57.12.57.43s-.16.45-.57.45h-4.84c-.55,0-.55.12-.55,2.55,0,2.27.02,12.34.02,14.41,0,.47-.1.65-.43.65-.45,0-.45-.14-.45-1.34V8.86c0-.57.32-.83.87-.83h5.37Z"/><path class="cls-1" d="M16.59,24.48c-.22,0-.57,0-.61.38s-.1,1.09-1.05,1.09c-.45,0-.59-.28-.59-.73,0-.61.12-3.57.12-4.24,0-.24,0-1.5-.06-2.15-.02-.16-.1-.93-.1-.99,0-.14.02-.18.14-.18.16,0,.57.14,1.28.46.3.14.49.16.83.16h2.61c.93,0,1.05.02,1.22-.24.26-.41.28-.45.45-.45s1.56.71,1.56,1.13c0,.16-.2.3-.45.51-.28.24-.28.65-.28,1.21,0,.53.06,3.14.06,3.73,0,.47,0,1.24-.87,1.24-.53,0-.57-.36-.61-.67-.04-.28-.3-.28-.57-.28h-3.08ZM19.75,23.95c.53,0,.55-.43.55-.57v-3.93c0-.61-.34-.61-.71-.61h-3.16c-.51,0-.61.22-.61.67,0,.55.12,3.02.12,3.53,0,.59,0,.91.59.91h3.22ZM24.88,9.3c.93,0,1.03,0,1.2-.24.3-.46.34-.53.53-.53.2,0,1.38.81,1.38,1.17,0,.2-.06.24-.41.45-.22.14-.22.36-.22.59,0,.59.12,3.28.12,3.67,0,.41,0,1.09-.91,1.09-.18,0-.51-.04-.55-.32-.04-.45-.06-.53-.55-.53h-5.98c-.3,0-.41.02-.49.32-.12.4-.2.73-.89.73-.65,0-.67-.3-.67-.59,0-.4.1-2.37.1-2.82,0-.63,0-2.55-.12-3-.02-.08-.2-.47-.2-.57s.1-.12.16-.12c.16,0,.63.14,1.58.57.28.12.51.12.71.12h5.21ZM25.46,14.12c.55,0,.59-.32.59-.65,0-.2-.02-3.04-.04-3.18-.04-.45-.43-.45-.61-.45h-5.84c-.61,0-.63.32-.63.77,0,.99,0,2.45.04,3,.02.51.41.51.63.51h5.86ZM25.5,24.48c-.16,0-.51,0-.55.46-.02.45-.06,1.01-.99,1.01-.43,0-.59-.28-.59-.73,0-.61.14-3.59.14-4.28,0-.16,0-1.58-.06-2.21-.02-.14-.12-.87-.12-1.03,0-.14.04-.16.16-.16.32,0,.75.2,1.15.41.3.14.53.2.93.2h2.43c.95,0,1.05,0,1.22-.26.24-.38.28-.43.41-.43.08,0,1.68.73,1.68,1.24,0,.18-.04.22-.49.57-.24.2-.24.61-.24.99,0,.57.08,3.32.08,3.93,0,.49,0,1.3-1.05,1.3-.49,0-.49-.26-.51-.61,0-.04-.02-.4-.49-.4h-3.12ZM25.46,18.68c-.61,0-.61.3-.61.83s.06,2.71.06,3.18c0,1.09,0,1.26.59,1.26h3.1c.51,0,.59-.22.59-.73,0-.59-.06-3.18-.06-3.71s0-.83-.59-.83h-3.08Z"/><path class="cls-1" d="M38.82,9.38c0,.12-.3.49-.34.59-.12.43-.12.83-.14,4.6-.04,4.32-.06,7.86-2.41,10.23-.57.57-1.38,1.2-1.48,1.2-.04,0-.04-.06-.04-.08,0-.12.04-.16.37-.55,2.11-2.49,2.11-5.09,2.11-13.33,0-1.8,0-2.03-.1-2.49-.04-.22-.16-.55-.16-.65,0-.2.22-.22.34-.22.14,0,1.86.37,1.86.71ZM42.69,23.61c0-.49.08-1.34.14-1.92.08-.85.08-2.23.08-2.59,0-5.27-.02-5.86-.02-7.36,0-.2-.14-1.56-.14-1.64,0-.32.14-.34.32-.34.24,0,.37.04,1.44.38.12.04.24.14.24.26,0,.1-.32.51-.36.59-.06.2-.1.55-.1.87v5.94c0,1.38,0,3.67.02,4.56,0,.14.02.79.02.91,0,.38-.02.61-.2.77-.32.26-.69.41-.97.41-.1,0-.3-.02-.36-.12-.1-.12-.1-.41-.1-.71ZM49.18,25.31c0-.2.04-.49.08-.69.06-.45.06-1.11.06-1.3,0-12.56,0-13.92-.22-14.87-.02-.06-.02-.12-.02-.16,0-.08.1-.08.14-.08.02,0,2.13.34,2.13.77,0,.16-.47.69-.51.81-.16.49-.16,2.21-.16,4.42,0,5.84.02,6.93.06,8.19.02.38.14,2.09.14,2.43,0,1.05-.79,1.13-1.05,1.13-.08,0-.41-.02-.49-.08-.16-.14-.16-.49-.16-.57Z"/><path class="cls-1" d="M55.79,26.3c-.39,0-.57-.12-.57-.42s.16-.45.57-.45h4.84c.55,0,.55-.12.55-2.55,0-2.27-.02-12.34-.02-14.41,0-.46.1-.65.43-.65.43,0,.43.14.43,1.34v16.31c0,.57-.3.83-.85.83h-5.37Z"/><path class="cls-1" d="M67.95,23.14c0,.43,0,1.76-.77,1.76-.34,0-.61-.32-.61-.73,0-.18.2-1.05.22-1.13.12-.57.22-1.28.22-1.72,0-.85,0-.91.12-.91.02,0,.08.02.12.04.3.18.69,1.52.69,2.7ZM72.74,17.83c.47,0,.51,0,.73-.2.26-.24.41-.38.53-.38.22,0,1.28.73,1.28,1.07,0,.12-.04.16-.39.61-.06.08-.12.22-.16.69-.02.26-.16,2.29-.67,4.11-.49,1.78-2.01,2.49-2.41,2.49-.18,0-.26-.04-.55-.53-.12-.18-.3-.38-.41-.47-.04-.04-.34-.26-.34-.34s.22-.08.41-.08c1.42,0,1.7-.59,1.8-.81.63-1.3,1.01-4.13,1.01-5.13,0-.49-.34-.49-.63-.49h-3.57c-.16,0-.32.04-.43.18-.28.38-.34.49-.83.49s-.63-.16-.63-.63c0-.32.14-4.58.14-5.27,0-.79-.02-2.63-.08-3.36-.02-.12-.12-.81-.12-.95,0-.08,0-.12.06-.12.1,0,1.03.38,1.24.47.28.1.57.14.87.14h2.27c.83,0,1.07,0,1.28-.34.28-.51.38-.65.65-.65.22,0,1.5.95,1.5,1.26,0,.28-.43.28-1.09.28h-1.88c-.63,0-.63.14-.63,1.22,0,.71.04,1.01.57,1.01.43,0,.55,0,.71-.32.14-.24.37-.65.67-.65.28,0,1.22.97,1.22,1.24,0,.29-.34.29-.93.29h-1.64c-.59,0-.59.1-.59,1.7,0,.55.45.55.59.55.3,0,.43,0,.59-.32.1-.22.3-.65.63-.65s1.28.97,1.28,1.26-.41.28-1.07.28h-1.38c-.63,0-.63.16-.63,1.8,0,.53.3.57.61.57h.45ZM70.06,23.22c0,.65-.34.85-.59.85-.51,0-.59-.53-.61-1.28-.02-.57-.1-1.17-.24-1.8-.04-.14-.06-.34-.06-.49,0-.18.08-.22.2-.18.59.22,1.3,2.25,1.3,2.9ZM70.06,12.1c.59,0,.59-.32.59-1.09,0-.87,0-1.13-.61-1.13h-.59c-.61,0-.61.28-.61,1.12s0,1.11.61,1.11h.61ZM70.06,14.92c.59,0,.59-.3.59-1.12,0-.87,0-1.15-.59-1.15h-.61c-.61,0-.61.28-.61,1.15,0,.81,0,1.12.59,1.12h.63ZM70,17.83c.65,0,.65-.26.65-1.18s0-1.2-.59-1.2h-.57c-.65,0-.65.26-.65,1.17s0,1.2.63,1.2h.53ZM70.99,23c-.3,0-.3-.26-.34-1.01-.02-.36-.1-.93-.22-1.46-.04-.14-.12-.65-.12-.73,0-.1,0-.22.08-.22.2,0,1.28,1.15,1.28,2.21,0,.83-.45,1.21-.67,1.21ZM72.96,21.08c0,.36-.18.67-.47.67-.36,0-.38-.12-.57-1.32-.04-.29-.12-.59-.26-.93-.02-.08-.04-.14-.04-.22,0-.1.04-.16.14-.14.3.04,1.2,1.11,1.2,1.95ZM82.04,9.28c.3,0,.43-.06.55-.22.28-.43.45-.65.61-.65.18,0,1.24.83,1.24,1.09,0,.14-.39.77-.45.93-.06.24-.06,2.01-.06,2.37,0,.38.06,2.27.06,2.69,0,.53-.55.89-1.01.89-.43,0-.45-.2-.51-.65-.02-.24-.04-.41-.55-.41h-.79c-.14,0-.57,0-.57.51,0,.1.02.2.04.32.28,1.86,1.01,5.55,3.34,7.88.2.18,1.24,1.09,1.24,1.17s-.12.1-.2.1-.41-.04-.49-.04c-.2,0-.67.02-1.11.1-.08.02-.47.18-.51.18-.1,0-.22-.22-.28-.3-1.97-3.28-2.35-5.78-2.55-9.1-.06-.81-.1-.83-.59-.83h-1.13c-.61,0-.61.12-.61,1.24,0,2.74-.79,6.16-2.39,8.37-.16.24-.97,1.22-1.2,1.22-.08,0-.12-.06-.12-.1,0-.08.63-1.07.75-1.28,1.76-3.3,1.76-7.64,1.76-9.22,0-1.05-.02-3.91-.28-5.88-.02-.12-.12-.69-.12-.83,0-.06,0-.2.08-.2.2,0,1.09.43,1.24.46.12.04.45.16.83.16h3.79ZM78.25,9.81c-.22,0-.45.16-.49.3-.08.22-.08,3.59-.08,3.99s.04.71.61.71h3.65c.14,0,.41,0,.53-.22.14-.22.14-3.69.14-4.01,0-.57-.08-.77-.63-.77h-3.73Z"/><path class="cls-1" d="M96.41,15.1c2.45,2.45,4.46,3.34,5.67,3.89.95.45,1.78.89,1.78,1.48,0,.12-.18.77-.75.77-.18,0-2.01-.06-5.03-2.96-.49-.47-2.65-2.65-3.1-3.08-.47-.45-.81-.71-1.13-.71-.67,0-.85.18-2.51,1.8-.14.14-1.62,1.54-1.66,1.56-.08.06-.2.1-.32.1-.77,0-1.97-.95-1.97-1.3,0-.08.04-.1.39-.14.93-.08,2.41-.85,3.3-1.56,1.7-1.36,2.11-1.5,2.8-1.5.53,0,1.2.3,2.53,1.64Z"/><path class="cls-1" d="M167.76,13.56c.32,0,.63-.04.63-.59,0-1.8,0-1.91-.57-1.91h-4.64c-1.76,0-2.35.04-2.55.06-.06,0-.36.04-.43.04-.08,0-.12-.04-.18-.12l-.39-.47c-.08-.1-.1-.1-.1-.14s.04-.04.08-.04c.14,0,.77.06.89.06.99.04,1.82.08,2.78.08h4.48c.18,0,.61,0,.61-.53,0-.04,0-.55-.12-1.09-.02-.14-.24-.77-.24-.91,0-.12.12-.16.26-.16.06,0,2.05.28,2.05.61,0,.06-.28.34-.34.41-.14.14-.2.3-.2.77,0,.59,0,.91.61.91h3.08c.85,0,1.07,0,1.3-.35.61-.97.67-1.07.91-1.07.34,0,1.52,1.12,1.78,1.3.04.02.3.22.3.37,0,.28-.39.28-1.07.28h-6.3c-.61,0-.61.39-.61.59,0,1.88,0,1.91.63,1.91h1.13c.71,0,.99-.39,1.07-.51.14-.22.26-.37.43-.37.22,0,1.78.93,1.78,1.16,0,.12-.34.67-.59,1.03-.14.24-.14.4-.14.65,0,1.07.14,5.75.14,6.73s0,1.36-1.07,1.36c-.3,0-.47,0-.51-.57-.04-.43-.16-.57-.67-.57h-4.64c-.45,0-.51.34-.51.45,0,.18,0,.53-.02.57-.12.3-.57.45-.91.45-.41,0-.69-.18-.69-.75,0-.37.06-1.95.06-2.27,0-3.73-.12-6.55-.16-6.93-.02-.18-.14-.95-.14-1.09,0-.08.04-.1.12-.1.22,0,.28.04,1.07.47.36.2.77.3,1.22.3h.38ZM163.06,25.37c-.2,0-.38.1-.49.28-.24.45-.57.67-1.05.67-.08,0-.63,0-.63-.61,0-.69.14-4.03.14-4.78,0-.69-.02-5.51-.14-5.88-.02-.1-.26-.55-.26-.67,0-.18.18-.18.24-.18.3,0,2.09.57,2.09.95,0,.12-.38.53-.43.65-.1.26-.1,5.23-.1,5.76,0,.38.04,2.73.16,2.96.04.06.16.32.61.32h10.35c.79,0,.91-.04,1.01-.16.16-.2.81-1.26,1.01-1.26.06,0,2.27,1.12,2.27,1.7,0,.24-.1.24-1.07.24h-13.72ZM167.1,14.08c-.55,0-.55.37-.55.93,0,.99,0,1.34.57,1.34h5c.57,0,.57-.3.57-1.13s0-1.13-.57-1.13h-5.03ZM167.2,16.88c-.2,0-.61.02-.61.59,0,1.52.08,1.66.63,1.66h4.88c.61,0,.61-.24.61-1.12s0-1.13-.61-1.13h-4.9ZM167.24,19.66c-.49,0-.57.32-.57.55,0,1.58.16,1.72.61,1.72h4.82c.59,0,.59-.3.59-1.13s0-1.13-.59-1.13h-4.86Z"/><path class="cls-1" d="M179.91,16.47q-.1-.1-.1-.12s.04-.06.08-.06c.37,0,2.13.14,2.53.14.36,0,.47-.08.75-.41.45-.51.51-.57.61-.57s1.3.71,1.3,1.07c0,.06-.02.1-.04.12-.06.08-.43.3-.51.37-.12.12-.12.34-.12,2.47,0,2.82,0,3.18.51,3.81.93,1.2,3.99,1.2,5.39,1.2,1.01,0,3.67.08,7.5-.59.1-.02.57-.12.69-.12.04,0,.12,0,.12.08,0,.02-.02.1-.16.18-.47.24-.71.38-.97.85-.06.12-.18.81-.3.91-.04.02-2.31.02-2.63.02-4.38,0-6.14-.24-7.38-.53-.28-.06-1.74-.41-2.53-1.64-.16-.24-.71-1.56-.89-1.56-.34,0-2.13,2.86-2.13,3-.02.63-.04.69-.22.69-.39,0-1.44-1.44-1.44-1.74,0-.14.22-.2.43-.26.39-.1,1.34-.67,1.88-1.09.85-.63.85-.65.85-1.52,0-.47.04-2.88.04-3.4-.02-.69-.12-.79-.69-.79-.04,0-1.15-.02-1.7.06-.04,0-.24.04-.28.04-.08,0-.12-.04-.18-.14l-.38-.47ZM183.86,12.52c-.34,0-.51-.14-.81-.69-.04-.06-.59-.99-1.9-2.31-.12-.12-.79-.75-.79-.77,0-.08.12-.08.18-.08.41,0,3.97,1.22,3.97,3.14,0,.32-.18.71-.65.71ZM193.37,8.96c.71,0,.87,0,1.11-.18.1-.08.59-.71.75-.71.18,0,1.82,1.01,1.82,1.4,0,.14-.12.22-.26.26-.14.04-.91.18-1.07.24-.41.16-2.27,1.34-2.7,1.6-.1.06-.69.45-.69.59,0,.06.22.3.24.36.06.1.06.22.06.55,0,.1.1.1.38.1h2.07c.22,0,.45,0,.67-.16.08-.04.47-.38.59-.38.26,0,1.22.67,1.22.91,0,.16-.16.26-.32.38-.24.16-.24.26-.24.61,0,2.82,0,3.12.06,4.54.06,1.24.06,2.07.06,2.33,0,.87-.18,1.4-.67,1.76-.22.16-.65.37-.91.37-.22,0-.3-.14-.34-.22-.02-.06-.14-.47-.2-.55-.1-.14-.87-.59-.87-.67,0-.12,1.01-.2,1.2-.26.51-.18.51-.32.51-1.78,0-.42,0-.75-.61-.75h-2.21c-.59,0-.63.3-.63.71v.77c0,.22.08,1.36.08,1.62,0,.37-.04.91-.95.91-.43,0-.49-.51-.49-.83,0-.39.14-2.21.14-2.63,0-.55-.38-.55-.61-.55h-1.91c-.65,0-.65.16-.65,1.26,0,.26.04,1.58.04,1.86,0,1.12-.73,1.13-.85,1.13-.59,0-.63-.45-.63-1.01,0-.2.04-.97.06-1.16.06-.79.08-1.42.08-3.12,0-.75-.08-4.46-.08-5.31,0-.16,0-.28.12-.28.04,0,1.03.34,1.11.37.47.16.73.14.95.14h1.97c.12,0,.24,0,.24-.16,0-.14-.55-.81-1.18-1.28-.45-.32-.53-.37-.53-.49,0-.1.2-.1.26-.1.2,0,.77.06,1.42.28.12.04.73.37.87.37.28,0,1.99-1.82,1.99-2.15,0-.16-.12-.16-.38-.16h-3.12c-.49,0-1.84,0-2.55.06-.06,0-.37.04-.43.04-.08,0-.12-.04-.18-.12l-.38-.47q-.1-.1-.1-.14s.04-.04.08-.04c.12,0,.75.06.89.06.57.02,1.62.08,2.78.08h2.92ZM188.62,16.56c-.18,0-.45.02-.57.24-.06.12-.06.22-.06,1.28,0,.34,0,.67.63.67h1.9c.63,0,.63-.22.63-1.17,0-.75,0-1.01-.63-1.01h-1.9ZM188.6,13.7c-.59,0-.59.16-.59,1.6,0,.32,0,.71.59.71h1.95c.59,0,.59-.14.59-1.56,0-.37,0-.75-.59-.75h-1.95ZM195.09,16.01c.63,0,.63-.12.63-1.36,0-.69,0-.95-.63-.95h-2.13c-.63,0-.63.18-.63,1.3,0,.79,0,1.01.63,1.01h2.13ZM195.21,18.74c.59,0,.59-.3.59-.79,0-1.26,0-1.4-.59-1.4h-2.27c-.59,0-.59.14-.59,1.36,0,.55,0,.83.59.83h2.27Z"/><path class="cls-1" d="M209.79,25.09h1.92c1.82,0,2.45-.7,2.45-2.13V4.02c0-1.08-1.01-1.26-1.68-1.26h-2.66v-1.08h.63c2.69,0,5.28-1.22,5.7-1.47.24-.14.35-.21.49-.21.31,0,.38.21.38.49v22.46c0,1.5.73,2.13,2.45,2.13h1.92v1.12h-11.62v-1.12Z"/><path class="cls-1" d="M241.87,19.17c0,4.06-3.18,7.7-8.26,7.7-3.99,0-7.56-2.31-7.56-6.3,0-3.78,3.01-5.56,6.23-7.45-1.85-1.08-5.21-3.04-5.21-6.86,0-3.46,2.73-6.26,7-6.26,4.79,0,6.4,3.57,6.4,5.53,0,2.97-2.87,5.14-4.37,6.26,3.29,2.03,5.77,3.78,5.77,7.38ZM228.99,20.47c0,3.08,2.31,5.21,5.04,5.21,3.04,0,5.32-2.69,5.32-5.28,0-3.32-3.46-5.28-6.02-6.72-1.57,1.19-4.34,3.32-4.34,6.79ZM237.92,5.91c0-2.66-1.78-4.72-4.34-4.72s-4.13,1.89-4.13,4.16c0,2.45,1.99,3.67,5.63,5.84,1.01-.88,2.83-2.38,2.83-5.28Z"/><path class="cls-1" d="M252.05,10.1c0,.2-.14.24-.57.35-.2.06-.57.65-1.01,1.38-2.35,3.87-5.57,5.61-6.02,5.61-.08,0-.12-.04-.12-.12,0-.12.04-.14.43-.45,2.74-2.15,4.28-5.51,4.56-6.12.14-.3.67-2.03.69-2.03.14-.06,2.05,1.03,2.05,1.38ZM254.02,16.02c-.53,0-.53.04-.65,1.11-.18,1.78-.57,5.29-4.09,7.26-1.66.93-3.77,1.32-3.87,1.32-.06,0-.24,0-.24-.14,0-.1.1-.14.47-.26,1.4-.51,3.02-1.46,3.99-2.45,1.5-1.52,2.29-4.28,2.29-6.38,0-.45-.2-.45-.51-.45h-.61c-.75,0-1.72.02-2.09.04-.08.02-.36.06-.43.06-.08,0-.12-.06-.18-.14l-.41-.47c-.06-.08-.08-.1-.08-.12,0-.04.02-.06.08-.06.14,0,.75.08.89.08.99.04,1.82.06,2.78.06h4.44c.91,0,1.01-.04,1.34-.39.3-.32.49-.45.63-.45.32,0,1.5.93,1.5,1.36,0,.1-.32.47-.36.55-.1.2-.22,2.51-.26,2.98-.22,2.45-.39,4.11-.95,5.03-.55.87-1.76,1.21-2.07,1.21-.22,0-.22-.06-.38-.63-.12-.47-.81-.73-1.86-1.03-.45-.12-.67-.2-.67-.32s.18-.12.22-.12c.14,0,.69.12.79.14,1.07.14,1.2.16,1.44.16.97,0,1.52-.18,1.8-2.27.2-1.56.41-3.91.41-4.95,0-.55-.04-.73-.61-.73h-2.74ZM255.03,9.5c-.51,0-1.2.02-1.62.04-.06,0-.34.04-.41.04s-.08-.02-.16-.12l-.38-.46s-.06-.1-.06-.14c0-.02.02-.04.06-.04.12,0,.71.08.83.08.22.02,1.07.06,1.22.06.47,0,.73-.34.85-.53.41-.57.45-.63.61-.63.26,0,1.76,1.01,1.76,1.46,0,.2-.06.22-.61.36-.1.02-.41.12-.41.43,0,1.05,2.67,4.28,6.1,4.62.06,0,.3.04.3.16,0,.1-.53.22-.61.24-.53.26-.97.63-1.24.93-.04.06-.26.3-.32.3-.69,0-4.03-2.8-4.84-5.86-.22-.87-.26-.95-.73-.95h-.34Z"/><path class="cls-1" d="M269.06,24.61c.1.11.59.64.59.71,0,.03-.02.07-.08.07-.12,0-2.89-1.99-2.89-5.72s2.77-5.72,2.89-5.72c.06,0,.08.05.08.07,0,.07-.49.6-.59.71-.48.6-1.73,2.32-1.73,4.94s1.25,4.33,1.73,4.94Z"/><path class="cls-1" d="M271.84,24.23c-.26,0-.28-.16-.28-.19,0-.19.18-.19.61-.19.65,0,.96-.04,1.1-.37.08-.21.08-2.32.08-2.74,0-.58-.02-3.38-.02-4.01,0-.56-.17-.56-1.18-.56-.29,0-.41,0-.41-.16s.12-.17.49-.19c.29-.01.89-.13,1.36-.3.08-.02.49-.26.59-.26.13,0,.13.04.13.58,0,.32-.02,1.87-.02,2.23,0,.55.01,5.16.05,5.29.08.35.25.49,1.14.49.11,0,.29,0,.29.22,0,.17-.19.17-.3.17h-3.64Z"/><path class="cls-1" d="M282.66,15.47v.64c-1.91,2.94-2.58,4.61-2.74,7.29-.02.31-.06,1.07-.67,1.07-.3,0-.61-.25-.61-.66,0-.85.84-3.38,3.38-7.39h-2.05c-1.74,0-2,.8-2.27,1.57l-.36-.08.49-2.44h4.84Z"/><path class="cls-1" d="M288.3,15.78c0,.12-.08.14-.34.2-.12.04-.34.38-.6.82-1.39,2.29-3.3,3.33-3.57,3.33-.05,0-.07-.02-.07-.07,0-.07.02-.08.25-.26,1.62-1.27,2.54-3.27,2.7-3.63.08-.18.4-1.2.41-1.2.08-.04,1.21.61,1.21.82ZM289.47,19.29c-.31,0-.31.02-.38.66-.11,1.06-.34,3.13-2.43,4.3-.99.55-2.23.78-2.29.78-.04,0-.14,0-.14-.08,0-.06.06-.08.28-.16.83-.3,1.79-.87,2.37-1.45.89-.9,1.36-2.53,1.36-3.78,0-.26-.12-.26-.3-.26h-.36c-.44,0-1.02.01-1.24.02-.05.01-.21.04-.25.04-.05,0-.07-.04-.11-.08l-.24-.28s-.05-.06-.05-.07c0-.02.01-.04.05-.04.08,0,.44.05.53.05.59.02,1.08.04,1.65.04h2.63c.54,0,.6-.02.79-.23.18-.19.29-.26.37-.26.19,0,.89.55.89.8,0,.06-.19.28-.22.32-.06.12-.13,1.49-.16,1.76-.13,1.45-.23,2.44-.56,2.98-.32.52-1.04.72-1.22.72-.13,0-.13-.04-.23-.37-.07-.28-.48-.43-1.1-.61-.26-.07-.4-.12-.4-.19s.11-.07.13-.07c.08,0,.41.07.47.08.64.08.71.1.85.1.58,0,.9-.11,1.07-1.34.12-.92.24-2.32.24-2.93,0-.32-.03-.43-.36-.43h-1.62ZM290.07,15.42c-.3,0-.71.01-.96.02-.04,0-.21.03-.24.03-.04,0-.05-.01-.1-.07l-.23-.28s-.04-.06-.04-.08c0-.01.01-.02.04-.02.07,0,.42.05.49.05.13.01.64.04.72.04.28,0,.43-.2.5-.31.24-.34.26-.37.36-.37.16,0,1.04.6,1.04.86,0,.12-.04.13-.36.22-.06.01-.24.07-.24.25,0,.62,1.59,2.53,3.62,2.74.04,0,.18.02.18.1,0,.06-.31.13-.36.14-.31.16-.58.37-.73.55-.02.04-.16.18-.19.18-.41,0-2.39-1.66-2.87-3.47-.13-.52-.15-.56-.43-.56h-.2Z"/><path class="cls-1" d="M296.9,14.73c-.1-.11-.59-.64-.59-.71,0-.02.02-.07.08-.07.12,0,2.89,1.99,2.89,5.72s-2.77,5.72-2.89,5.72c-.06,0-.08-.05-.08-.07,0-.07.49-.6.59-.71.48-.6,1.73-2.32,1.73-4.94s-1.25-4.33-1.73-4.94Z"/></g></svg>