<?xml version="1.0" encoding="UTF-8"?>
<svg id="_レイヤー_2" data-name="レイヤー 2" xmlns="http://www.w3.org/2000/svg" viewBox="0 0 701.86 61.56">
  <defs>
    <style>
      .cls-1 {
        letter-spacing: -.16em;
      }

      .cls-2 {
        letter-spacing: 0em;
      }

      .cls-3 {
        letter-spacing: -.15em;
      }

      .cls-4 {
        letter-spacing: -.08em;
      }

      .cls-5 {
        letter-spacing: -.16em;
      }

      .cls-6 {
        letter-spacing: -.13em;
      }

      .cls-7 {
        letter-spacing: -.03em;
      }

      .cls-8 {
        letter-spacing: -.06em;
      }

      .cls-9 {
        letter-spacing: -.03em;
      }

      .cls-10 {
        letter-spacing: -.21em;
      }

      .cls-11 {
        letter-spacing: -.11em;
      }

      .cls-12 {
        letter-spacing: -.1em;
      }

      .cls-13 {
        letter-spacing: -.05em;
      }

      .cls-14 {
        letter-spacing: -.04em;
      }

      .cls-15 {
        letter-spacing: 0em;
      }

      .cls-16 {
        letter-spacing: -.07em;
      }

      .cls-17 {
        letter-spacing: -.08em;
      }

      .cls-18 {
        fill: #231815;
        font-size: 11px;
      }

      .cls-18, .cls-19, .cls-20 {
        font-family: YuMinPr6N-Regular-83pv-RKSJ-H, 'Yu Mincho Pr6N';
      }

      .cls-19 {
        fill: #3e3a39;
        font-size: 9.8px;
      }

      .cls-21 {
        letter-spacing: 0em;
      }

      .cls-22 {
        letter-spacing: 0em;
      }

      .cls-23 {
        letter-spacing: -.11em;
      }

      .cls-24 {
        letter-spacing: -.1em;
      }

      .cls-25 {
        letter-spacing: 0em;
      }

      .cls-26 {
        letter-spacing: 0em;
      }

      .cls-27 {
        letter-spacing: 0em;
      }

      .cls-28 {
        fill: none;
        stroke: #231815;
        stroke-miterlimit: 10;
        stroke-width: .3px;
      }

      .cls-29 {
        letter-spacing: -.15em;
      }

      .cls-30 {
        letter-spacing: -.14em;
      }

      .cls-31 {
        letter-spacing: -.06em;
      }

      .cls-32 {
        letter-spacing: -.5em;
      }

      .cls-33 {
        letter-spacing: -.5em;
      }

      .cls-34 {
        letter-spacing: -.03em;
      }

      .cls-35 {
        letter-spacing: -.01em;
      }

      .cls-20 {
        fill: #fff;
        font-size: 8px;
      }

      .cls-36 {
        letter-spacing: -.13em;
      }

      .cls-37 {
        letter-spacing: -.05em;
      }
    </style>
  </defs>
  <g id="_レイヤー_1-2" data-name="レイヤー 1">
    <text class="cls-19" transform="translate(145.27 9.68)"><tspan x="0" y="0">約39</tspan><tspan class="cls-9" x="20.42" y="0">0</tspan><tspan class="cls-34" x="25.4" y="0">ｍ</tspan><tspan class="cls-2" x="34.86" y="0">／徒歩5分</tspan></text>
    <line class="cls-28" x1="225.35" y1="15.41" x2=".29" y2="15.41"/>
    <text class="cls-19" transform="translate(145.27 32.68)"><tspan x="0" y="0">約39</tspan><tspan class="cls-9" x="20.42" y="0">0</tspan><tspan class="cls-34" x="25.4" y="0">ｍ</tspan><tspan class="cls-2" x="34.86" y="0">／徒歩5分</tspan></text>
    <text class="cls-19" transform="translate(145.27 55.68)"><tspan x="0" y="0">約61</tspan><tspan class="cls-9" x="20.42" y="0">0</tspan><tspan class="cls-34" x="25.4" y="0">ｍ</tspan><tspan class="cls-2" x="34.86" y="0">／徒歩8分</tspan></text>
    <line class="cls-28" x1="225.35" y1="61.41" x2=".29" y2="61.41"/>
    <text class="cls-19" transform="translate(11.97 9.68)"><tspan x="0" y="0">柳島幼稚園</tspan></text>
    <text class="cls-19" transform="translate(11.37 32.68) scale(.81 1)"><tspan class="cls-10" x="0" y="0">キ</tspan><tspan class="cls-29" x="7.75" y="0">ッ</tspan><tspan class="cls-4" x="16.09" y="0">ズ</tspan><tspan class="cls-7" x="25.1" y="0">ガ</tspan><tspan class="cls-8" x="34.56" y="0">ー</tspan><tspan class="cls-23" x="43.77" y="0">デ</tspan><tspan class="cls-5" x="52.48" y="0">ン</tspan><tspan class="cls-12" x="60.68" y="0">グ</tspan><tspan class="cls-24" x="69.54" y="0">ロ</tspan><tspan class="cls-15" x="78.36" y="0">ー</tspan><tspan class="cls-14" x="88.07" y="0">バ</tspan><tspan class="cls-37" x="97.46" y="0">ル</tspan><tspan class="cls-3" x="106.75" y="0">ス</tspan><tspan class="cls-6" x="115.04" y="0">ク</tspan><tspan class="cls-13" x="123.58" y="0">ー</tspan><tspan class="cls-27" x="132.91" y="0">ル</tspan><tspan class="cls-26" x="142.8" y="0">錦糸町</tspan></text>
    <text class="cls-19" transform="translate(11.36 55.68)"><tspan class="cls-36" x="0" y="0">ま</tspan><tspan class="cls-16" x="8.51" y="0">な</tspan><tspan class="cls-25" x="17.58" y="0">び</tspan><tspan class="cls-35" x="27.43" y="0">の</tspan><tspan x="37.1" y="0">森保育園錦糸町</tspan></text>
    <text class="cls-18" transform="translate(0 9.68)"><tspan x="0" y="0">●</tspan></text>
    <g>
      <text class="cls-18" transform="translate(0 32.68)"><tspan x="0" y="0">●</tspan></text>
      <text class="cls-20" transform="translate(3.33 31.65)"><tspan x="0" y="0">2</tspan></text>
    </g>
    <g>
      <text class="cls-18" transform="translate(0 55.78)"><tspan x="0" y="0">●</tspan></text>
      <text class="cls-20" transform="translate(3.33 54.75)"><tspan x="0" y="0">3</tspan></text>
    </g>
    <text class="cls-19" transform="translate(383.52 9.68)"><tspan x="0" y="0">約72</tspan><tspan class="cls-9" x="20.42" y="0">0</tspan><tspan class="cls-34" x="25.4" y="0">ｍ</tspan><tspan class="cls-2" x="34.86" y="0">／徒歩9分</tspan></text>
    <line class="cls-28" x1="463.61" y1="15.41" x2="238.55" y2="15.41"/>
    <text class="cls-19" transform="translate(378.21 32.68)"><tspan x="0" y="0">約74</tspan><tspan class="cls-9" x="20.42" y="0">0</tspan><tspan class="cls-34" x="25.4" y="0">ｍ</tspan><tspan class="cls-2" x="34.86" y="0">／徒歩10分</tspan></text>
    <line class="cls-28" x1="463.61" y1="38.41" x2="238.55" y2="38.41"/>
    <text class="cls-19" transform="translate(378.21 55.68)"><tspan x="0" y="0">約80</tspan><tspan class="cls-9" x="20.42" y="0">0</tspan><tspan class="cls-34" x="25.4" y="0">ｍ</tspan><tspan class="cls-2" x="34.86" y="0">／徒歩10分</tspan></text>
    <line class="cls-28" x1="463.61" y1="61.41" x2="238.55" y2="61.41"/>
    <text class="cls-19" transform="translate(249.32 9.68)"><tspan class="cls-30" x="0" y="0">き</tspan><tspan class="cls-1" x="8.47" y="0">ん</tspan><tspan class="cls-17" x="16.73" y="0">し</tspan><tspan x="25.71" y="0">保育園</tspan></text>
    <text class="cls-19" transform="translate(250.24 32.68)"><tspan class="cls-31" x="0" y="0">す</tspan><tspan class="cls-11" x="9.18" y="0">こ</tspan><tspan class="cls-21" x="17.92" y="0">や</tspan><tspan class="cls-22" x="27.71" y="0">か</tspan><tspan class="cls-2" x="37.6" y="0">錦糸保育園</tspan></text>
    <text class="cls-19" transform="translate(250.22 55.68)"><tspan x="0" y="0">横川橋保育園</tspan></text>
    <g>
      <text class="cls-18" transform="translate(238.25 9.68)"><tspan x="0" y="0">●</tspan></text>
      <text class="cls-20" transform="translate(241.58 8.65)"><tspan x="0" y="0">4</tspan></text>
    </g>
    <g>
      <text class="cls-18" transform="translate(238.25 32.68)"><tspan x="0" y="0">●</tspan></text>
      <text class="cls-20" transform="translate(241.58 31.65)"><tspan x="0" y="0">5</tspan></text>
    </g>
    <g>
      <text class="cls-18" transform="translate(238.25 55.78)"><tspan x="0" y="0">●</tspan></text>
      <text class="cls-20" transform="translate(241.58 54.75)"><tspan x="0" y="0">6</tspan></text>
    </g>
    <text class="cls-19" transform="translate(616.46 9.68)"><tspan x="0" y="0">約82</tspan><tspan class="cls-9" x="20.42" y="0">0</tspan><tspan class="cls-34" x="25.4" y="0">ｍ</tspan><tspan class="cls-2" x="34.86" y="0">／徒歩11分</tspan></text>
    <line class="cls-28" x1="701.86" y1="15.41" x2="476.8" y2="15.41"/>
    <text class="cls-19" transform="translate(616.46 32.68)"><tspan x="0" y="0">約88</tspan><tspan class="cls-9" x="20.42" y="0">0</tspan><tspan class="cls-34" x="25.4" y="0">ｍ</tspan><tspan class="cls-2" x="34.86" y="0">／徒歩11分</tspan></text>
    <line class="cls-28" x1="701.86" y1="38.41" x2="476.8" y2="38.41"/>
    <text class="cls-19" transform="translate(608.47 55.68)"><tspan x="0" y="0">約1,09</tspan><tspan class="cls-9" x="28.41" y="0">0</tspan><tspan class="cls-34" x="33.39" y="0">ｍ</tspan><tspan class="cls-2" x="42.85" y="0">／徒歩14分</tspan></text>
    <line class="cls-28" x1="701.86" y1="61.41" x2="476.8" y2="61.41"/>
    <text class="cls-19" transform="translate(488.47 9.68)"><tspan x="0" y="0">太平保育園</tspan></text>
    <text class="cls-19" transform="translate(488.47 32.68)"><tspan x="0" y="0">区立錦糸小学</tspan><tspan class="cls-33" x="58.8" y="0">校</tspan><tspan x="63.7" y="0">【通学区</tspan><tspan class="cls-32" x="102.9" y="0">】</tspan></text>
    <text class="cls-19" transform="translate(488.47 55.68)"><tspan x="0" y="0">区立錦糸中学</tspan><tspan class="cls-33" x="58.8" y="0">校</tspan><tspan x="63.7" y="0">【通学区</tspan><tspan class="cls-32" x="102.9" y="0">】</tspan></text>
    <g>
      <text class="cls-18" transform="translate(476.5 9.68)"><tspan x="0" y="0">●</tspan></text>
      <text class="cls-20" transform="translate(479.84 8.65)"><tspan x="0" y="0">7</tspan></text>
    </g>
    <g>
      <text class="cls-18" transform="translate(476.5 32.68)"><tspan x="0" y="0">●</tspan></text>
      <text class="cls-20" transform="translate(479.84 31.65)"><tspan x="0" y="0">8</tspan></text>
    </g>
    <g>
      <text class="cls-18" transform="translate(476.5 55.78)"><tspan x="0" y="0">●</tspan></text>
      <text class="cls-20" transform="translate(479.84 54.75)"><tspan x="0" y="0">9</tspan></text>
    </g>
  </g>
</svg>