<?xml version="1.0" encoding="UTF-8"?>
<svg id="_レイヤー_2" data-name="レイヤー 2" xmlns="http://www.w3.org/2000/svg" viewBox="0 0 701.86 61.56">
  <defs>
    <style>
      .cls-1 {
        letter-spacing: -.08em;
      }

      .cls-2 {
        letter-spacing: -.04em;
      }

      .cls-3 {
        letter-spacing: -.05em;
      }

      .cls-4 {
        letter-spacing: -.01em;
      }

      .cls-5 {
        letter-spacing: 0em;
      }

      .cls-6 {
        letter-spacing: -.16em;
      }

      .cls-7 {
        letter-spacing: -.03em;
      }

      .cls-8 {
        letter-spacing: -.09em;
      }

      .cls-9 {
        letter-spacing: -.05em;
      }

      .cls-10 {
        letter-spacing: -.19em;
      }

      .cls-11 {
        letter-spacing: -.19em;
      }

      .cls-12 {
        letter-spacing: -.04em;
      }

      .cls-13 {
        letter-spacing: -.08em;
      }

      .cls-14 {
        letter-spacing: -.17em;
      }

      .cls-15 {
        letter-spacing: -.04em;
      }

      .cls-16 {
        fill: #231815;
        font-size: 11px;
      }

      .cls-16, .cls-17, .cls-18, .cls-19 {
        font-family: YuMinPr6N-Regular-83pv-RKSJ-H, 'Yu Mincho Pr6N';
      }

      .cls-20 {
        letter-spacing: -.17em;
      }

      .cls-21 {
        letter-spacing: -.07em;
      }

      .cls-17 {
        font-size: 9.93px;
      }

      .cls-17, .cls-18 {
        fill: #3e3a39;
      }

      .cls-22 {
        letter-spacing: -.03em;
      }

      .cls-18 {
        font-size: 9.8px;
      }

      .cls-23 {
        letter-spacing: -.21em;
      }

      .cls-24 {
        letter-spacing: -.21em;
      }

      .cls-25 {
        letter-spacing: -.11em;
      }

      .cls-26 {
        letter-spacing: -.22em;
      }

      .cls-27 {
        letter-spacing: -.1em;
      }

      .cls-28 {
        fill: none;
        stroke: #231815;
        stroke-miterlimit: 10;
        stroke-width: .3px;
      }

      .cls-29 {
        letter-spacing: -.12em;
      }

      .cls-30 {
        letter-spacing: -.13em;
      }

      .cls-31 {
        letter-spacing: -.29em;
      }

      .cls-32 {
        letter-spacing: -.3em;
      }

      .cls-33 {
        letter-spacing: -.07em;
      }

      .cls-34 {
        letter-spacing: -.25em;
      }

      .cls-35 {
        letter-spacing: -.07em;
      }

      .cls-36 {
        letter-spacing: -.13em;
      }

      .cls-37 {
        letter-spacing: -.03em;
      }

      .cls-38 {
        letter-spacing: -.12em;
      }

      .cls-19 {
        fill: #fff;
        font-size: 8px;
      }

      .cls-39 {
        letter-spacing: -.13em;
      }

      .cls-40 {
        letter-spacing: -.13em;
      }

      .cls-41 {
        letter-spacing: -.13em;
      }
    </style>
  </defs>
  <g id="_レイヤー_1-2" data-name="レイヤー 1">
    <text class="cls-18" transform="translate(145.27 9.68)"><tspan x="0" y="0">約21</tspan><tspan class="cls-7" x="20.42" y="0">0</tspan><tspan class="cls-37" x="25.4" y="0">ｍ</tspan><tspan class="cls-5" x="34.86" y="0">／徒歩3分</tspan></text>
    <line class="cls-28" x1="225.35" y1="15.41" x2=".29" y2="15.41"/>
    <text class="cls-18" transform="translate(145.27 32.68)"><tspan x="0" y="0">約27</tspan><tspan class="cls-7" x="20.42" y="0">0</tspan><tspan class="cls-37" x="25.4" y="0">ｍ</tspan><tspan class="cls-5" x="34.86" y="0">／徒歩4分</tspan></text>
    <line class="cls-28" x1="225.35" y1="38.41" x2=".29" y2="38.41"/>
    <text class="cls-18" transform="translate(145.27 55.68)"><tspan x="0" y="0">約32</tspan><tspan class="cls-7" x="20.42" y="0">0</tspan><tspan class="cls-37" x="25.4" y="0">ｍ</tspan><tspan class="cls-5" x="34.86" y="0">／徒歩4分</tspan></text>
    <line class="cls-28" x1="225.35" y1="61.41" x2=".29" y2="61.41"/>
    <text class="cls-18" transform="translate(11.97 9.68)"><tspan x="0" y="0">錦糸公園</tspan></text>
    <text class="cls-18" transform="translate(11.97 32.68)"><tspan x="0" y="0">亀戸野球</tspan><tspan class="cls-34" x="39.2" y="0">場・</tspan><tspan class="cls-5" x="53.9" y="0">庭球場</tspan></text>
    <text class="cls-18" transform="translate(11.97 55.68)"><tspan x="0" y="0">横川東公園</tspan></text>
    <g>
      <text class="cls-16" transform="translate(0 9.68)"><tspan x="0" y="0">●</tspan></text>
      <text class="cls-19" transform="translate(3.33 8.65)"><tspan x="0" y="0">1</tspan></text>
    </g>
    <g>
      <text class="cls-16" transform="translate(0 32.68)"><tspan x="0" y="0">●</tspan></text>
      <text class="cls-19" transform="translate(3.33 31.65)"><tspan x="0" y="0">2</tspan></text>
    </g>
    <g>
      <text class="cls-16" transform="translate(0 55.78)"><tspan x="0" y="0">●</tspan></text>
      <text class="cls-19" transform="translate(3.33 54.75)"><tspan x="0" y="0">3</tspan></text>
    </g>
    <text class="cls-18" transform="translate(383.52 9.68)"><tspan x="0" y="0">約36</tspan><tspan class="cls-7" x="20.42" y="0">0</tspan><tspan class="cls-37" x="25.4" y="0">ｍ</tspan><tspan class="cls-5" x="34.86" y="0">／徒歩5分</tspan></text>
    <line class="cls-28" x1="463.61" y1="15.41" x2="238.55" y2="15.41"/>
    <text class="cls-18" transform="translate(383.52 32.68)"><tspan x="0" y="0">約38</tspan><tspan class="cls-7" x="20.42" y="0">0</tspan><tspan class="cls-37" x="25.4" y="0">ｍ</tspan><tspan class="cls-5" x="34.86" y="0">／徒歩5分</tspan></text>
    <line class="cls-28" x1="463.61" y1="38.41" x2="238.55" y2="38.41"/>
    <text class="cls-18" transform="translate(383.52 55.68)"><tspan x="0" y="0">約38</tspan><tspan class="cls-7" x="20.42" y="0">0</tspan><tspan class="cls-37" x="25.4" y="0">ｍ</tspan><tspan class="cls-5" x="34.86" y="0">／徒歩5分</tspan></text>
    <line class="cls-28" x1="463.61" y1="61.41" x2="238.55" y2="61.41"/>
    <text class="cls-18" transform="translate(250.22 9.68)"><tspan x="0" y="0">錦糸公</tspan><tspan class="cls-7" x="29.4" y="0">園</tspan><tspan class="cls-35" x="38.87" y="0">テ</tspan><tspan class="cls-8" x="48.02" y="0">ニ</tspan><tspan class="cls-25" x="56.9" y="0">ス</tspan><tspan class="cls-1" x="65.61" y="0">コ</tspan><tspan class="cls-24" x="74.65" y="0">ー</tspan><tspan class="cls-20" x="82.34" y="0">ト</tspan></text>
    <text class="cls-18" transform="translate(250.22 32.68)"><tspan x="0" y="0">墨田区総合体育館</tspan></text>
    <text class="cls-18" transform="translate(250.22 55.68)"><tspan x="0" y="0">錦糸公園野球場</tspan></text>
    <g>
      <text class="cls-16" transform="translate(238.25 9.68)"><tspan x="0" y="0">●</tspan></text>
      <text class="cls-19" transform="translate(241.58 8.65)"><tspan x="0" y="0">4</tspan></text>
    </g>
    <g>
      <text class="cls-16" transform="translate(238.25 32.68)"><tspan x="0" y="0">●</tspan></text>
      <text class="cls-19" transform="translate(241.58 31.65)"><tspan x="0" y="0">5</tspan></text>
    </g>
    <g>
      <text class="cls-16" transform="translate(238.25 55.78)"><tspan x="0" y="0">●</tspan></text>
      <text class="cls-19" transform="translate(241.58 54.75)"><tspan x="0" y="0">6</tspan></text>
    </g>
    <text class="cls-18" transform="translate(621.77 9.68)"><tspan x="0" y="0">約54</tspan><tspan class="cls-7" x="20.42" y="0">0</tspan><tspan class="cls-37" x="25.4" y="0">ｍ</tspan><tspan class="cls-5" x="34.86" y="0">／徒歩7分</tspan></text>
    <text class="cls-18" transform="translate(621.77 32.68)"><tspan x="0" y="0">約56</tspan><tspan class="cls-7" x="20.42" y="0">0</tspan><tspan class="cls-37" x="25.4" y="0">ｍ</tspan><tspan class="cls-5" x="34.86" y="0">／徒歩7分</tspan></text>
    <text class="cls-18" transform="translate(616.46 55.68)"><tspan x="0" y="0">約89</tspan><tspan class="cls-7" x="20.42" y="0">0</tspan><tspan class="cls-37" x="25.4" y="0">ｍ</tspan><tspan class="cls-5" x="34.86" y="0">／徒歩12分</tspan></text>
    <line class="cls-28" x1="701.86" y1="61.41" x2="476.8" y2="61.41"/>
    <text class="cls-17" transform="translate(487.98 9.68) scale(.81 1)"><tspan class="cls-9" x="0" y="0">ス</tspan><tspan class="cls-33" x="9.38" y="0">ポ</tspan><tspan class="cls-27" x="18.64" y="0">ー</tspan><tspan class="cls-6" x="27.59" y="0">ツ</tspan><tspan class="cls-10" x="35.9" y="0">ク</tspan><tspan class="cls-39" x="43.95" y="0">ラ</tspan><tspan class="cls-13" x="52.57" y="0">ブ</tspan><tspan class="cls-36" x="61.75" y="0">＆</tspan><tspan class="cls-4" x="70.36" y="0">ス</tspan><tspan class="cls-12" x="80.19" y="0">パ</tspan><tspan class="cls-22" x="89.7" y="0">ル</tspan><tspan class="cls-21" x="99.36" y="0">ネ</tspan><tspan class="cls-30" x="108.56" y="0">サ</tspan><tspan class="cls-41" x="117.24" y="0">ン</tspan><tspan class="cls-15" x="125.87" y="0">ス</tspan><tspan x="135.44" y="0">亀戸24</tspan></text>
    <text class="cls-18" transform="translate(488.36 32.68)"><tspan class="cls-3" x="0" y="0">エ</tspan><tspan class="cls-38" x="9.35" y="0">ニ</tspan><tspan class="cls-11" x="18.01" y="0">タ</tspan><tspan class="cls-14" x="25.97" y="0">イ</tspan><tspan class="cls-40" x="34.12" y="0">ム</tspan><tspan class="cls-26" x="42.64" y="0">フ</tspan><tspan class="cls-32" x="50.32" y="0">ィ</tspan><tspan class="cls-31" x="57.19" y="0">ッ</tspan><tspan class="cls-23" x="64.13" y="0">ト</tspan><tspan class="cls-29" x="71.9" y="0">ネ</tspan><tspan class="cls-2" x="80.48" y="0">ス</tspan><tspan x="89.93" y="0">錦糸町店</tspan></text>
    <text class="cls-18" transform="translate(488.47 55.68)"><tspan x="0" y="0">大横川親水公園</tspan></text>
    <g>
      <text class="cls-16" transform="translate(476.5 9.68)"><tspan x="0" y="0">●</tspan></text>
      <text class="cls-19" transform="translate(479.84 8.65)"><tspan x="0" y="0">7</tspan></text>
    </g>
    <g>
      <text class="cls-16" transform="translate(476.5 32.68)"><tspan x="0" y="0">●</tspan></text>
      <text class="cls-19" transform="translate(479.84 31.65)"><tspan x="0" y="0">8</tspan></text>
    </g>
    <g>
      <text class="cls-16" transform="translate(476.5 55.78)"><tspan x="0" y="0">●</tspan></text>
      <text class="cls-19" transform="translate(479.84 54.75)"><tspan x="0" y="0">9</tspan></text>
    </g>
  </g>
</svg>