<?xml version="1.0" encoding="UTF-8"?>
<svg id="_レイヤー_2" data-name="レイヤー 2" xmlns="http://www.w3.org/2000/svg" viewBox="0 0 701.86 61.56">
  <defs>
    <style>
      .cls-1 {
        letter-spacing: -.18em;
      }

      .cls-2 {
        letter-spacing: -.18em;
      }

      .cls-3 {
        letter-spacing: -.04em;
      }

      .cls-4 {
        letter-spacing: -.14em;
      }

      .cls-5 {
        letter-spacing: -.08em;
      }

      .cls-6 {
        letter-spacing: -.04em;
      }

      .cls-7 {
        letter-spacing: -.04em;
      }

      .cls-8 {
        letter-spacing: 0em;
      }

      .cls-9 {
        letter-spacing: -.02em;
      }

      .cls-10 {
        letter-spacing: 0em;
      }

      .cls-11 {
        letter-spacing: -.26em;
      }

      .cls-12 {
        letter-spacing: -.03em;
      }

      .cls-13 {
        letter-spacing: -.03em;
      }

      .cls-14 {
        letter-spacing: -.13em;
      }

      .cls-15 {
        letter-spacing: -.06em;
      }

      .cls-16 {
        letter-spacing: -.21em;
      }

      .cls-17 {
        letter-spacing: -.18em;
      }

      .cls-18 {
        letter-spacing: -.01em;
      }

      .cls-19 {
        letter-spacing: -.05em;
      }

      .cls-20 {
        letter-spacing: -.1em;
      }

      .cls-21 {
        letter-spacing: -.17em;
      }

      .cls-22 {
        letter-spacing: -.17em;
      }

      .cls-23 {
        fill: #231815;
        font-size: 11px;
      }

      .cls-23, .cls-24, .cls-25 {
        font-family: YuMinPr6N-Regular-83pv-RKSJ-H, 'Yu Mincho Pr6N';
      }

      .cls-26 {
        letter-spacing: -.17em;
      }

      .cls-27 {
        letter-spacing: -.07em;
      }

      .cls-28 {
        letter-spacing: -.23em;
      }

      .cls-24 {
        fill: #3e3a39;
        font-size: 9.8px;
      }

      .cls-29 {
        letter-spacing: -.21em;
      }

      .cls-30 {
        letter-spacing: 0em;
      }

      .cls-31 {
        letter-spacing: -.02em;
      }

      .cls-32 {
        letter-spacing: -.2em;
      }

      .cls-33 {
        letter-spacing: -.21em;
      }

      .cls-34 {
        letter-spacing: -.06em;
      }

      .cls-35 {
        letter-spacing: 0em;
      }

      .cls-36 {
        letter-spacing: -.2em;
      }

      .cls-37 {
        letter-spacing: -.04em;
      }

      .cls-38 {
        letter-spacing: -.09em;
      }

      .cls-39 {
        fill: none;
        stroke: #231815;
        stroke-miterlimit: 10;
        stroke-width: .3px;
      }

      .cls-40 {
        letter-spacing: -.15em;
      }

      .cls-41 {
        letter-spacing: -.29em;
      }

      .cls-42 {
        letter-spacing: -.03em;
      }

      .cls-25 {
        fill: #fff;
        font-size: 8px;
      }

      .cls-43 {
        letter-spacing: -.13em;
      }

      .cls-44 {
        letter-spacing: 0em;
      }

      .cls-45 {
        letter-spacing: -.03em;
      }

      .cls-46 {
        letter-spacing: -.23em;
      }

      .cls-47 {
        letter-spacing: -.1em;
      }
    </style>
  </defs>
  <g id="_レイヤー_1-2" data-name="レイヤー 1">
    <text class="cls-24" transform="translate(145.27 9.68)"><tspan x="0" y="0">約24</tspan><tspan class="cls-13" x="20.42" y="0">0</tspan><tspan class="cls-42" x="25.4" y="0">ｍ</tspan><tspan class="cls-8" x="34.86" y="0">／徒歩3分</tspan></text>
    <line class="cls-39" x1="225.35" y1="15.41" x2=".29" y2="15.41"/>
    <text class="cls-24" transform="translate(145.27 32.68)"><tspan x="0" y="0">約48</tspan><tspan class="cls-13" x="20.42" y="0">0</tspan><tspan class="cls-42" x="25.4" y="0">ｍ</tspan><tspan class="cls-8" x="34.86" y="0">／徒歩6分</tspan></text>
    <line class="cls-39" x1="225.35" y1="38.41" x2=".29" y2="38.41"/>
    <text class="cls-24" transform="translate(145.27 55.68)"><tspan x="0" y="0">約54</tspan><tspan class="cls-13" x="20.42" y="0">0</tspan><tspan class="cls-42" x="25.4" y="0">ｍ</tspan><tspan class="cls-8" x="34.86" y="0">／徒歩7分</tspan></text>
    <line class="cls-39" x1="225.35" y1="61.41" x2=".29" y2="61.41"/>
    <text class="cls-24" transform="translate(11.5 9.68)"><tspan class="cls-40" x="0" y="0">オ</tspan><tspan class="cls-43" x="8.34" y="0">リ</tspan><tspan class="cls-27" x="16.85" y="0">ナ</tspan><tspan class="cls-3" x="25.93" y="0">ス</tspan><tspan class="cls-8" x="35.38" y="0">錦糸町</tspan></text>
    <text class="cls-24" transform="translate(11.97 32.68)"><tspan class="cls-18" x="0" y="0">肉</tspan><tspan class="cls-10" x="9.68" y="0">の</tspan><tspan class="cls-6" x="19.56" y="0">ハ</tspan><tspan class="cls-30" x="28.96" y="0">ナ</tspan><tspan class="cls-31" x="38.74" y="0">マ</tspan><tspan class="cls-44" x="48.38" y="0">サ</tspan><tspan x="58.13" y="0">錦糸町店</tspan></text>
    <text class="cls-24" transform="translate(11.23 55.68)"><tspan class="cls-45" x="0" y="0">コ</tspan><tspan class="cls-7" x="9.54" y="0">モ</tspan><tspan class="cls-4" x="18.94" y="0">デ</tspan><tspan class="cls-11" x="27.32" y="0">ィ</tspan><tspan class="cls-33" x="34.6" y="0">イ</tspan><tspan class="cls-17" x="42.3" y="0">イ</tspan><tspan class="cls-35" x="50.36" y="0">ダ</tspan><tspan class="cls-8" x="60.25" y="0">食彩館亀戸店</tspan></text>
    <g>
      <text class="cls-23" transform="translate(0 9.68)"><tspan x="0" y="0">●</tspan></text>
      <text class="cls-25" transform="translate(3.33 8.65)"><tspan x="0" y="0">1</tspan></text>
    </g>
    <g>
      <text class="cls-23" transform="translate(0 32.68)"><tspan x="0" y="0">●</tspan></text>
      <text class="cls-25" transform="translate(3.33 31.65)"><tspan x="0" y="0">2</tspan></text>
    </g>
    <g>
      <text class="cls-23" transform="translate(0 55.78)"><tspan x="0" y="0">●</tspan></text>
      <text class="cls-25" transform="translate(3.33 54.75)"><tspan x="0" y="0">3</tspan></text>
    </g>
    <text class="cls-24" transform="translate(383.52 9.68)"><tspan x="0" y="0">約56</tspan><tspan class="cls-13" x="20.42" y="0">0</tspan><tspan class="cls-42" x="25.4" y="0">ｍ</tspan><tspan class="cls-8" x="34.86" y="0">／徒歩7分</tspan></text>
    <line class="cls-39" x1="463.61" y1="15.41" x2="238.55" y2="15.41"/>
    <text class="cls-24" transform="translate(383.52 32.68)"><tspan x="0" y="0">約68</tspan><tspan class="cls-13" x="20.42" y="0">0</tspan><tspan class="cls-42" x="25.4" y="0">ｍ</tspan><tspan class="cls-8" x="34.86" y="0">／徒歩9分</tspan></text>
    <line class="cls-39" x1="463.61" y1="38.41" x2="238.55" y2="38.41"/>
    <text class="cls-24" transform="translate(378.21 55.68)"><tspan x="0" y="0">約79</tspan><tspan class="cls-13" x="20.42" y="0">0</tspan><tspan class="cls-42" x="25.4" y="0">ｍ</tspan><tspan class="cls-8" x="34.86" y="0">／徒歩10分</tspan></text>
    <line class="cls-39" x1="463.61" y1="61.41" x2="238.55" y2="61.41"/>
    <text class="cls-24" transform="translate(248.58 9.68)"><tspan class="cls-1" x="0" y="0">ド</tspan><tspan class="cls-29" x="8.04" y="0">ラ</tspan><tspan class="cls-32" x="15.78" y="0">ッ</tspan><tspan class="cls-5" x="23.57" y="0">グ</tspan><tspan class="cls-20" x="32.6" y="0">セ</tspan><tspan class="cls-22" x="41.4" y="0">イ</tspan><tspan class="cls-47" x="49.55" y="0">ム</tspan><tspan class="cls-3" x="58.32" y="0">ス</tspan><tspan class="cls-8" x="67.77" y="0">墨田横川店</tspan></text>
    <text class="cls-24" transform="translate(249.75 32.68)"><tspan class="cls-40" x="0" y="0">オ</tspan><tspan class="cls-46" x="8.34" y="0">リ</tspan><tspan class="cls-4" x="15.84" y="0">ン</tspan><tspan class="cls-36" x="24.22" y="0">ピ</tspan><tspan class="cls-28" x="32.02" y="0">ッ</tspan><tspan class="cls-38" x="39.56" y="0">ク</tspan><tspan x="48.48" y="0">亀戸店</tspan></text>
    <text class="cls-24" transform="translate(250.22 55.68)"><tspan x="0" y="0">成城石井錦糸</tspan><tspan class="cls-12" x="58.8" y="0">町</tspan><tspan class="cls-19" x="68.27" y="0">テ</tspan><tspan class="cls-21" x="77.6" y="0">ル</tspan><tspan class="cls-2" x="85.7" y="0">ミ</tspan><tspan class="cls-18" x="93.75" y="0">ナ</tspan><tspan x="103.43" y="0">2店</tspan></text>
    <g>
      <text class="cls-23" transform="translate(238.25 9.68)"><tspan x="0" y="0">●</tspan></text>
      <text class="cls-25" transform="translate(241.58 8.65)"><tspan x="0" y="0">4</tspan></text>
    </g>
    <g>
      <text class="cls-23" transform="translate(238.25 32.68)"><tspan x="0" y="0">●</tspan></text>
      <text class="cls-25" transform="translate(241.58 31.65)"><tspan x="0" y="0">5</tspan></text>
    </g>
    <g>
      <text class="cls-23" transform="translate(238.25 55.78)"><tspan x="0" y="0">●</tspan></text>
      <text class="cls-25" transform="translate(241.58 54.75)"><tspan x="0" y="0">6</tspan></text>
    </g>
    <text class="cls-24" transform="translate(616.46 9.68)"><tspan x="0" y="0">約86</tspan><tspan class="cls-13" x="20.42" y="0">0</tspan><tspan class="cls-42" x="25.4" y="0">ｍ</tspan><tspan class="cls-8" x="34.86" y="0">／徒歩11分</tspan></text>
    <line class="cls-39" x1="701.86" y1="15.41" x2="476.8" y2="15.41"/>
    <text class="cls-24" transform="translate(616.46 32.68)"><tspan x="0" y="0">約86</tspan><tspan class="cls-13" x="20.42" y="0">0</tspan><tspan class="cls-42" x="25.4" y="0">ｍ</tspan><tspan class="cls-8" x="34.86" y="0">／徒歩11分</tspan></text>
    <line class="cls-39" x1="701.86" y1="38.41" x2="476.8" y2="38.41"/>
    <text class="cls-24" transform="translate(616.46 55.68)"><tspan x="0" y="0">約92</tspan><tspan class="cls-13" x="20.42" y="0">0</tspan><tspan class="cls-42" x="25.4" y="0">ｍ</tspan><tspan class="cls-8" x="34.86" y="0">／徒歩12分</tspan></text>
    <line class="cls-39" x1="701.86" y1="61.41" x2="476.8" y2="61.41"/>
    <text class="cls-24" transform="translate(488.47 9.68)"><tspan x="0" y="0">西友錦糸町店</tspan></text>
    <text class="cls-24" transform="translate(488.57 32.68)"><tspan class="cls-9" x="0" y="0">マ</tspan><tspan class="cls-30" x="9.6" y="0">ル</tspan><tspan class="cls-5" x="19.38" y="0">エ</tspan><tspan class="cls-37" x="28.41" y="0">ツ</tspan><tspan class="cls-8" x="37.77" y="0">錦糸町店</tspan></text>
    <text class="cls-24" transform="translate(487.99 55.68)"><tspan class="cls-34" x="0" y="0">ア</tspan><tspan class="cls-15" x="9.22" y="0">ル</tspan><tspan class="cls-14" x="18.43" y="0">カ</tspan><tspan class="cls-16" x="27.01" y="0">キ</tspan><tspan class="cls-41" x="34.76" y="0">ッ</tspan><tspan class="cls-26" x="41.7" y="0">ト</tspan><tspan class="cls-8" x="49.82" y="0">錦糸町</tspan></text>
    <g>
      <text class="cls-23" transform="translate(476.5 9.68)"><tspan x="0" y="0">●</tspan></text>
      <text class="cls-25" transform="translate(479.84 8.65)"><tspan x="0" y="0">7</tspan></text>
    </g>
    <g>
      <text class="cls-23" transform="translate(476.5 32.68)"><tspan x="0" y="0">●</tspan></text>
      <text class="cls-25" transform="translate(479.84 31.65)"><tspan x="0" y="0">8</tspan></text>
    </g>
    <g>
      <text class="cls-23" transform="translate(476.5 55.78)"><tspan x="0" y="0">●</tspan></text>
      <text class="cls-25" transform="translate(479.84 54.75)"><tspan x="0" y="0">9</tspan></text>
    </g>
  </g>
</svg>