<?xml version="1.0" encoding="UTF-8"?>
<svg id="_レイヤー_2" data-name="レイヤー 2" xmlns="http://www.w3.org/2000/svg" viewBox="0 0 701.86 61.56">
  <defs>
    <style>
      .cls-1 {
        letter-spacing: -.07em;
      }

      .cls-2 {
        letter-spacing: 0em;
      }

      .cls-3 {
        letter-spacing: 0em;
      }

      .cls-4 {
        letter-spacing: -.15em;
      }

      .cls-5 {
        letter-spacing: 0em;
      }

      .cls-6 {
        letter-spacing: -.06em;
      }

      .cls-7 {
        letter-spacing: -.28em;
      }

      .cls-8 {
        letter-spacing: -.03em;
      }

      .cls-9 {
        letter-spacing: 0em;
      }

      .cls-10 {
        letter-spacing: -.18em;
      }

      .cls-11 {
        letter-spacing: -.05em;
      }

      .cls-12 {
        letter-spacing: -.07em;
      }

      .cls-13 {
        fill: #231815;
        font-size: 11px;
      }

      .cls-13, .cls-14, .cls-15 {
        font-family: YuMinPr6N-Regular-83pv-RKSJ-H, 'Yu Mincho Pr6N';
      }

      .cls-16 {
        letter-spacing: -.17em;
      }

      .cls-14 {
        fill: #3e3a39;
        font-size: 9.8px;
      }

      .cls-17 {
        letter-spacing: -.12em;
      }

      .cls-18 {
        letter-spacing: -.21em;
      }

      .cls-19 {
        letter-spacing: 0em;
      }

      .cls-20 {
        letter-spacing: -.2em;
      }

      .cls-21 {
        letter-spacing: -.19em;
      }

      .cls-22 {
        fill: none;
        stroke: #231815;
        stroke-miterlimit: 10;
        stroke-width: .3px;
      }

      .cls-23 {
        letter-spacing: 0em;
      }

      .cls-24 {
        letter-spacing: -.07em;
      }

      .cls-25 {
        letter-spacing: -.24em;
      }

      .cls-26 {
        letter-spacing: -.03em;
      }

      .cls-27 {
        letter-spacing: -.06em;
      }

      .cls-15 {
        fill: #fff;
        font-size: 8px;
      }

      .cls-28 {
        letter-spacing: 0em;
      }

      .cls-29 {
        letter-spacing: -.22em;
      }
    </style>
  </defs>
  <g id="_レイヤー_1-2" data-name="レイヤー 1">
    <text class="cls-14" transform="translate(145.27 9.68)"><tspan x="0" y="0">約29</tspan><tspan class="cls-8" x="20.42" y="0">0</tspan><tspan class="cls-26" x="25.4" y="0">ｍ</tspan><tspan class="cls-2" x="34.86" y="0">／徒歩4分</tspan></text>
    <line class="cls-22" x1="225.35" y1="15.41" x2=".29" y2="15.41"/>
    <text class="cls-14" transform="translate(145.27 32.68)"><tspan x="0" y="0">約31</tspan><tspan class="cls-8" x="20.42" y="0">0</tspan><tspan class="cls-26" x="25.4" y="0">ｍ</tspan><tspan class="cls-2" x="34.86" y="0">／徒歩4分</tspan></text>
    <line class="cls-22" x1="225.35" y1="38.41" x2=".29" y2="38.41"/>
    <text class="cls-14" transform="translate(145.27 55.68)"><tspan x="0" y="0">約59</tspan><tspan class="cls-8" x="20.42" y="0">0</tspan><tspan class="cls-26" x="25.4" y="0">ｍ</tspan><tspan class="cls-2" x="34.86" y="0">／徒歩8分</tspan></text>
    <line class="cls-22" x1="225.35" y1="61.41" x2=".29" y2="61.41"/>
    <text class="cls-14" transform="translate(11.97 9.68)"><tspan x="0" y="0">亀戸天神社</tspan></text>
    <text class="cls-14" transform="translate(11.97 32.68)"><tspan x="0" y="0">本所郵便局</tspan></text>
    <text class="cls-14" transform="translate(11.97 55.68)"><tspan x="0" y="0">本所消防署</tspan></text>
    <g>
      <text class="cls-13" transform="translate(0 9.68)"><tspan x="0" y="0">●</tspan></text>
      <text class="cls-15" transform="translate(3.33 8.65)"><tspan x="0" y="0">1</tspan></text>
    </g>
    <g>
      <text class="cls-13" transform="translate(0 32.68)"><tspan x="0" y="0">●</tspan></text>
      <text class="cls-15" transform="translate(3.33 31.65)"><tspan x="0" y="0">2</tspan></text>
    </g>
    <g>
      <text class="cls-13" transform="translate(0 55.78)"><tspan x="0" y="0">●</tspan></text>
      <text class="cls-15" transform="translate(3.33 54.75)"><tspan x="0" y="0">3</tspan></text>
    </g>
    <text class="cls-14" transform="translate(383.52 9.68)"><tspan x="0" y="0">約69</tspan><tspan class="cls-8" x="20.42" y="0">0</tspan><tspan class="cls-26" x="25.4" y="0">ｍ</tspan><tspan class="cls-2" x="34.86" y="0">／徒歩9分</tspan></text>
    <line class="cls-22" x1="463.61" y1="15.41" x2="238.55" y2="15.41"/>
    <text class="cls-14" transform="translate(383.52 32.68)"><tspan x="0" y="0">約71</tspan><tspan class="cls-8" x="20.42" y="0">0</tspan><tspan class="cls-26" x="25.4" y="0">ｍ</tspan><tspan class="cls-2" x="34.86" y="0">／徒歩9分</tspan></text>
    <line class="cls-22" x1="463.61" y1="38.41" x2="238.55" y2="38.41"/>
    <text class="cls-14" transform="translate(378.21 55.68)"><tspan x="0" y="0">約73</tspan><tspan class="cls-8" x="20.42" y="0">0</tspan><tspan class="cls-26" x="25.4" y="0">ｍ</tspan><tspan class="cls-2" x="34.86" y="0">／徒歩10分</tspan></text>
    <line class="cls-22" x1="463.61" y1="61.41" x2="238.55" y2="61.41"/>
    <text class="cls-14" transform="translate(250.22 9.68)"><tspan x="0" y="0">墨田区横</tspan><tspan class="cls-12" x="39.2" y="0">川</tspan><tspan class="cls-29" x="48.27" y="0">コ</tspan><tspan class="cls-25" x="55.9" y="0">ミ</tspan><tspan class="cls-17" x="63.3" y="0">ュ</tspan><tspan class="cls-24" x="71.89" y="0">ニ</tspan><tspan class="cls-21" x="81.04" y="0">テ</tspan><tspan class="cls-4" x="88.97" y="0">ィ</tspan><tspan x="97.26" y="0">会館</tspan></text>
    <text class="cls-14" transform="translate(250.22 32.68)"><tspan x="0" y="0">横川出張所</tspan></text>
    <text class="cls-14" transform="translate(250.22 55.68)"><tspan x="0" y="0">本所警察署</tspan></text>
    <g>
      <text class="cls-13" transform="translate(238.25 9.68)"><tspan x="0" y="0">●</tspan></text>
      <text class="cls-15" transform="translate(241.58 8.65)"><tspan x="0" y="0">4</tspan></text>
    </g>
    <g>
      <text class="cls-13" transform="translate(238.25 32.68)"><tspan x="0" y="0">●</tspan></text>
      <text class="cls-15" transform="translate(241.58 31.65)"><tspan x="0" y="0">5</tspan></text>
    </g>
    <g>
      <text class="cls-13" transform="translate(238.25 55.78)"><tspan x="0" y="0">●</tspan></text>
      <text class="cls-15" transform="translate(241.58 54.75)"><tspan x="0" y="0">6</tspan></text>
    </g>
    <text class="cls-14" transform="translate(616.46 9.68)"><tspan x="0" y="0">約96</tspan><tspan class="cls-8" x="20.42" y="0">0</tspan><tspan class="cls-26" x="25.4" y="0">ｍ</tspan><tspan class="cls-2" x="34.86" y="0">／徒歩12分</tspan></text>
    <line class="cls-22" x1="701.86" y1="15.41" x2="476.8" y2="15.41"/>
    <text class="cls-14" transform="translate(608.47 32.68)"><tspan x="0" y="0">約1,01</tspan><tspan class="cls-8" x="28.41" y="0">0</tspan><tspan class="cls-26" x="33.39" y="0">ｍ</tspan><tspan class="cls-2" x="42.85" y="0">／徒歩13分</tspan></text>
    <line class="cls-22" x1="701.86" y1="38.41" x2="476.8" y2="38.41"/>
    <text class="cls-14" transform="translate(608.47 55.68)"><tspan x="0" y="0">約1,14</tspan><tspan class="cls-8" x="28.41" y="0">0</tspan><tspan class="cls-26" x="33.39" y="0">ｍ</tspan><tspan class="cls-2" x="42.85" y="0">／徒歩15分</tspan></text>
    <line class="cls-22" x1="701.86" y1="61.41" x2="476.8" y2="61.41"/>
    <text class="cls-14" transform="translate(488.44 9.68)"><tspan class="cls-28" x="0" y="0">み</tspan><tspan class="cls-5" x="9.75" y="0">ず</tspan><tspan class="cls-9" x="19.62" y="0">ほ</tspan><tspan class="cls-3" x="29.33" y="0">銀行錦糸町支店</tspan></text>
    <text class="cls-14" transform="translate(488.47 32.68)"><tspan x="0" y="0">三井住友銀行錦糸町支店</tspan></text>
    <text class="cls-14" transform="translate(488.49 55.68)"><tspan class="cls-23" x="0" y="0">す</tspan><tspan class="cls-8" x="9.87" y="0">み</tspan><tspan class="cls-18" x="19.34" y="0">だ</tspan><tspan class="cls-7" x="27.03" y="0">ト</tspan><tspan class="cls-20" x="34.06" y="0">リ</tspan><tspan class="cls-10" x="41.9" y="0">フ</tspan><tspan class="cls-16" x="49.89" y="0">ォ</tspan><tspan class="cls-1" x="58.06" y="0">ニ</tspan><tspan class="cls-27" x="67.15" y="0">ー</tspan><tspan class="cls-6" x="76.38" y="0">ホ</tspan><tspan class="cls-11" x="85.58" y="0">ー</tspan><tspan class="cls-19" x="94.91" y="0">ル</tspan></text>
    <g>
      <text class="cls-13" transform="translate(476.5 9.68)"><tspan x="0" y="0">●</tspan></text>
      <text class="cls-15" transform="translate(479.84 8.65)"><tspan x="0" y="0">7</tspan></text>
    </g>
    <g>
      <text class="cls-13" transform="translate(476.5 32.68)"><tspan x="0" y="0">●</tspan></text>
      <text class="cls-15" transform="translate(479.84 31.65)"><tspan x="0" y="0">8</tspan></text>
    </g>
    <g>
      <text class="cls-13" transform="translate(476.5 55.78)"><tspan x="0" y="0">●</tspan></text>
      <text class="cls-15" transform="translate(479.84 54.75)"><tspan x="0" y="0">9</tspan></text>
    </g>
  </g>
</svg>